<?xml version="1.0" encoding="UTF-8" standalone="no"?>
<!DOCTYPE svg PUBLIC "-//W3C//DTD SVG 1.1//EN" "http://www.w3.org/Graphics/SVG/1.1/DTD/svg11.dtd">
<!-- Created with Vectornator (http://vectornator.io/) -->
<svg height="100%" stroke-miterlimit="10" style="fill-rule:nonzero;clip-rule:evenodd;stroke-linecap:round;stroke-linejoin:round;" version="1.1" viewBox="0 0 666.667 666.667" width="100%" xml:space="preserve" xmlns="http://www.w3.org/2000/svg" xmlns:vectornator="http://vectornator.io" xmlns:xlink="http://www.w3.org/1999/xlink">
<defs/>
<g id="Layer-1" vectornator:layerName="Layer 1">
<g opacity="1" vectornator:layerName="Group 1">
<path d="M207.331 285.472C207.387 285.543 208.169 286.026 209.091 286.551C211.291 287.815 212.739 288.794 216.103 291.335C219.041 293.55 219.367 293.875 220.702 295.919C221.17 296.615 221.951 297.636 222.462 298.176C223.725 299.511 226.862 302.023 228.878 303.3C229.446 303.655 230.326 304.223 230.837 304.55L231.759 305.146L225.527 305.188C222.093 305.203 219.269 305.203 219.254 305.174C219.226 305.146 219.141 304.776 219.055 304.364C218.885 303.456 218.005 301.796 217.082 300.603C216.727 300.135 215.847 298.915 215.153 297.907C214.457 296.884 213.378 295.423 212.753 294.642C211.206 292.74 210.255 291.348 208.779 288.864C207.558 286.822 206.863 285.344 207.118 285.344C207.203 285.344 207.289 285.402 207.331 285.472ZM296.825 238.035C297.294 239.256 297.322 240.066 297.053 244.976C296.754 250.284 296.811 251.634 297.337 253.195C297.918 254.94 298.798 256.219 300.913 258.39C301.949 259.455 302.801 260.434 302.801 260.562C302.801 260.69 302.929 261.2 303.099 261.683C303.369 262.478 303.383 262.663 303.241 263.699C303.014 265.303 302.347 267.9 301.835 269.206C301.594 269.802 301.041 270.895 300.615 271.619C299.281 273.904 298.471 275.891 297.705 278.887C297.109 281.158 296.754 283.216 296.897 283.571C296.995 283.826 297.463 283.855 297.649 283.599C297.719 283.514 297.903 282.762 298.031 281.952C298.627 278.46 299.749 275.239 301.425 272.215C301.978 271.207 302.645 269.831 302.886 269.163C303.525 267.488 304.107 264.82 304.206 263.159L304.291 261.754L306.846 264.238C310.665 267.943 311.389 268.922 314.001 274.06C315.646 277.326 316.925 279.255 319.238 281.995C320.53 283.528 326.577 289.759 326.945 289.944C327.243 290.086 327.641 289.83 327.641 289.49C327.641 289.376 326.278 287.9 324.617 286.211C319.181 280.69 317.179 278.106 315.037 273.791C312.666 268.994 311.53 267.39 308.251 264.195C300.133 256.29 299.494 255.594 298.699 253.932C297.762 251.974 297.691 250.895 298.046 244.224C298.273 240.051 298.217 238.83 297.762 237.751C297.649 237.468 297.606 237.227 297.677 237.227C297.747 237.227 298.131 237.483 298.529 237.795C299.977 238.93 302.333 242.095 305.129 246.651C307.783 250.952 309.174 252.755 312.751 256.516C316.981 260.974 318.215 262.01 322.602 264.778C323.865 265.572 325.881 267.588 327.769 269.944C329.614 272.243 330.054 272.712 330.351 272.712C330.579 272.712 330.849 273.024 333.233 276.034C333.843 276.8 335.249 278.418 336.355 279.652C337.463 280.874 339.053 282.662 339.905 283.642C342.19 286.267 345.497 289.603 345.809 289.603C346.193 289.603 346.321 289.078 346.007 288.708C345.851 288.539 344.971 287.602 344.021 286.622C343.07 285.643 341.537 283.982 340.614 282.932C339.691 281.882 338.087 280.079 337.037 278.93C335.987 277.766 334.681 276.275 334.142 275.594C333.602 274.898 332.651 273.734 332.041 272.982L330.934 271.604L331.814 270.824C335.093 267.928 337.051 267.616 340.003 269.519C341.565 270.526 342.289 271.292 344.503 274.274C348.833 280.092 353.417 285.742 356.199 288.695C357.15 289.703 358.513 291.179 359.222 291.959C359.918 292.726 361.139 294.06 361.934 294.926C364.049 297.239 364.673 298.048 365.823 299.908C367.47 302.604 368.066 303.456 368.946 304.364L369.769 305.216L364.843 305.216L359.933 305.216L358.301 303.542C357.391 302.634 355.618 300.603 354.326 299.056C353.049 297.495 351.217 295.423 350.266 294.443C348.762 292.896 348.491 292.668 348.265 292.811C347.726 293.138 347.895 293.435 349.529 295.111C351.373 297.012 352.211 297.963 354.467 300.746C355.347 301.839 356.625 303.286 357.293 303.967L358.513 305.216L331.714 305.216C305.171 305.216 304.93 305.216 304.93 304.932C304.93 304.776 304.774 304.578 304.59 304.479C304.15 304.238 301.594 301.242 300.374 299.511C298.813 297.324 297.847 296.246 297.493 296.303C296.939 296.388 297.053 296.914 297.819 297.794C298.202 298.247 299.067 299.368 299.749 300.306C300.417 301.228 301.609 302.704 302.389 303.599L303.809 305.216L292.965 305.216L282.121 305.216L281.609 304.464C279.579 301.512 278.117 299.866 275.051 297.012C270.651 292.939 269.658 292.115 269.303 292.228C268.721 292.414 269.019 292.854 270.991 294.628C274.91 298.162 277.762 300.93 278.387 301.81C278.742 302.292 279.451 303.243 279.977 303.924L280.927 305.146L257.153 305.188L233.363 305.216L232.697 304.663C232.341 304.364 231.249 303.627 230.269 303.016C228.239 301.767 224.805 299.127 223.498 297.835C223.015 297.354 222.022 296.09 221.313 295.054C219.879 292.939 219.737 292.811 216.159 290.114C213.293 287.943 211.845 286.963 209.758 285.771C208.906 285.274 207.885 284.635 207.502 284.338C206.706 283.698 206.565 283.67 206.21 284.067C206.011 284.295 205.969 284.507 206.039 285.188C206.125 286.224 206.507 287.076 207.998 289.575C209.431 291.959 210.397 293.379 211.817 295.139C212.413 295.876 213.35 297.126 213.874 297.907C214.414 298.687 215.337 299.994 215.933 300.816C217.353 302.762 217.891 303.74 218.005 304.55L218.105 305.216L182.42 305.216L146.751 305.216L147.049 304.904C147.219 304.734 148.496 303.726 149.887 302.662C151.931 301.086 152.414 300.66 152.414 300.376C152.414 299.851 151.889 299.851 151.25 300.376C150.952 300.618 149.817 301.498 148.723 302.322C147.631 303.159 146.41 304.152 145.998 304.535L145.26 305.216L130.839 305.216C121.216 305.216 116.446 305.174 116.503 305.075C116.545 304.99 116.957 304.678 117.397 304.379C118.419 303.683 120.874 301.158 121.655 299.994C121.996 299.511 122.706 298.176 123.259 297.04C125.36 292.698 127.901 289.631 131.506 287.091C132.415 286.438 133.72 285.387 134.416 284.735C135.097 284.082 136.176 283.159 136.815 282.691C138.759 281.214 140.051 279.624 141.499 276.899C142.748 274.571 143.997 273.379 147.205 271.448C151.974 268.596 153.308 267.347 157.581 261.598C160.036 258.304 161.867 256.702 163.883 256.076C165.061 255.722 166.012 255.792 166.878 256.303C167.19 256.488 168.141 257.411 168.979 258.347C170.525 260.079 171.959 261.386 174.912 263.755C177.183 265.572 179.184 267.46 180.135 268.652C180.561 269.206 181.185 269.93 181.498 270.256L182.051 270.852L181.541 271.591C181.257 272.002 180.59 272.84 180.064 273.45C179.17 274.5 178.489 275.126 174.813 278.332C169.163 283.272 166.055 286.239 163.869 288.78C162.974 289.816 162.094 290.654 161.115 291.391C160.306 292.002 158.858 293.166 157.879 294.003C156.899 294.827 155.806 295.75 155.437 296.047C155.054 296.346 154.756 296.7 154.756 296.828C154.756 297.112 155.025 297.41 155.281 297.41C155.451 297.41 157.041 296.132 159.113 294.344C159.667 293.862 160.718 293.01 161.456 292.47C163.017 291.307 163.358 290.98 165.231 288.864C166.821 287.062 168.553 285.344 170.441 283.698C171.151 283.088 172.257 282.08 172.924 281.455C173.578 280.846 175.21 279.398 176.544 278.248C181.228 274.203 182.42 272.698 185.444 267.048C186.21 265.615 187.076 264.096 187.36 263.656C187.984 262.734 189.347 261.215 189.574 261.215C189.659 261.215 190.085 261.584 190.54 262.038C191.561 263.103 191.959 264.082 192.058 265.799C192.201 268.482 191.661 269.746 188.651 273.804C186.707 276.431 185.841 278.603 185.132 282.691C184.379 287.006 183.471 289.148 181.455 291.335C180.504 292.371 179.723 292.952 177.339 294.372C175.692 295.338 175.408 295.564 175.408 295.863C175.408 296.444 175.934 296.374 177.367 295.551C181.185 293.379 183.003 291.647 184.408 288.836C185.189 287.262 185.515 286.182 185.927 283.783C186.821 278.674 187.389 277.268 189.901 273.763C190.739 272.599 191.704 271.136 192.03 270.512C193.648 267.46 193.364 263.599 191.349 261.414C190.681 260.69 190.724 260.647 191.561 261.172C194.557 263.06 195.593 263.855 198.715 266.636C199.794 267.602 201.413 269.007 202.306 269.746C204.762 271.803 206.238 273.238 207.502 274.784C211.83 280.107 214.115 282.35 218.558 285.643C221.313 287.672 224.449 290.186 225.798 291.434C227.445 292.952 230.737 295.692 233.037 297.438C234.13 298.262 236.046 299.838 237.295 300.944C239.069 302.506 239.637 302.931 239.921 302.903C240.147 302.888 240.29 302.775 240.318 302.591C240.347 302.378 239.779 301.796 238.033 300.291C236.755 299.17 235.081 297.779 234.299 297.168C231.334 294.87 228.85 292.826 227.075 291.235C226.067 290.312 224.989 289.376 224.705 289.135C224.406 288.894 224.166 288.666 224.166 288.61C224.166 288.424 226.649 285.16 227.586 284.11C228.083 283.556 229.19 282.322 230.027 281.371C231.845 279.327 233.562 277.055 235.705 273.847C237.849 270.654 238.985 268.723 240.587 265.544C242.447 261.839 242.987 261.059 245.995 257.623C247.358 256.062 248.878 254.09 249.743 252.77C253.59 246.85 254.953 244.976 255.961 244.31C256.982 243.614 256.982 243.671 256.017 246.766C254.143 252.727 253.533 256.147 254.03 258.05C254.526 260.008 256.003 262.236 258.458 264.763C259.679 266.012 259.921 266.339 259.991 266.822C260.034 267.134 260.119 267.659 260.162 267.986C260.361 269.334 259.367 271.69 257.535 274.203C254.754 278.035 253.135 280.647 252.61 282.222C252.227 283.33 252.255 285.756 252.667 287.9C253.065 289.958 253.221 292.868 252.994 294.272C252.894 294.855 252.667 295.72 252.454 296.19C251.971 297.324 251.886 297.907 252.185 298.02C252.582 298.176 252.795 297.978 253.235 297.012C253.917 295.536 254.045 294.77 254.03 292.087C254.015 290.143 253.945 289.248 253.646 287.531C253.206 285.075 253.178 284.039 253.477 282.89C253.859 281.384 255.123 279.227 257.593 275.835C259.282 273.507 260.019 272.315 260.531 271.094C260.985 269.987 261.269 268.34 261.127 267.687L261.042 267.262L261.723 267.858C262.759 268.766 264.022 270.271 264.391 271.08C264.859 272.074 264.917 272.798 264.69 274.827C264.207 279.056 264.59 282.535 265.825 285.118C266.322 286.168 266.563 286.395 266.961 286.254C267.302 286.126 267.217 285.615 266.677 284.451C265.598 282.136 265.243 278.83 265.655 275.04C266.081 271.108 265.555 269.93 261.809 266.58C256.727 261.995 254.782 259.114 254.797 256.176C254.797 255.267 254.966 254.402 255.591 251.932C256.031 250.228 256.642 248.028 256.954 247.05C257.266 246.07 257.565 245.019 257.621 244.72L257.706 244.167L258.118 244.566C258.714 245.132 259.551 246.523 261.311 249.93C262.93 253.024 263.767 254.444 264.889 255.892C266.734 258.304 271.19 262.89 273.433 264.692C274.327 265.416 275.25 266.226 275.463 266.48C275.675 266.736 276.201 267.659 276.613 268.539C277.422 270.271 280.118 274.842 281.126 276.204C281.467 276.658 282.561 277.935 283.554 279.028C287.287 283.116 290.75 287.388 292.865 290.554C293.958 292.172 294.129 292.356 294.498 292.215C294.895 292.059 294.71 291.562 293.689 290.043C291.361 286.594 288.167 282.606 284.661 278.759C283.667 277.68 282.503 276.331 282.078 275.75C280.957 274.259 278.373 269.902 277.465 267.956C276.869 266.708 276.499 266.098 275.889 265.474L275.094 264.635L275.974 263.103C276.882 261.527 278.798 258.631 282.475 253.238C285.413 248.951 285.739 248.511 288.877 244.75C292.155 240.818 295.718 237.227 296.357 237.227C296.442 237.227 296.655 237.595 296.825 238.035ZM241.127 206.156C241.794 207.518 241.837 207.646 241.879 208.966C241.993 211.563 240.999 214.247 238.827 217.284C237.423 219.256 236.898 220.108 236.443 221.187C235.649 223.062 235.621 223.416 235.591 228.923C235.563 234.743 235.478 235.395 234.527 237.326C233.846 238.703 232.654 239.98 230.055 242.11C227.629 244.111 224.023 247.744 224.023 248.212C224.023 248.44 224.123 248.596 224.307 248.654C224.534 248.724 225.017 248.312 226.749 246.566C227.941 245.374 229.843 243.614 230.978 242.663C233.165 240.832 233.889 240.122 234.711 239.03L235.209 238.362L235.634 239.1C236.911 241.371 238.842 243.571 242.149 246.552C244.137 248.34 244.818 248.88 245.059 248.838C245.273 248.808 245.399 248.682 245.429 248.496C245.457 248.255 244.946 247.702 243.015 245.984C240.063 243.344 239.31 242.578 237.877 240.647C235.975 238.092 235.79 237.454 236.287 235.311C236.514 234.331 236.557 233.508 236.571 229.066C236.585 224.594 236.614 223.842 236.841 223.032C237.223 221.656 237.934 220.307 239.154 218.562C241.823 214.771 242.646 212.855 242.859 209.959C242.958 208.412 242.731 207.163 242.121 205.943C241.866 205.432 241.709 205.006 241.766 205.006C242.135 205.006 244.434 207.022 246.749 209.363C250.098 212.77 251.403 214.318 254.47 218.562C257.209 222.323 259.325 224.85 263.057 228.78C265.541 231.392 267.159 233.252 268.806 235.382C271.531 238.902 273.845 241.328 275.037 241.896C275.833 242.294 276.839 242.28 277.663 241.883C278.075 241.683 278.941 240.946 280.019 239.838C282.006 237.808 282.461 237.582 283.554 237.994C283.909 238.12 284.562 238.562 285.015 238.972C285.797 239.668 287.969 241.982 288.593 242.791L288.89 243.16L287.315 245.062C285.285 247.49 284.434 248.611 282.717 251.138C281.95 252.272 280.359 254.6 279.182 256.318C277.365 258.958 274.541 263.443 274.37 263.968C274.186 264.522 268.011 258.276 265.683 255.183C264.419 253.507 263.753 252.372 261.779 248.596C260.091 245.331 259.693 244.692 258.855 243.842C258.061 243.032 257.266 242.72 256.499 242.904C255.066 243.274 253.902 244.523 251.134 248.724C248.069 253.379 247.231 254.543 245.713 256.303C242.149 260.406 241.426 261.456 239.495 265.331C238.118 268.084 236.783 270.342 234.626 273.55C232.001 277.452 230.553 279.312 227.955 282.123C226.394 283.798 224.989 285.53 223.966 287.02L223.271 288.027L222.193 287.134C221.597 286.651 220.503 285.814 219.765 285.274C215.606 282.264 212.313 279.128 209.119 275.126C207.274 272.811 206.11 271.662 202.263 268.326C200.405 266.722 198.19 264.806 197.367 264.082C195.863 262.776 192.74 260.547 191.533 259.938C190.256 259.299 189.191 259.782 187.445 261.826C186.579 262.819 185.969 263.827 183.868 267.744C183.301 268.795 182.775 269.718 182.719 269.774C182.534 269.972 182.122 269.618 181.37 268.624C180.987 268.114 180.291 267.29 179.851 266.822L179.042 265.942L179.951 264.252C181.03 262.236 182.733 259.526 185.259 255.807C187.417 252.627 187.857 252.116 194.003 245.884C196.657 243.188 199.978 239.796 201.383 238.348C204.861 234.743 207.203 232.812 208.353 232.599C209.63 232.358 210.298 232.84 212.554 235.623C213.321 236.588 214.017 237.368 214.087 237.368C214.158 237.368 214.839 237.951 215.606 238.675C217.906 240.818 220.305 242.492 220.801 242.294C221.298 242.11 221.057 241.655 220.162 241.044C218.942 240.222 217.069 238.759 216.642 238.291C216.387 237.994 216.345 237.879 216.473 237.823C216.883 237.68 217.707 236.843 218.246 236.02C218.545 235.551 219.623 233.508 220.645 231.478C221.667 229.448 222.917 227.12 223.427 226.296C225.117 223.586 227.571 219.91 229.049 217.866C229.843 216.774 230.794 215.41 231.149 214.871C233.761 210.854 234.342 209.959 235.081 208.995C236.287 207.419 238.133 205.716 239.197 205.176C239.694 204.92 240.177 204.722 240.262 204.722C240.347 204.722 240.73 205.375 241.127 206.156ZM239.297 203.942C237.806 204.467 235.493 206.567 233.789 208.923C233.349 209.548 232.27 211.166 231.39 212.528C230.51 213.891 229.019 216.091 228.069 217.426C224.207 222.834 221.994 226.454 219.609 231.194C217.082 236.232 216.415 237.127 215.422 236.886C215.251 236.843 214.741 236.375 214.286 235.85C213.335 234.728 212.129 233.438 211.319 232.642C210.113 231.45 208.679 231.223 207.189 231.975C205.911 232.614 202.902 235.226 200.461 237.808C199.254 239.086 196.444 241.982 194.216 244.252C187.175 251.392 186.608 252.031 184.72 254.899C184.053 255.907 183.4 256.843 183.272 256.971C183.144 257.099 182.761 257.68 182.42 258.248C182.094 258.83 181.398 259.938 180.873 260.718C180.348 261.499 179.624 262.719 179.269 263.43C178.205 265.474 178.446 265.416 176.799 264.039C176.019 263.387 174.543 262.151 173.521 261.314C172.499 260.476 171.065 259.128 170.341 258.334C167.417 255.126 167.077 254.899 165.118 254.912C162.222 254.94 160.022 256.63 156.062 261.882C152.598 266.48 151.108 267.9 147.56 270.03C142.918 272.811 141.882 273.776 140.406 276.715C139.356 278.802 137.993 280.448 136.091 281.91C135.31 282.506 134.132 283.514 133.465 284.138C132.798 284.778 131.847 285.572 131.336 285.912C128.781 287.616 126.978 289.334 125.161 291.788C123.955 293.435 123.387 294.387 122.237 296.7C121.641 297.907 120.86 299.298 120.506 299.78C119.526 301.086 118.036 302.619 116.999 303.343C116.489 303.712 115.751 304.266 115.353 304.592L114.629 305.174L109.605 305.259C106.836 305.316 103.544 305.359 102.295 305.359L99.9954 305.359L99.9239 305.742C99.8812 305.968 99.8812 306.167 99.9239 306.21C99.9526 306.252 162.435 306.282 238.757 306.282L377.533 306.282L377.533 305.784L377.533 305.287L374.169 305.246C371.046 305.216 370.791 305.188 370.791 304.962C370.791 304.819 370.407 304.336 369.925 303.868C369.059 303.002 368.265 301.895 366.689 299.312C366.206 298.516 365.469 297.452 365.057 296.942C364.389 296.09 360.018 291.292 355.873 286.835C355.007 285.899 353.446 284.082 352.423 282.79C348.222 277.538 347.186 276.204 345.597 274.046C344.674 272.811 343.638 271.448 343.269 271.023C342.361 269.93 340.757 268.71 339.322 267.999C338.13 267.403 338.045 267.39 336.739 267.39C335.561 267.39 335.263 267.446 334.567 267.772C333.489 268.27 332.325 269.05 331.43 269.874C330.962 270.299 330.522 270.568 330.225 270.611C329.783 270.668 329.699 270.611 328.875 269.603C327.555 267.956 327.143 267.503 325.738 266.07C324.49 264.778 324.05 264.466 320.473 262.138C318.954 261.144 318.386 260.647 315.135 257.396C310.323 252.571 309.189 251.151 305.923 245.956C302.957 241.215 301.226 238.874 299.593 237.383C298.642 236.503 298.202 236.275 297.251 236.091C296.613 235.963 296.457 235.992 295.859 236.304C295.037 236.716 291.899 239.596 290.609 241.116C290.111 241.712 289.657 242.195 289.601 242.195C289.543 242.195 288.99 241.599 288.351 240.875C286.847 239.128 285.214 237.595 284.477 237.212C284.135 237.042 283.497 236.872 283.057 236.843C281.779 236.716 281.041 237.156 279.267 239.058C277.237 241.23 276.471 241.57 275.25 240.804C274.342 240.207 271.871 237.582 270.169 235.382C268.025 232.628 266.918 231.336 264.079 228.312C259.707 223.671 258.43 222.152 255.109 217.624C251.843 213.196 250.453 211.55 247.231 208.342C244.378 205.474 242.945 204.296 241.922 203.942C241.142 203.671 240.034 203.671 239.297 203.942L239.297 203.942" fill="#29402a" fill-rule="evenodd" opacity="1" stroke="none" vectornator:layerName="path"/>
<path d="M221.411 252.372C221.355 252.428 221.213 252.712 221.099 252.983C220.759 253.791 219.169 256.062 217.423 258.234C214.869 261.414 214.301 262.01 212.427 263.5C211.475 264.252 210.057 265.474 209.262 266.196C208.098 267.29 207.842 267.602 207.87 267.886C207.942 268.554 208.453 268.312 209.957 266.92C210.751 266.183 212.171 264.962 213.137 264.21C215.01 262.719 215.663 262.01 218.346 258.66C220.843 255.538 222.249 253.308 222.15 252.656C222.107 252.343 221.625 252.159 221.411 252.372" fill="#29402a" fill-rule="evenodd" opacity="1" stroke="none" vectornator:layerName="path"/>
<path d="M155.267 269.12C155.083 269.419 154.557 270.015 154.103 270.455C153.209 271.292 149.419 274.16 146.594 276.119C143.613 278.176 142.904 278.915 141.329 281.626C139.795 284.28 139.341 284.862 137.013 287.262C134.189 290.156 133.039 291.562 133.039 292.059C133.039 292.343 133.266 292.584 133.536 292.584C133.564 292.584 134.09 291.988 134.685 291.264C135.296 290.554 136.815 288.907 138.063 287.616C140.292 285.316 140.392 285.203 141.896 282.648C143.727 279.554 144.408 278.815 147.163 276.914C149.788 275.111 153.692 272.159 154.784 271.164C156.161 269.902 156.729 268.596 155.892 268.596C155.721 268.596 155.48 268.795 155.267 269.12" fill="#29402a" fill-rule="evenodd" opacity="1" stroke="none" vectornator:layerName="path"/>
<path d="M329.471 279.582C330.465 280.32 332.666 282.648 334.326 284.706C335.135 285.714 336.398 287.219 337.137 288.042C339.322 290.498 343.027 295.28 344.73 297.864C345.597 299.184 346.037 299.624 347.711 300.887C348.903 301.782 349.343 302.406 349.059 302.747C348.393 303.556 345.043 303.187 344.531 302.236C344.461 302.094 343.523 301.043 342.459 299.879C339.563 296.714 339.365 296.459 333.431 287.999C331.274 284.947 328.095 279.81 327.854 278.986C327.754 278.659 327.769 278.659 328.279 278.872C328.578 279 329.103 279.312 329.471 279.582ZM327.017 277.907C326.633 278.276 326.746 279.128 327.286 280.178C328.322 282.151 331.359 286.835 334.341 291.023C338.585 296.998 338.783 297.254 341.225 299.936C342.417 301.242 343.382 302.378 343.397 302.478C343.397 302.562 343.681 302.888 344.035 303.202C344.915 303.967 346.093 304.294 347.697 304.195C349.457 304.082 350.21 303.584 350.21 302.506C350.21 301.782 349.755 301.186 348.365 300.064C346.618 298.674 346.263 298.304 345.554 297.196C344.886 296.16 340.983 290.951 339.862 289.603C339.507 289.178 338.641 288.183 337.931 287.403C337.235 286.608 335.987 285.146 335.178 284.124C333.205 281.683 332.382 280.788 331.005 279.554C329.217 277.964 327.613 277.296 327.017 277.907L327.017 277.907" fill="#29402a" fill-rule="evenodd" opacity="1" stroke="none" vectornator:layerName="path"/>
<path d="M198.275 281.824C198.517 282.08 199.085 282.832 199.553 283.486C200.007 284.124 200.958 285.274 201.639 286.04C203.229 287.758 203.897 288.68 205.003 290.739C205.798 292.2 207.062 294.287 209.361 297.992C209.773 298.659 210.113 299.298 210.113 299.398C210.113 299.667 209.275 299.496 208.395 299.042C207.558 298.631 205.713 297.226 204.421 296.019C202.959 294.671 200.845 291.775 199.766 289.646C199.055 288.255 198.715 287.147 198.331 284.99C198.162 284.054 197.934 282.903 197.821 282.435C197.722 281.967 197.622 281.54 197.622 281.47C197.622 281.256 197.863 281.384 198.275 281.824ZM196.998 280.604C196.629 280.959 196.586 281.455 196.828 282.535C196.955 283.102 197.211 284.451 197.41 285.515C197.835 287.886 198.389 289.447 199.369 291.066C201.27 294.244 203.03 296.316 205.542 298.332C208.041 300.334 209.559 300.902 210.794 300.263C211.191 300.064 211.39 299.866 211.39 299.68C211.39 299.524 211.05 298.872 210.638 298.219C209.587 296.587 206.494 291.391 205.514 289.618C204.578 287.914 203.967 287.091 202.25 285.203C201.569 284.464 200.646 283.315 200.177 282.648C199.098 281.058 198.346 280.376 197.707 280.376C197.438 280.376 197.111 280.476 196.998 280.604L196.998 280.604" fill="#29402a" fill-rule="evenodd" opacity="1" stroke="none" vectornator:layerName="path"/>
<path d="M129.462 296.587C129.348 296.686 128.851 297.296 128.355 297.95C127.872 298.602 126.78 299.866 125.913 300.759C124.863 301.867 124.381 302.463 124.437 302.604C124.48 302.732 124.522 302.86 124.522 302.888C124.522 302.918 124.679 302.946 124.863 302.946C125.289 302.946 127.589 300.56 129.15 298.503C130.229 297.07 130.328 296.884 130.03 296.587C129.817 296.374 129.746 296.374 129.462 296.587" fill="#29402a" fill-rule="evenodd" opacity="1" stroke="none" vectornator:layerName="path"/>
<path d="M376.388 213.75C375.941 213.772 375.523 213.885 375.076 214.094C374.068 214.562 372.007 216.627 370.857 218.344C370.388 219.039 369.445 220.732 368.763 222.094C368.067 223.457 366.961 225.471 366.295 226.563C364.975 228.75 364.099 230.24 363.076 232C362.693 232.639 361.993 233.62 361.482 234.188C360.29 235.537 359.538 236.614 358.545 238.344C358.09 239.126 357.393 240.263 356.982 240.844C356.584 241.427 355.911 242.459 355.513 243.125C354.349 245.056 353.481 245.657 351.92 245.657C351.069 245.657 350.229 245.145 349.263 244.094C348.071 242.774 347.1 242.657 345.17 243.594C343.196 244.545 341.565 246.006 338.826 249.157C334.866 253.742 333.477 255.626 330.638 260.438C329.909 261.666 329.143 262.934 328.701 263.625L326.79 267.877L327.591 268.131C328.117 267.315 330.921 262.053 331.638 260.844C334.208 256.5 335.745 254.338 338.982 250.563C342.672 246.262 345.395 244.094 347.17 244.094C347.78 244.094 347.879 244.163 348.857 245.157C350.164 246.491 350.757 246.711 352.388 246.625C354.319 246.525 355.049 245.996 356.482 243.625C356.908 242.916 357.572 241.863 357.982 241.282C358.38 240.699 359.006 239.668 359.388 239C360.354 237.298 360.986 236.414 362.263 234.938C362.958 234.129 363.847 232.781 364.67 231.375C365.394 230.127 366.534 228.25 367.201 227.157C367.868 226.065 368.972 224.07 369.638 222.75C370.306 221.416 371.195 219.81 371.607 219.157C372.857 217.241 375.278 214.903 376.045 214.875C376.158 214.875 376.201 215.087 376.201 215.469C376.201 215.809 376.345 217.024 376.545 218.188C377.069 221.383 377.254 223.215 377.17 225.344C377.084 227.572 376.772 228.818 375.92 230.563C375.069 232.28 374.054 233.494 371.826 235.438C368.731 238.149 368.47 238.581 367.888 242.157C367.363 245.478 366.705 247.061 365.201 248.594C363.98 249.829 362.849 250.511 359.982 251.844C358.592 252.483 357.146 253.262 356.763 253.532C355.485 254.469 354.907 255.691 353.545 260.219C353.105 261.682 352.587 263.282 352.388 263.75C351.451 265.993 350.068 267.466 345.638 271C342.985 273.105 344.7 271.842 343.98 273.52L345.403 272.788C345.755 271.835 342.747 274.999 343.326 274.375C343.653 274.006 345.131 272.742 346.607 271.563C349.971 268.866 350.997 267.923 351.92 266.688C352.941 265.311 353.474 264.055 354.482 260.719C356.213 255.027 356.525 254.528 359.42 253.25C363.11 251.618 364.796 250.578 366.201 249.032C367.634 247.47 368.371 245.709 368.826 242.657C369.351 239.193 369.658 238.659 372.326 236.344C373.377 235.451 374.607 234.273 375.076 233.719C375.984 232.626 377.014 230.71 377.482 229.375C378.39 226.75 378.392 223.014 377.482 217.875C377.326 216.995 377.201 215.96 377.201 215.563L377.201 214.844L378.076 215.313C379.041 215.837 380.356 217.01 381.732 218.5C382.798 219.65 389.257 228.626 389.357 229.094C389.385 229.265 389.725 230.012 390.107 230.75C390.49 231.489 391.169 232.961 391.638 233.969C392.106 234.992 393.156 236.99 393.951 238.438C396.62 243.206 399.637 249.406 400.388 251.563C400.758 252.655 401.326 254.046 401.638 254.657C401.937 255.282 403.571 257.847 405.232 260.344C406.892 262.858 408.479 265.353 408.763 265.907C409.317 267 409.568 267.29 409.951 267.219C410.746 267.063 409.991 265.616 405.888 259.469C402.766 254.785 402.234 253.82 401.326 251.094C400.645 249.093 397.645 243.037 395.076 238.438C393.771 236.095 392.428 233.411 391.576 231.438L391.263 230.75L391.888 231.188C392.626 231.7 395.479 233.021 397.295 233.688C398.147 234 399.216 234.233 400.295 234.375C404.269 234.914 410.149 236.046 412.107 236.657C414.591 237.423 415.408 237.314 418.232 235.938C419.979 235.099 420.447 235.099 423.67 235.938C429.73 237.513 432.033 237.81 434.388 237.313C436.674 236.83 437.222 236.585 438.826 235.094C440.458 233.589 441.635 232.896 443.295 232.469C444.672 232.115 445.381 232.216 447.326 233.125C449.697 234.232 450.566 234.492 452.638 234.563C454.753 234.648 455.469 234.463 457.201 233.469C458.536 232.717 462.237 231.233 463.67 230.907C464.308 230.751 466.089 230.324 467.607 229.969C471.17 229.103 472.928 229.018 475.638 229.5C477.129 229.77 477.798 229.808 479.701 229.75C480.936 229.722 481.934 229.739 481.92 229.782C481.892 229.824 481.48 230.645 480.982 231.625C480.245 233.087 479.982 233.782 479.513 235.657C478.52 239.687 477.633 241.631 475.42 244.469C472.566 248.132 471.05 251.319 470.17 255.563C469.674 257.991 469.41 258.501 467.763 260.688C467.082 261.596 466.243 262.771 465.888 263.282C465.52 263.794 464.754 264.689 464.201 265.313C462.725 266.96 462.132 267.778 460.67 270.063C459.322 272.163 459.167 272.665 459.763 272.75C460.133 272.806 460.475 272.371 461.951 270C462.49 269.135 463.437 267.832 464.076 267.094C466.503 264.256 469.73 259.911 470.326 258.719C470.554 258.265 470.849 257.153 471.076 256.032C471.516 253.832 472.332 251.397 473.17 249.75C473.823 248.43 474.634 247.223 476.451 244.782C478.58 241.9 479.505 239.902 480.357 236.438C480.94 234.011 481.428 232.657 482.295 231.125C483.203 229.549 483.485 229.212 484.888 228.063C485.57 227.508 487.048 226.118 488.17 224.969C489.304 223.833 490.179 222.999 490.107 223.157C489.611 224.349 488.996 226.299 488.67 227.719C488.202 229.777 488.144 231.783 488.513 233.188C488.981 234.948 490.439 237.481 492.17 239.625C492.88 240.519 493.115 241.37 492.888 242.094C492.647 242.918 492.13 243.642 489.263 247.219C485.445 251.974 484.711 253.186 484.045 255.657C483.761 256.678 483.732 257.164 483.732 259.719C483.732 261.323 483.785 263.822 483.857 265.313C483.999 268.536 483.828 269.514 482.92 271.344C481.94 273.29 479.395 275.775 476.513 277.563C475.576 278.144 475.357 278.356 475.357 278.625C475.357 279.463 476.717 278.855 479.201 276.938C482.21 274.597 483.895 272.379 484.576 269.938C484.888 268.831 484.956 265.116 484.701 261.782C484.43 258.232 484.736 255.987 485.857 253.688C486.511 252.353 487.309 251.251 490.388 247.375C491.424 246.085 492.46 244.781 492.701 244.469C493.098 243.944 493.752 242.702 493.951 242.063C494.022 241.822 494.113 241.882 494.795 242.563C496.115 243.842 497.378 245.526 498.045 246.875C498.698 248.195 498.983 249.219 499.607 252.469C499.821 253.591 500.144 254.735 500.357 255.188C501.123 256.764 502.927 258.142 505.638 259.25C506.688 259.676 506.974 259.852 507.201 260.25C507.429 260.633 507.563 260.731 507.888 260.688C508.414 260.631 508.448 260.211 507.951 259.5C507.624 259.032 507.311 258.853 506.076 258.313C503.223 257.093 501.945 256.124 501.263 254.719C501.078 254.337 500.687 252.861 500.388 251.313C499.779 248.276 499.515 247.332 498.763 245.969C498.067 244.692 497.113 243.526 495.013 241.313C492.713 238.857 491.354 237.025 490.388 235.094C489.451 233.221 489.119 231.876 489.232 230.344C489.346 228.64 490.145 225.61 490.982 223.594C491.181 223.126 491.412 222.609 491.482 222.438C491.582 222.154 491.641 222.139 492.138 222.282C492.877 222.48 493.481 222.956 495.638 224.844C499.073 227.868 500.084 229.187 502.951 234.438C507.778 243.31 509.646 245.431 515.451 248.782C516.856 249.591 517.957 250.73 518.638 252.063C519.392 253.511 519.585 253.731 523.701 257.875C527.037 261.225 527.392 261.612 528.357 263.188C528.939 264.125 530.242 266.013 531.263 267.375C534.401 271.591 535.214 272.295 536.888 272.282C538.734 272.267 540.216 271.168 542.232 268.344C542.73 267.648 543.452 266.838 543.92 266.469C544.374 266.115 544.767 265.861 544.795 265.875C544.809 265.903 544.755 266.711 544.67 267.719C544.344 271.566 545.142 274.286 548.138 279.282C549.685 281.879 549.841 282.156 550.763 284.313C552.878 289.181 553.122 289.623 554.201 290.844C554.628 291.327 554.894 291.528 555.107 291.5C555.646 291.43 555.544 290.903 554.763 289.938C554.365 289.442 553.801 288.57 553.545 288.032C552.594 286.002 551.672 283.892 551.232 282.813C550.976 282.204 550.053 280.544 549.201 279.125C545.894 273.617 545.187 271.199 545.67 266.969C545.911 264.84 546.001 264.806 547.42 266.438C548.74 267.985 549.637 269.364 551.482 272.813C553.498 276.574 557.066 282.559 558.67 284.844C560.827 287.938 562.473 290.303 563.607 292.063C564.957 294.136 565.841 295.275 568.013 297.688C568.936 298.696 570.238 300.316 570.92 301.282C571.601 302.234 572.458 303.444 572.826 303.969C573.195 304.495 573.513 304.974 573.513 305.032C573.513 305.102 570.344 305.157 566.482 305.157L559.482 305.157L558.951 304.188C558.667 303.663 558.102 302.824 557.732 302.313C556.78 301.006 556.261 299.962 555.92 298.813C555.522 297.464 555.012 296.741 553.295 294.938C551.591 293.178 551.249 292.689 550.482 290.844C550.185 290.107 549.618 288.897 549.263 288.188C548.909 287.479 548.144 285.837 547.576 284.532C546.215 281.381 545.05 279.6 544.482 279.813C544.098 279.956 544.227 280.379 544.951 281.5C545.335 282.068 545.922 283.173 546.263 283.938C546.59 284.719 547.377 286.485 548.045 287.875C548.697 289.266 549.358 290.728 549.513 291.125C550.209 292.871 550.824 293.774 552.513 295.563C554.303 297.479 554.598 297.902 554.982 299.25C555.266 300.272 555.98 301.626 556.888 302.875C557.258 303.386 557.738 304.1 557.951 304.469L558.326 305.157L549.263 305.157L540.201 305.157L539.826 304.313C539.373 303.306 538.033 301.836 536.826 300.969C535.109 299.749 533.41 297.627 532.545 295.625C532.246 294.959 531.675 293.889 531.263 293.25C530.369 291.901 527.565 288.97 525.295 286.969C523.535 285.423 523.019 284.741 522.451 283.25C521.684 281.192 520.836 279.561 518.92 276.594C515.826 271.796 515.279 271.162 513.263 269.657C510.794 267.798 509.459 267.357 508.138 267.938C506.876 268.506 505.558 269.714 504.607 271.219C504.479 271.418 503.909 272.72 503.326 274.125C502.745 275.531 501.959 277.418 501.576 278.313C501.179 279.206 500.641 280.56 500.357 281.313C499.691 283.044 498.958 284.14 497.326 286C494.473 289.222 492.538 291.766 491.232 293.938C490.522 295.143 489.531 296.658 489.076 297.282C486.535 300.831 485.194 302.609 484.201 303.688C483.576 304.341 483.076 304.93 483.076 305C483.076 305.071 475.803 305.157 464.263 305.157C452.454 305.157 445.482 305.086 445.482 305C445.482 304.93 445.912 304.287 446.451 303.563C447.516 302.158 447.683 301.657 447.045 301.657C446.775 301.657 446.479 301.936 445.67 303C445.103 303.739 444.536 304.537 444.451 304.75L444.295 305.157L442.107 305.157L439.92 305.157L440.482 304.469C440.794 304.1 441.206 303.426 441.42 303C442.101 301.652 442.757 300.78 444.388 299.063C447.624 295.642 448.977 293.688 449.857 291.219C450.199 290.267 450.688 289.42 451.638 288C452.362 286.922 453.254 285.511 453.638 284.844C454.036 284.176 454.679 283.139 455.076 282.5C455.941 281.123 456.605 279.821 457.045 278.657C457.314 277.933 457.357 277.73 457.201 277.532C456.861 277.049 456.508 277.383 455.982 278.688C455.712 279.384 455.182 280.419 454.826 281C454.471 281.583 453.598 283.04 452.888 284.219C451.255 286.902 450.013 288.684 450.013 288.344C450.013 287.875 449.162 286.975 447.701 285.938C444.506 283.682 442.785 281.24 442.076 278.032C441.367 274.838 441.159 274.206 440.576 273C439.881 271.566 439.17 270.674 436.701 268.063C433.904 265.124 433.076 263.465 433.076 260.938C433.076 259.306 433.207 258.805 434.513 255.938C434.981 254.943 435.642 253.363 435.982 252.469C436.536 250.979 436.576 250.735 436.576 249.5C436.589 248.763 436.54 247.909 436.482 247.625L436.357 247.094L437.013 247.344C437.921 247.643 439.574 248.749 440.482 249.657C440.894 250.083 442.139 251.547 443.232 252.938C445.148 255.379 447.738 258.34 449.045 259.532C449.385 259.844 450.187 260.467 450.826 260.907C452.218 261.885 454.242 263.635 454.795 264.344C455.008 264.628 455.701 265.698 456.326 266.719C457.377 268.451 457.491 268.594 457.888 268.594C458.172 268.594 458.329 268.5 458.357 268.344C458.385 268.216 457.871 267.25 457.232 266.157C456.224 264.469 455.865 263.979 454.545 262.688C453.722 261.864 452.296 260.685 451.388 260.032C449.374 258.598 446.91 256.015 444.013 252.282C442.977 250.948 441.746 249.482 441.263 249C439.119 246.814 436.442 245.643 434.951 246.282C434.199 246.608 433.557 247.19 431.982 249.063C429.597 251.902 428.485 252.782 424.326 254.969C419.315 257.609 418.143 258.48 416.795 260.594C416.099 261.673 415.909 262.341 416.263 262.469C416.59 262.583 416.781 262.388 417.732 260.969C419.011 259.039 419.969 258.346 425.263 255.563C429.123 253.519 430.527 252.401 433.138 249.25C433.734 248.541 434.48 247.776 434.763 247.563C435.387 247.095 435.429 247.147 435.67 248.438C435.812 249.149 435.798 249.513 435.67 250.094C435.415 251.216 434.624 253.275 433.545 255.688C432.309 258.399 432.076 259.283 432.076 261C432.076 262.534 432.306 263.521 433.045 264.969C433.641 266.147 434.375 267.087 436.107 268.875C439.031 271.914 439.945 273.36 440.513 275.844C440.684 276.626 440.968 277.873 441.138 278.625C441.465 280.003 442.239 281.749 443.076 282.969C443.744 283.964 445.682 285.847 446.888 286.657C447.471 287.054 448.272 287.682 448.67 288.094C449.124 288.577 449.451 288.793 449.607 288.75C449.934 288.68 449.947 288.652 449.451 289.688C449.223 290.185 448.837 291.041 448.638 291.594C447.97 293.326 446.449 295.392 443.795 298.188C441.908 300.176 441.474 300.76 440.763 302.094C440.437 302.72 439.885 303.574 439.545 304C439.218 304.411 438.951 304.838 438.951 304.938C438.951 305.094 438.626 305.157 437.42 305.157L435.857 305.157L435.263 303.594C434.483 301.664 434.015 300.812 432.951 299.407C430.779 296.54 429.188 294.953 427.67 294.188C427.356 294.017 426.718 293.642 426.263 293.344C425.327 292.706 424.608 292.359 424.138 292.344C423.897 292.344 423.55 291.957 422.67 290.75C422.031 289.87 421.266 288.748 420.982 288.25C420.045 286.589 416.343 279.105 415.888 277.969C415.391 276.707 415.1 276.412 414.732 276.782C414.504 277.008 414.519 277.089 414.888 278.125C415.271 279.176 419.714 288.121 420.451 289.313C420.636 289.625 421.205 290.428 421.701 291.094C422.198 291.776 422.607 292.367 422.607 292.438C422.607 292.579 420.808 293.319 418.451 294.157C417.656 294.441 416.066 295.172 414.888 295.782C411.85 297.343 410.992 297.777 408.92 298.813C407.912 299.31 406.506 300.021 405.795 300.375C404.887 300.843 404.268 301.069 403.701 301.125L402.888 301.219L401.795 300.094C401.185 299.47 400.132 298.346 399.451 297.594C398.116 296.118 397.205 295.385 394.138 293.313C391.626 291.61 389.93 290.664 386.451 289.032C381.882 286.888 380.293 285.837 378.42 283.594C376.916 281.778 376.409 280.966 375.076 278.313C373.684 275.573 373.007 274.77 371.857 274.5C370.495 274.174 368.638 274.865 367.388 276.157C367.034 276.525 366.183 277.596 365.545 278.532C363.729 281.172 361.347 284.228 360.17 285.407C359.46 286.116 358.68 286.72 357.857 287.188C355.52 288.515 357.877 289.711 356.899 290.444L357.167 290.444C357.888 289.917 356.14 289.376 357.045 288.875C359.161 287.697 359.966 287.125 361.045 286.032C362.209 284.84 364.39 282.059 366.263 279.375C367.797 277.19 368.847 276.088 369.826 275.719C370.437 275.493 370.67 275.443 370.67 275.5C370.67 275.528 370.528 275.888 370.357 276.313C369.932 277.421 369.886 279.352 370.17 281.75C370.582 285.256 370.393 286.724 369.357 288.469C368.761 289.464 368.015 290.234 363.545 294.563C361.937 296.122 362.974 295.082 362.084 296.427L363.487 296.427C363.507 296.397 362.833 296.458 362.853 296.427C364.058 294.583 363.555 295.777 365.67 293.875C369.815 290.157 371.071 288.331 371.326 285.563C371.383 284.882 371.326 283.68 371.17 282.219C370.858 279.195 370.921 277.518 371.388 276.438C371.587 275.985 371.803 275.625 371.888 275.625C371.988 275.625 372.292 275.876 372.576 276.188C372.86 276.5 373.577 277.749 374.201 278.969C376.516 283.597 379.317 286.655 382.951 288.5C383.419 288.742 385.347 289.719 387.263 290.657C390.883 292.43 392.484 293.343 395.295 295.344C397.112 296.636 397.908 297.382 400.263 299.938C401.114 300.861 402.006 301.765 402.232 301.907C403.24 302.517 405.041 302.116 407.326 300.782C408.121 300.314 409.439 299.62 410.263 299.25C411.086 298.881 412.833 298.022 414.138 297.313C415.445 296.617 417.156 295.781 417.951 295.469C418.76 295.171 420.256 294.585 421.263 294.188C423.519 293.293 423.973 293.253 424.357 293.907C424.613 294.332 424.608 294.438 424.451 295.219C424.224 296.269 423.649 297.558 422.982 298.438C422.712 298.793 422.395 299.313 422.295 299.625C421.955 300.776 422.613 301.405 425.763 302.938C426.942 303.521 427.546 303.924 428.013 304.407L428.638 305.063L414.263 305.125L399.857 305.157L398.295 303.625C395.627 301.028 395.423 300.809 394.67 299.688C392.768 296.877 389.488 294.388 384.576 292.032C383.441 291.492 381.8 290.707 380.92 290.282C379.232 289.472 378.97 289.422 378.545 289.719C378.346 289.875 378.301 290.054 378.357 290.594C378.457 291.46 379.048 292.328 380.795 294.188C381.547 294.983 382.349 295.944 382.576 296.313C383.343 297.52 384.013 299.971 384.013 301.688C384.013 302.44 384.32 304.054 384.576 304.75L384.732 305.157L369.701 305.157L364.638 305.157L365.388 306.25C381.473 306.265 371.106 306.282 466.732 306.282L579.888 306.282L579.888 305.719L579.888 305.157L577.295 305.157L574.701 305.157L574.357 304.469C574.172 304.1 573.652 303.261 573.17 302.594C572.687 301.926 571.888 300.84 571.42 300.188C570.965 299.535 570.095 298.45 569.513 297.782C566.205 294.035 565.461 293.073 563.857 290.532C563.432 289.865 562.021 287.78 560.701 285.907C557.606 281.479 555.261 277.571 551.357 270.375C549.668 267.266 546.357 264.188 546.357 264.188C546.357 264.188 542.76 265.681 541.17 267.938C539.95 269.683 539.342 270.327 538.42 270.782C537.27 271.363 536.456 271.381 535.576 270.813C534.639 270.232 531.412 266.066 529.482 263C528.062 260.728 527.616 260.276 523.513 256.188C520.448 253.136 520.127 252.732 519.545 251.625C518.609 249.823 517.705 248.945 515.263 247.469C512.894 246.049 511.732 245.209 510.638 244.188C508.893 242.541 506.711 239.296 504.013 234.313C500.82 228.409 499.777 227.06 495.576 223.469C493.333 221.553 492.963 221.352 491.545 221.282L490.388 221.219L488.263 223.469C485.779 226.081 483.939 227.666 482.732 228.219C481.056 229.001 478.705 229.08 475.482 228.469C473.197 228.044 470.803 228.146 468.107 228.813C467.014 229.084 465.354 229.475 464.388 229.688C461.904 230.227 459.725 231.053 456.545 232.657L454.826 233.532L453.013 233.532C450.983 233.532 450.387 233.381 447.732 232.188C445.206 231.039 444.026 230.964 441.826 231.844C440.463 232.384 439.467 233.058 438.232 234.25C437.011 235.429 436.45 235.746 434.888 236.157C433.171 236.597 432.094 236.659 430.42 236.375C428.773 236.106 425.672 235.386 423.201 234.719C422.037 234.407 421.229 234.282 420.42 234.282C419.328 234.267 419.203 234.314 417.513 235.094C414.929 236.301 414.681 236.312 412.607 235.688C411.671 235.404 410.244 235.063 409.42 234.907C405.289 234.112 402.386 233.61 401.107 233.469C399.093 233.241 397.943 232.901 395.388 231.75C392.862 230.601 391.895 230.023 390.888 229C390.504 228.603 388.815 226.323 387.138 223.938C383.477 218.743 382.824 217.978 381.107 216.344C379.159 214.513 377.732 213.687 376.388 213.75ZM471.263 262.438C471.069 262.491 470.841 262.661 470.607 262.938C470.294 263.321 469.981 264.069 469.513 265.532C469.159 266.666 468.735 267.841 468.607 268.125C468.466 268.395 467.772 269.125 467.076 269.75C464.139 272.39 463.695 273.129 463.17 275.969C462.9 277.388 462.424 278.274 461.232 279.75C457.755 284.037 456.857 285.537 455.763 288.688C454.742 291.64 453.959 292.968 451.857 295.282C449.743 297.638 449.201 298.572 449.826 298.813C450.095 298.912 450.34 298.655 452.482 296.157C454.938 293.318 455.596 292.231 456.576 289.407C457.697 286.156 458.72 284.398 461.701 280.75C463.304 278.777 463.832 277.76 464.201 275.844C464.37 274.936 464.645 274.054 464.857 273.657C465.269 272.89 466.646 271.406 468.107 270.157C469.243 269.193 469.77 268.231 470.451 265.875C470.678 265.066 470.968 264.194 471.138 263.938C471.649 263.13 471.786 262.883 471.701 262.657C471.623 262.465 471.458 262.385 471.263 262.438ZM355.951 265.688C355.838 265.688 354.646 266.705 353.326 267.969C349.153 271.929 348.494 272.846 346.763 276.75C346.089 278.263 350.682 279.438 350.21 280.376L350.21 277.683C350.926 276.264 347.337 277.967 348.232 275.907C349.211 273.621 349.726 272.964 353.232 269.5C356.156 266.604 356.467 266.239 356.326 265.969C356.241 265.813 356.064 265.688 355.951 265.688ZM509.388 268.688C509.506 268.649 509.787 268.776 510.326 269.032C511.973 269.785 514.055 271.417 515.076 272.75C515.828 273.73 519.207 278.947 520.045 280.438C520.385 281.034 520.917 282.157 521.201 282.938C522.124 285.422 522.147 285.424 526.263 289.313C529.386 292.265 530.561 293.784 531.513 295.969C532.479 298.212 534.126 300.234 536.17 301.782C537.588 302.86 539.013 304.524 539.013 305.063C539.013 305.106 536.185 305.157 532.763 305.157L526.545 305.157L526.451 304.782C526.308 304.228 522.837 300.726 522.482 300.782C521.816 300.882 522.066 301.34 523.67 303C524.536 303.895 525.318 304.749 525.388 304.875C525.516 305.117 524.519 305.157 504.888 305.157C493.532 305.157 484.232 305.088 484.232 305.032C484.232 304.974 484.573 304.582 485.013 304.157C486.475 302.737 490.815 296.739 492.263 294.157C493.115 292.623 494.715 290.529 498.888 285.688C500.052 284.355 500.687 283.298 501.326 281.594C501.61 280.857 502.161 279.487 502.545 278.594C502.942 277.7 503.743 275.847 504.326 274.469C504.893 273.079 505.553 271.671 505.795 271.344C506.405 270.464 507.892 269.094 508.232 269.094C508.29 269.094 508.415 269.327 508.513 269.625C508.868 270.732 508.338 273.558 506.92 278C506.437 279.491 506.321 280.062 506.263 281.282C506.193 282.616 506.218 282.89 506.545 283.813C506.999 285.105 507.935 286.595 509.17 288C509.695 288.596 511.955 290.86 514.17 293.032C518.272 297.049 518.727 297.42 518.826 296.625C518.869 296.341 518.176 295.602 514.357 291.813C509.603 287.101 508.665 286.014 507.826 284.282C507.373 283.331 507.275 283.082 507.232 281.875C507.19 280.641 507.233 280.365 507.701 278.875C507.985 277.981 508.502 276.144 508.857 274.782C509.596 271.93 509.778 270.395 509.451 269.344C509.323 268.947 509.271 268.727 509.388 268.688ZM507.263 288.969C507.093 288.969 506.931 289.06 506.888 289.188C506.775 289.457 507.867 291.223 509.045 292.657C509.471 293.153 511.234 294.99 512.951 296.75C514.683 298.51 516.556 300.472 517.138 301.125C517.705 301.764 518.349 302.438 518.576 302.594C519.059 302.936 519.615 302.85 519.545 302.438C519.487 302.126 517.627 300.092 513.795 296.188C510.147 292.455 509.561 291.812 508.482 290.25C507.814 289.285 507.505 288.969 507.263 288.969ZM379.388 290.657C379.431 290.657 379.894 290.887 380.42 291.157C380.945 291.427 382.224 292.001 383.232 292.469C386.44 293.932 388.672 295.303 390.857 297.063C392.135 298.084 392.831 298.837 393.982 300.469C394.465 301.164 395.585 302.412 396.607 303.407L398.42 305.125L392.076 305.125L385.732 305.157L385.42 304.188C385.264 303.663 385.034 302.293 384.92 301.157C384.58 297.566 383.881 295.998 381.638 293.657C379.936 291.869 379.047 290.657 379.388 290.657ZM425.513 294.063C425.528 294.063 426.15 294.421 426.888 294.875C428.734 295.982 428.991 296.189 430.326 297.75C432.441 300.177 433.411 301.63 434.107 303.375C434.249 303.759 434.494 304.31 434.607 304.594L434.826 305.157L432.295 305.157L429.732 305.157L429.42 304.594C428.766 303.502 428.151 303.022 426.107 302C423.991 300.95 423.201 300.424 423.201 300.125C423.201 300.027 423.522 299.422 423.92 298.813C424.872 297.378 425.32 296.238 425.42 295.032C425.462 294.506 425.499 294.063 425.513 294.063Z" fill="#29402a" fill-rule="nonzero" opacity="1" stroke="none" vectornator:layerName="Curve 1"/>
</g>
</g>
</svg>
