<?xml version="1.0" encoding="UTF-8" standalone="no"?>
<!DOCTYPE svg PUBLIC "-//W3C//DTD SVG 1.1//EN" "http://www.w3.org/Graphics/SVG/1.1/DTD/svg11.dtd">
<!-- Created with Vectornator (http://vectornator.io/) -->
<svg height="100%" stroke-miterlimit="10" style="fill-rule:nonzero;clip-rule:evenodd;stroke-linecap:round;stroke-linejoin:round;" version="1.1" viewBox="0 0 750 500" width="100%" xml:space="preserve" xmlns="http://www.w3.org/2000/svg" xmlns:vectornator="http://vectornator.io" xmlns:xlink="http://www.w3.org/1999/xlink">
<defs/>
<clipPath id="ArtboardFrame">
<rect height="500" width="750" x="0" y="0"/>
</clipPath>
<g clip-path="url(#ArtboardFrame)" id="Untitled" vectornator:layerName="Untitled">
<g opacity="1" vectornator:layerName="Group 1">
<g opacity="1" vectornator:layerName="path">
<g opacity="1" vectornator:layerName="path">
<path d="M738.86 37.1154C741.895 42.8794 743.37 49.5886 740.403 55.798C737.596 61.676 731.335 65.7483 724.811 65.9399C713.572 66.2712 705.058 56.5817 696.529 49.2733C686.351 40.5514 671.16 34.4157 659.802 41.5414C656.084 43.8746 653.254 47.3798 649.722 49.9859C641.751 55.8678 628.589 57.0764 622.322 49.4111C614.53 39.8804 621.818 37.2109 614.896 28.3755C606.94 18.2213 596.207 21.037 588.461 10.7233C582.907 3.32717 579.27-5.48899 577.996-14.6429C577.268-19.8763 577.374-25.4948 580.028-30.0676C584.375-37.5586 594.033-39.9789 602.697-40.4415C618.247-41.272 634.697-38.2571 648.826-44.7887C654.092-47.2225 658.751-50.8911 664.177-52.9449C671.526-55.7266 679.651-55.3299 687.49-54.7564C696.63-54.0881 705.898-53.2012 714.438-49.8838C722.978-46.5657 730.829-40.4755 734.285-32.006C740.095-17.7693 731.618-4.34836 731.384 9.87616C731.324 13.5076 731.785 17.0788 732.349 20.6577C732.76 23.2728 733.769 25.7129 734.303 28.271C734.548 29.4475 734.98 30.6189 735.596 31.6282C736.11 32.4683 736.628 33.3917 737.169 34.2305C737.77 35.159 738.338 36.1234 738.86 37.1154Z" fill="none" opacity="1" stroke="#fa8100" stroke-dasharray="2.00600004196167,4.013000011444092,2.00600004196167,4.013000011444092" stroke-linecap="round" stroke-linejoin="round" stroke-opacity="0.6" stroke-width="1" vectornator:layerName="path"/>
</g>
<g opacity="1" vectornator:layerName="path">
<path d="M725.951 27.3575C728.466 32.1328 729.687 37.6917 727.229 42.8367C724.903 47.7068 719.716 51.0806 714.311 51.2402C704.999 51.5145 697.944 43.4859 690.877 37.4303C682.444 30.2039 669.857 25.1205 660.446 31.0248C657.366 32.9575 655.022 35.8616 652.095 38.0211C645.491 42.8944 635.39 43.1456 629.393 37.5443C626.794 35.1176 625.129 31.8886 623.114 28.9614C617.052 20.1607 607.755 14.0352 601.337 5.48949C596.734-0.637862 593.721-7.94301 592.666-15.5275C592.062-19.8639 592.15-24.5193 594.35-28.3077C597.952-34.5145 605.953-36.5202 613.132-36.9034C626.017-37.591 639.645-35.0932 651.353-40.5047C655.715-42.522 659.576-45.5613 664.072-47.2626C670.161-49.5676 676.893-49.2389 683.388-48.764C690.961-48.2104 698.64-47.4754 705.716-44.7263C712.792-41.9773 719.297-36.931 722.16-29.9142C726.974-18.1183 719.95-6.99782 719.756 4.78717C719.707 7.79702 720.089 10.7562 720.556 13.7212C720.897 15.8878 721.733 17.9095 722.175 20.0286C722.378 21.004 722.736 21.9748 723.247 22.8104C723.672 23.5063 724.101 24.2727 724.55 24.9673C725.047 25.7363 725.518 26.5354 725.951 27.3575Z" fill="none" opacity="1" stroke="#fa8100" stroke-linecap="round" stroke-linejoin="round" stroke-opacity="0.6" stroke-width="1" vectornator:layerName="path"/>
</g>
<g opacity="1" vectornator:layerName="path">
<path d="M713.042 17.599C715.036 21.3862 719.821 29.1322 717.872 33.2128C716.027 37.0756 711.913 39.7509 707.626 39.8778C700.241 40.0944 693.82 30.1197 688.216 25.3169C681.527 19.5862 668.555 15.8247 661.092 20.507C658.648 22.0404 656.789 24.3435 654.468 26.0557C649.23 29.921 641.22 30.1203 636.463 25.6783C634.402 23.7533 633.082 21.192 631.483 18.871C626.676 11.8914 619.302 7.03349 614.213 0.256367C610.563-4.60348 608.173-10.397 607.336-16.4122C606.857-19.8514 606.927-23.543 608.671-26.5484C611.528-31.4704 617.874-33.0609 623.567-33.3646C633.786-33.9112 644.595-31.9298 653.879-36.2213C657.339-37.8207 660.401-40.2314 663.966-41.581C668.795-43.4092 674.135-43.1484 679.286-42.7716C685.292-42.332 691.382-41.7495 696.994-39.5695C702.605-37.3895 707.765-33.387 710.035-27.8223C713.853-18.4666 708.282-9.64787 708.129-0.301131C708.09 2.08586 708.393 4.43248 708.763 6.78422C709.033 8.50285 709.697 10.1061 710.047 11.787C710.208 12.5604 710.492 13.33 710.897 13.9932C711.234 14.545 711.575 15.1525 711.931 15.7029C712.325 16.3136 712.699 16.9467 713.042 17.599Z" fill="none" opacity="1" stroke="#fa8100" stroke-linecap="round" stroke-linejoin="round" stroke-opacity="0.6" stroke-width="1" vectornator:layerName="path"/>
</g>
<g opacity="1" vectornator:layerName="path">
<path d="M700.133 7.84059C701.607 10.6396 702.323 13.8981 700.882 16.9137C699.518 19.7685 696.478 21.746 693.309 21.8402C687.851 22.0004 683.715 17.2943 679.573 13.7449C674.63 9.50924 667.253 6.52887 661.736 9.98984C659.931 11.1228 658.557 12.8254 656.841 14.091C652.97 16.9477 647.049 17.0951 643.533 13.8116C642.01 12.3896 641.035 10.4967 639.853 8.78129C636.3 3.62219 630.851 0.031135 627.089-4.97737C624.391-8.56907 622.625-12.8509 622.006-17.2974C621.652-19.8389 621.704-22.5674 622.993-24.7884C625.104-28.4269 629.795-29.6021 634.002-29.8264C641.555-30.2301 649.543-28.7659 656.406-31.9378C658.963-33.1201 661.226-34.9016 663.861-35.8993C667.43-37.2501 671.376-37.0572 675.184-36.7791C679.623-36.4542 684.124-36.0236 688.271-34.4126C692.419-32.801 696.232-29.8431 697.911-25.7304C700.732-18.8155 696.615-12.2973 696.502-5.38941C696.473-3.62528 696.696-1.89063 696.97-0.152775C697.17 1.11729 697.66 2.30214 697.919 3.54529C698.038 4.11625 698.247 4.68528 698.547 5.17549C698.797 5.58369 699.048 6.03225 699.311 6.43916C699.603 6.89092 699.879 7.35871 700.133 7.84059Z" fill="none" opacity="1" stroke="#fa8100" stroke-linecap="round" stroke-linejoin="round" stroke-opacity="0.6" stroke-width="1" vectornator:layerName="path"/>
</g>
<g opacity="1" vectornator:layerName="path">
<path d="M687.223-1.91787C688.176-0.106968 688.64 2.00127 687.708 3.95251C686.826 5.79931 684.858 7.07899 682.809 7.13986C679.277 7.24367 677.525 0.640848 674.845-1.65515C671.647-4.39586 666.873-6.32403 663.304-4.08507C662.136-3.35135 661.247-2.25045 660.138-1.43151C657.633 0.417208 652.879 4.06978 650.604 1.94552C649.619 1.02533 648.987-0.199243 648.223-1.30975C645.924-4.64769 642.398-6.9706 639.964-10.2105C638.219-12.5347 637.076-15.3055 636.676-18.1821C636.447-19.8264 636.48-21.5918 637.314-23.0285C638.68-25.3821 641.715-26.1428 644.437-26.2882C649.324-26.549 654.492-25.6019 658.933-27.6538C660.587-28.4189 662.051-29.5717 663.756-30.217C666.065-31.091 668.618-30.9661 671.082-30.7867C673.953-30.5765 676.866-30.2977 679.549-29.2551C682.233-28.2126 684.7-26.2991 685.786-23.6379C687.611-19.1638 684.948-14.9467 684.874-10.4771C684.855-9.3358 685-8.21376 685.177-7.08915C685.307-6.26764 685.623-5.50124 685.791-4.69703C685.868-4.32729 686.004-3.95947 686.197-3.64163C686.359-3.37826 686.522-3.08798 686.691-2.82461C686.88-2.5324 687.059-2.2293 687.223-1.91787Z" fill="none" opacity="1" stroke="#fa8100" stroke-linecap="round" stroke-linejoin="round" stroke-opacity="0.6" stroke-width="1" vectornator:layerName="path"/>
</g>
</g>
<path d="M501.324 24.6673C503.564 25.0409 505.847 25.7214 508.164 26.7185C526.069 34.4261 529.416 52.1897 538.557 67.4049C540.678 70.9364 543.071 74.282 545.915 77.2752C557.013 88.95 575.456 93.8912 582.477 109.342C585.82 116.7 585.375 126.186 579.75 131.997C574.075 137.859 564.946 138.626 556.821 137.787C548.696 136.949 540.478 134.888 532.468 136.486C520.572 138.86 511.621 148.702 505.71 158.71C499.362 169.459 498.717 180.777 495.801 192.614C493.572 201.661 489.072 210.372 481.896 216.334C474.721 222.295 464.66 225.153 455.72 222.461C447.524 219.993 441.124 213.349 432.977 210.726C415.818 205.203 405.306 220.969 391.8 228.009C383.436 232.369 372.197 235.375 362.802 235.335C355.602 235.304 348.056 232.809 343.591 227.172C340.736 223.568 339.37 219.02 338.443 214.52C337.792 211.362 337.336 208.022 338.353 204.961C339.059 202.837 340.427 201.003 341.83 199.257C345.602 194.561 350.196 190.64 353.923 185.943C367.085 169.357 361.209 143.859 359.521 124.595C359.263 121.642 359.059 118.624 359.786 115.75C361.91 107.358 372.425 100.02 380.576 98.1365C392.227 95.4458 404.311 99.6078 416.137 98.8216C424.758 98.2474 433.479 95.7777 440.199 90.3585C458.457 75.636 462.114 48.6262 478.924 32.3902C485.493 26.0469 493.115 23.2972 501.324 24.6673Z" fill="none" opacity="1" stroke="#fa8100" stroke-linecap="butt" stroke-linejoin="miter" stroke-opacity="0.6" stroke-width="1" vectornator:layerName="path"/>
<path d="M765.011 184.929C762.516 190.671 758.956 195.735 754.126 199.71C741.857 209.803 719.84 223.097 703.408 220.773C684.325 218.074 672.754 196.841 654.136 191.869C644.719 189.354 634.72 191.359 625.008 190.526C615.296 189.694 604.469 184.268 603.185 174.627C602.233 167.482 606.896 160.863 611.785 155.556C616.674 150.249 622.278 144.983 623.932 137.966C626.393 127.519 619.285 116.442 622.232 106.12C624.555 97.9886 633.662 92.4322 641.976 94.0746C649.347 95.5318 654.805 101.503 660.966 105.797C671.929 113.438 686.335 115.942 699.243 112.45C709.551 109.662 718.539 103.399 728.439 99.3997C732.897 97.5984 737.781 96.2456 742.486 97.2453C749.512 98.7384 754.411 105.032 757.905 111.294C768.293 129.914 774.727 162.565 765.011 184.929Z" fill="none" opacity="1" stroke="#fa8100" stroke-linecap="butt" stroke-linejoin="miter" stroke-opacity="0.6" stroke-width="1" vectornator:layerName="path"/>
<path d="M725.172 155.072C725.167 154.933 725.164 154.794 725.159 154.656C724.965 148.29 721.917 142.708 715.986 139.866C714.723 139.261 713.514 138.52 712.188 138.066C710.689 137.554 709.183 137.09 707.642 136.727C705.843 136.303 704.306 136.125 702.443 136.196C700.95 136.253 699.69 137.291 698.779 138.391C693.844 144.351 699.576 154.128 700.728 160.358C701.685 165.533 700.583 170.852 700.734 176.111C700.885 181.372 702.817 187.213 707.603 189.427C713.205 192.019 720.088 188.115 722.93 182.646C725.773 177.176 725.65 170.708 725.462 164.551C725.365 161.391 725.268 158.232 725.172 155.072Z" fill="none" opacity="1" stroke="#fa8100" stroke-dasharray="2.0,4.0,2.0,4.0" stroke-linecap="butt" stroke-linejoin="miter" stroke-opacity="0.6" stroke-width="1" vectornator:layerName="path"/>
<path d="M728.254 191.358C728.068 191.343 727.879 191.372 727.717 191.454C727.15 191.741 726.856 192.361 726.523 192.901C724.161 196.72 718.884 197.321 714.394 197.066C709.305 196.775 703.794 195.668 700.514 191.775C697.383 188.061 697.098 182.832 696.244 178.054C695.046 171.369 692.438 164.939 688.657 159.292C685.256 154.211 680.465 149.949 678.908 143.816C678.343 141.59 678.355 139.638 678.347 137.357C678.341 135.467 678.21 133.495 678.928 131.699C681.663 124.849 687.385 123.834 693.952 124.542C703.343 125.555 712.724 125.877 722.151 125.11C723.931 124.965 725.745 124.789 727.484 125.195C730.73 125.955 733.196 128.638 734.827 131.539C738.949 138.871 738.872 147.79 737.943 156.145C736.573 168.465 733.589 180.606 729.088 192.16C729.157 191.712 728.717 191.398 728.254 191.358Z" fill="none" opacity="1" stroke="#fa8100" stroke-linecap="butt" stroke-linejoin="miter" stroke-opacity="0.6" stroke-width="1" vectornator:layerName="path"/>
<path d="M736.368 194.229C731.213 203.366 719.568 208.73 709.345 205.91C701.192 203.659 694.907 197.206 689.867 190.429C684.827 183.65 680.531 176.206 674.305 170.492C668.594 165.251 661.321 161.521 657.025 155.073C653.32 149.513 652.32 142.244 654.386 135.894C656.452 129.545 661.54 124.248 667.812 121.919C676.204 118.802 685.51 120.952 694.465 120.923C704.312 120.891 714.134 118.1 722.519 112.951C724.213 111.911 725.924 110.747 727.894 110.471C732.026 109.889 734.826 115.204 736.742 118.08C739.306 121.925 740.511 126.239 741.081 130.769C741.867 137.009 742.287 143.274 742.269 149.563C742.26 152.62 742.307 155.678 742.287 158.735C742.266 162.196 741.686 165.321 740.924 168.685C739.301 175.85 740.366 183.415 738.042 190.451C737.608 191.769 737.044 193.031 736.368 194.229Z" fill="none" opacity="1" stroke="#fa8100" stroke-linecap="butt" stroke-linejoin="miter" stroke-opacity="0.6" stroke-width="1" vectornator:layerName="path"/>
<path d="M648.877 180.605C648.618 180.585 648.358 180.558 648.101 180.531C641.459 179.829 635.613 179.818 628.98 180.164C627.263 180.253 625.476 180.27 623.908 179.565C622.258 178.824 621.037 177.356 620.17 175.771C619.16 173.925 618.55 171.798 618.824 169.713C619.098 167.628 620.362 165.612 622.295 164.772C624.487 163.819 627.002 164.481 629.335 165.008C636.634 166.656 651.758 163.855 654.107 173.75C654.745 176.436 653.566 179.805 650.887 180.493C650.233 180.661 649.554 180.657 648.877 180.605Z" fill="none" opacity="1" stroke="#fa8100" stroke-linecap="butt" stroke-linejoin="miter" stroke-opacity="0.6" stroke-width="1" vectornator:layerName="path"/>
<path d="M720.107 167.382C720.141 167.303 720.174 167.225 720.21 167.147C721.146 162.689 721.097 157.753 718.616 153.93C715.945 149.811 708.208 146.833 706.036 152.502C704.061 157.655 708.683 164.201 707.657 169.621C707.224 171.904 706.352 174.216 706.847 176.486C707.435 179.179 709.944 181.185 712.651 181.731C714.084 182.021 715.7 181.917 716.82 180.98C718.528 179.552 718.39 176.961 718.466 174.738C718.553 172.214 719.113 169.705 720.107 167.382Z" fill="none" opacity="1" stroke="#fa8100" stroke-linecap="butt" stroke-linejoin="miter" stroke-opacity="0.6" stroke-width="1" vectornator:layerName="path"/>
<path d="M656.515 114.436C656.128 113.999 655.418 113.721 654.823 113.522C651.944 112.562 649.605 110.482 647.306 108.503C645.008 106.525 642.551 104.539 639.598 103.839C636.644 103.139 633.065 104.127 631.724 106.844C630.649 109.024 631.245 111.607 631.675 113.998C632.461 118.376 632.606 122.867 632.103 127.286C631.954 128.587 631.753 129.926 632.103 131.188C632.453 132.449 633.535 133.621 634.847 133.597C636.974 133.557 637.795 130.851 638.013 128.739C638.438 124.617 637.992 120.572 642.14 118.346C645.925 116.328 650.441 116.746 654.646 116.488C655.548 116.433 656.702 116.152 656.796 115.255C656.83 114.932 656.716 114.663 656.515 114.436Z" fill="none" opacity="1" stroke="#fa8100" stroke-linecap="butt" stroke-linejoin="miter" stroke-opacity="0.6" stroke-width="1" vectornator:layerName="path"/>
<path d="M627.819 108.685C627.806 109.326 627.841 109.974 627.877 110.614C628.169 115.854 628.461 121.095 628.753 126.335C628.936 129.61 629.208 133.126 631.288 135.666C632.56 137.219 634.665 138.277 636.597 137.722C638.405 137.204 639.588 135.451 640.199 133.676C640.811 131.901 641.01 130 641.696 128.252C643.032 124.845 646.804 121.598 650.634 121.495C652.429 121.448 654.238 121.489 656.034 121.508C660.391 121.554 663.427 117.267 661.322 113.271C660.108 110.968 657.806 109.474 655.592 108.099C650.699 105.059 645.595 102.026 639.897 101.156C637.535 100.795 635.056 100.831 632.834 101.707C630.612 102.583 628.68 104.393 628.069 106.697C627.898 107.346 627.832 108.013 627.819 108.685Z" fill="none" opacity="1" stroke="#fa8100" stroke-linecap="butt" stroke-linejoin="miter" stroke-opacity="0.6" stroke-width="1" vectornator:layerName="path"/>
<path d="M752.453 55.4489C750.688 67.2371 739.736 76.3404 727.941 78.2301C716.145 80.1198 703.999 75.797 694.321 68.8096C686.872 63.4308 679.833 56.1807 670.665 55.481C661.592 54.7889 653.55 60.7753 644.968 63.7928C633.793 67.7235 620.519 66.2618 611.305 58.8298C600.362 50.0047 596.631 34.801 586.668 24.8884C581.527 19.7735 574.807 16.1569 570.787 10.1243C567.995 5.93414 566.755 0.933956 565.562-3.95472C564.093-9.98467 562.622-16.0146 561.152-22.0459" fill="none" opacity="1" stroke="#fa8100" stroke-linecap="butt" stroke-linejoin="miter" stroke-opacity="0.6" stroke-width="1" vectornator:layerName="path"/>
<path d="M743.011 78.2237C736.159 83.1399 727.345 84.9258 718.947 84.0844C710.549 83.2418 702.541 79.9218 695.388 75.4535C687.268 70.3809 679.599 63.6057 670.09 62.449C661.977 61.4616 654.051 64.7835 646.334 67.4716C639.749 69.7657 632.937 71.651 625.966 71.8893C618.994 72.1277 611.802 70.6084 606.103 66.5957C599.101 61.6641 595.063 43.2224 589.938 36.3671C582.901 26.9531 575.202 37.0464 566.151 24.6859C556.815 11.9359 555.537-17.2123 557.976-28.7012" fill="none" opacity="1" stroke="#fa8100" stroke-linecap="butt" stroke-linejoin="miter" stroke-opacity="0.6" stroke-width="1" vectornator:layerName="path"/>
<path d="M671.931 80.7056C675.976 82.4364 679.571 85.0739 682.873 87.9787C684.69 89.5768 686.459 91.2826 688.608 92.397C691.166 93.7228 694.116 94.1323 696.705 95.3972C699.294 96.6615 701.628 99.3112 701.052 102.13C700.634 104.178 698.776 105.669 696.8 106.36C692.661 107.808 688.075 106.444 684.102 104.593C676.891 101.237 670.52 96.3193 663.461 92.6552C656.403 88.9918 648.136 86.5958 640.497 88.8168C637.873 89.58 635.423 90.8603 632.798 91.6223C631.237 92.0747 629.628 92.3406 628.02 92.5739C626.395 92.809 624.692 93.0045 623.148 92.4483C621.604 91.892 620.292 90.3432 620.568 88.729C620.787 87.4436 621.94 86.4798 623.183 86.0774C624.426 85.6743 625.763 85.7224 627.07 85.7403C633.475 85.8301 639.89 85.0925 646.112 83.5693C649.317 82.7843 652.47 81.7911 655.544 80.5947C657.552 79.8136 659.408 78.8229 661.587 78.6928C665.098 78.4845 668.722 79.3323 671.931 80.7056Z" fill="none" opacity="1" stroke="#fa8100" stroke-linecap="butt" stroke-linejoin="miter" stroke-opacity="0.6" stroke-width="1" vectornator:layerName="path"/>
<path d="M690.572 97.1005C691.646 97.2857 692.758 97.3857 693.739 97.8598C694.72 98.334 695.56 99.3023 695.491 100.387C695.395 101.898 693.7 102.767 692.198 102.986C687.489 103.669 682.952 101.004 679.304 97.9553C675.656 94.907 672.316 91.2968 667.928 89.4628C666.579 88.8995 665.104 88.4843 664.071 87.4526C663.037 86.4215 662.72 84.4844 663.879 83.5969C664.418 83.1842 665.134 83.097 665.814 83.0669C670.64 82.8491 675.987 84.585 678.231 88.9726C680.483 93.3781 685.825 96.2828 690.572 97.1005Z" fill="none" opacity="1" stroke="#fa8100" stroke-linecap="butt" stroke-linejoin="miter" stroke-opacity="0.6" stroke-width="1" vectornator:layerName="path"/>
<path d="M594.338 72.5115C591.243 66.7924 589.169 60.5311 585.646 55.0631C584.941 53.9667 584.115 52.8537 582.91 52.3493C579.01 50.7166 575.982 56.1846 572.021 57.6622C568.637 58.9253 564.81 56.983 562.409 54.2891C560.009 51.5951 558.541 48.2078 556.385 45.3159C553.911 41.9959 550.522 39.3622 546.69 37.7807C544.03 36.683 540.419 36.3485 538.776 38.7073C537.535 40.4887 538.081 42.9174 538.804 44.9641C542.286 54.8152 548.867 63.5512 557.384 69.626C562.129 73.0101 567.452 75.5906 571.878 79.3816C575.464 82.4536 578.356 86.2324 581.531 89.7254C584.706 93.2191 588.299 96.5179 592.709 98.2167C597.117 99.9161 602.501 99.7373 606.154 96.7454C610.404 93.2659 610.598 87.4275 606.549 84.369C601.52 80.5703 597.642 78.6165 594.338 72.5115Z" fill="none" opacity="1" stroke="#fa8100" stroke-linecap="butt" stroke-linejoin="miter" stroke-opacity="0.6" stroke-width="1" vectornator:layerName="path"/>
<path d="M588.174 90.9709C591.627 93.7789 596.135 95.9781 600.44 94.8362C601.199 94.635 601.946 94.3229 602.527 93.7955C603.875 92.5716 604.011 90.4153 603.305 88.7383C602.599 87.0607 601.222 85.7676 599.832 84.5904C596.182 81.5005 592.061 78.7162 589.691 74.5657C586.812 69.5239 586.77 62.8691 582.592 58.8334C582.067 58.3271 581.42 57.8517 580.691 57.876C579.866 57.9036 579.216 58.545 578.592 59.0826C575.232 61.9765 570.136 62.6756 566.119 60.7942C563.588 59.6094 561.588 57.5646 559.483 55.7287C557.379 53.8922 554.973 52.1684 552.193 51.8685C551.9 51.8377 551.585 51.8268 551.336 51.9813C551.163 52.0883 551.044 52.262 550.939 52.435C549.435 54.929 550.077 58.2592 551.732 60.6552C553.387 63.0518 555.879 64.7185 558.309 66.3276C564.568 70.4691 570.827 74.6112 577.085 78.7527C579.574 80.4002 580.426 82.2867 582.112 84.5904C583.849 86.9633 585.891 89.1151 588.174 90.9709Z" fill="none" opacity="1" stroke="#fa8100" stroke-linecap="butt" stroke-linejoin="miter" stroke-opacity="0.6" stroke-width="1" vectornator:layerName="path"/>
<path d="M581.401 65.0635C582.322 66.2105 582.851 67.6119 583.437 68.9602C585.108 72.8037 587.353 76.398 590.075 79.5879C591.565 81.3353 593.201 82.9655 594.537 84.8316C595.207 85.7671 595.753 87.1801 594.896 87.9491C594.088 88.6738 592.808 88.1061 591.943 87.4492C588.76 85.0289 586.441 81.6839 583.96 78.5511C581.48 75.4182 578.656 72.3507 574.95 70.8448C573.295 70.1732 571.196 69.4991 570.907 67.7401C570.697 66.4572 571.701 65.2237 572.907 64.7296C574.355 64.1362 576.188 63.8972 577.664 63.4608C579.126 63.0296 580.451 63.8799 581.401 65.0635Z" fill="none" opacity="1" stroke="#fa8100" stroke-linecap="butt" stroke-linejoin="miter" stroke-opacity="0.6" stroke-width="1" vectornator:layerName="path"/>
<path d="M544.105-9.27333C545.82-1.70354 548.239 5.70798 551.32 12.8343C553.103 16.9598 555.14 21.1077 555.472 25.5889C555.573 26.9461 555.435 28.4872 554.395 29.369C553.527 30.1052 552.238 30.1591 551.151 29.8162C550.064 29.4741 549.122 28.7942 548.174 28.1636C546.599 27.1172 544.954 26.179 543.251 25.3575C541.131 24.3342 538.336 23.5876 536.632 25.2102C535.64 26.1541 535.166 27.799 533.826 28.0848C532.732 28.3174 531.73 27.4722 530.925 26.6975C528.031 23.9164 525.044 21.2321 521.971 18.6509C519.547 16.6157 516.893 14.5664 513.75 14.1717C511.375 13.8724 508.899 14.5549 506.6 13.8853C505.094 13.4457 503.8 12.4531 502.743 11.2958C499.156 7.3651 498.184 1.75615 497.762-3.54264C497.748-3.72014 497.757-3.94122 497.917-4.02132C498.076-4.10142 498.244-3.77717 498.066-3.76436" fill="none" opacity="1" stroke="#fa8100" stroke-linecap="butt" stroke-linejoin="miter" stroke-opacity="0.6" stroke-width="1" vectornator:layerName="path"/>
<path d="M540.435-4.36594C542.323-1.02159 544.05 2.41503 545.543 5.9529C546.208 7.53055 546.826 9.12807 547.444 10.725C548.097 12.4128 548.75 14.0994 549.403 15.7873C550.252 17.9801 551.111 20.2184 551.233 22.5657C551.247 22.8246 551.247 23.0988 551.113 23.3199C550.766 23.889 549.892 23.6833 549.315 23.3488C548.127 22.658 547.106 21.7179 546.004 20.8958C543.197 18.7997 539.823 17.4656 536.338 17.0734C535.27 16.9529 533.984 17.0208 533.41 17.9269C532.773 18.9336 533.254 20.6433 532.169 21.1386C531.51 21.4392 530.763 20.997 530.205 20.5369C527.924 18.6568 526.231 16.1801 524.259 13.9809C522.286 11.7816 519.853 9.76631 516.932 9.30301C515.393 9.05887 513.8 9.26136 512.281 8.91533C510.283 8.45972 508.538 7.01343 507.724 5.13652C507.199 3.92668 507.052 2.58997 506.642 1.3372C506.107-0.298768 505.134-1.76108 504.533-3.37398C504.429-3.65273 504.557-4.13845 504.815-3.98915" fill="none" opacity="1" stroke="#fa8100" stroke-linecap="butt" stroke-linejoin="miter" stroke-opacity="0.6" stroke-width="1" vectornator:layerName="path"/>
<path d="M534.727-3.39287C537.022 0.728774 539.317 4.85041 541.611 8.97205C542.408 10.4036 543.232 11.9806 542.955 13.5954C542.201 14.0094 541.293 13.5038 540.565 13.045C539.359 12.2844 538.067 11.6025 536.658 11.3757C535.25 11.1482 533.698 11.4359 532.659 12.41C531.847 13.1699 531.079 14.4099 530.001 14.1331C529.558 14.019 529.228 13.657 528.935 13.3071C527.527 11.6256 526.189 9.7141 524.153 8.89388C523.207 8.5126 522.169 8.39725 521.221 8.02046C519.289 7.24958 517.938 5.4752 516.993 3.62648C516.048 1.77713 515.403-0.223458 514.333-2.00233" fill="none" opacity="1" stroke="#fa8100" stroke-linecap="butt" stroke-linejoin="miter" stroke-opacity="0.6" stroke-width="1" vectornator:layerName="path"/>
<path d="M529.518-2.27019C531.318-0.238848 532.689 2.16993 533.515 4.75236C533.704 5.34254 533.867 5.95963 533.793 6.57416C533.72 7.18869 533.364 7.80514 532.784 8.0243C531.92 8.35175 531.015 7.72184 530.11 7.53024C529.238 7.34505 528.331 7.57638 527.441 7.51998C525.469 7.39567 523.853 5.88594 522.766 4.23908C521.486 2.30193 520.684 0.0539986 520.449-2.25417" fill="none" opacity="1" stroke="#fa8100" stroke-linecap="butt" stroke-linejoin="miter" stroke-opacity="0.6" stroke-width="1" vectornator:layerName="path"/>
<path d="M494.368 14.4226C493.676 14.2508 492.971 14.0791 492.26 14.1265C489.979 14.2803 488.481 16.527 486.469 17.608C485.941 17.8912 485.275 18.0893 484.761 17.7804C484.165 17.4215 484.098 16.5795 484.244 15.9009C484.809 13.264 487.304 11.5793 489.038 9.51211C489.543 8.9104 490.015 8.24204 490.712 7.87999C491.584 7.42566 492.667 7.54613 493.561 7.95817C494.454 8.37085 495.197 9.04176 495.926 9.70179C496.951 10.631 497.975 11.5608 499 12.4899C500.097 13.4851 500.724 15.2127 498.754 15.4914C497.428 15.6792 495.648 14.7385 494.368 14.4226Z" fill="none" opacity="1" stroke="#fa8100" stroke-linecap="butt" stroke-linejoin="miter" stroke-opacity="0.6" stroke-width="1" vectornator:layerName="path"/>
<path d="M575.973 47.2343C575.234 47.9994 574.752 48.9753 574.065 49.7879C572.846 51.2329 570.971 52.1044 569.079 52.1044C568.583 52.105 568.071 52.0429 567.643 51.7936C566.89 51.3559 566.565 50.4588 566.262 49.6443C565.032 46.3372 563.249 43.2357 561.009 40.5071C560.426 39.7978 559.769 38.9346 560.036 38.0561C560.25 37.355 561.026 36.9372 561.761 36.943C562.495 36.95 563.184 37.2967 563.792 37.7075C565.987 39.1897 567.508 41.5792 569.865 42.7871C572.335 44.0514 575.292 43.8073 577.972 44.5307C578.728 44.7352 579.666 45.3689 578.883 46.084C578.615 46.3288 577.866 46.1744 577.528 46.2795C576.931 46.466 576.409 46.7832 575.973 47.2343Z" fill="none" opacity="1" stroke="#fa8100" stroke-linecap="butt" stroke-linejoin="miter" stroke-opacity="0.6" stroke-width="1" vectornator:layerName="path"/>
<path d="M620.091 101.745C621.228 100.329 622.234 98.2885 621.181 96.8102C620.597 95.99 619.562 95.6542 618.673 95.1768C616.656 94.0932 615.2 92.0273 614.86 89.7671C614.77 89.1667 614.558 88.3664 613.949 88.3862C613.321 88.4067 613.181 89.2705 613.228 89.8966C613.454 92.8962 613.428 96.013 612.24 98.7775C611.052 101.543 608.462 103.886 605.448 103.99C603.674 104.052 601.976 103.36 600.279 102.84C598.55 102.31 596.769 101.946 594.97 101.758C594.135 101.672 593.197 101.653 592.57 102.21C591.94 102.767 591.849 103.704 591.844 104.544C591.816 109.929 593.63 115.305 596.917 119.576C597.583 120.442 598.385 121.31 599.454 121.54C600.745 121.817 602.067 121.058 602.91 120.044C603.753 119.029 604.246 117.779 604.878 116.622C605.51 115.465 606.361 114.333 607.594 113.858C609.097 113.28 610.767 113.806 612.337 114.168C613.906 114.528 615.777 114.637 616.9 113.485C617.772 112.591 617.894 111.221 617.87 109.974C617.804 106.518 617.816 104.577 620.091 101.745Z" fill="none" opacity="1" stroke="#fa8100" stroke-linecap="butt" stroke-linejoin="miter" stroke-opacity="0.6" stroke-width="1" vectornator:layerName="path"/>
<path d="M617.893 101.898C616.979 102.875 615.836 103.757 615.48 105.045C615.216 105.999 615.438 107.011 615.486 107.999C615.534 108.988 615.33 110.112 614.506 110.664C614.049 110.97 613.475 111.043 612.925 111.049C610.823 111.07 608.441 110.295 606.797 111.601C605.433 112.685 605.145 114.872 603.573 115.624C602.543 116.115 601.271 115.78 600.364 115.087C599.459 114.395 598.841 113.401 598.245 112.431C597.345 110.964 596.42 109.427 596.282 107.714C596.247 107.266 596.272 106.796 596.49 106.404C597.031 105.433 598.399 105.404 599.507 105.523C602.49 105.846 605.541 106.322 608.458 105.619C611.374 104.916 614.167 102.67 614.428 99.6882C614.625 97.4499 614.803 94.9873 617.285 96.8572C619.257 98.3438 619.775 99.8843 617.893 101.898Z" fill="none" opacity="1" stroke="#fa8100" stroke-linecap="butt" stroke-linejoin="miter" stroke-opacity="0.6" stroke-width="1" vectornator:layerName="path"/>
<path d="M613.972 142.929C612.947 146.914 610.502 150.596 606.988 152.747C605.187 153.85 603.151 154.538 601.387 155.699C599.036 157.246 597.246 159.624 596.414 162.308C595.605 164.918 595.692 167.709 595.307 170.413C595.03 172.358 594.506 174.268 593.751 176.082C593.424 176.869 592.98 177.707 592.181 178.005C591.465 178.271 590.632 178.008 590.055 177.51C589.477 177.011 589.113 176.312 588.824 175.606C587.652 172.746 587.498 169.592 587.048 166.534C586.597 163.477 585.744 160.299 583.54 158.128C582.068 156.678 580.091 155.784 578.748 154.214C577.229 152.439 576.735 149.731 577.877 147.695C579.104 145.507 581.743 144.579 583.569 142.859C586.54 140.059 587.004 135.61 588.304 131.746C588.688 130.605 589.233 129.406 590.297 128.838C591.51 128.191 593.043 128.58 594.194 129.329C595.347 130.079 596.252 131.145 597.322 132.007C598.392 132.868 599.755 133.544 601.105 133.286C602.063 133.104 602.869 132.482 603.635 131.88C604.618 131.107 605.6 130.333 606.583 129.561C608.128 128.344 609.656 127.658 611.477 128.792C612.537 129.452 613.48 130.403 613.856 131.605C614.941 135.073 614.866 139.452 613.972 142.929Z" fill="none" opacity="1" stroke="#fa8100" stroke-linecap="butt" stroke-linejoin="miter" stroke-opacity="0.6" stroke-width="1" vectornator:layerName="path"/>
<path d="M611.791 142.067C611.026 145.231 609.281 148.461 606.243 149.651C604.812 150.213 603.232 150.264 601.757 150.698C599.55 151.346 597.691 152.809 595.893 154.239C595.311 154.702 594.716 155.179 594.338 155.819C593.984 156.418 593.848 157.116 593.716 157.798C593.222 160.372 592.727 162.946 592.232 165.519C592.176 165.814 592.091 166.148 591.823 166.285C591.349 166.526 590.883 165.947 590.685 165.453C589.367 162.149 589.2 158.285 586.931 155.543C585.582 153.913 583.459 152.552 583.435 150.439C583.419 149.071 584.349 147.872 585.374 146.962C586.399 146.053 587.582 145.284 588.37 144.164C589.469 142.602 589.641 140.599 589.892 138.708C590.143 136.816 590.59 134.79 592.028 133.533C592.364 133.239 592.775 132.988 593.221 132.993C593.752 132.999 594.207 133.357 594.602 133.711C595.594 134.602 596.512 135.585 597.61 136.342C598.708 137.099 600.042 137.621 601.364 137.438C604.883 136.949 606.465 130.885 609.943 131.333C613.804 131.831 612.361 139.712 611.791 142.067Z" fill="none" opacity="1" stroke="#fa8100" stroke-dasharray="1.9739999771118164,3.947999954223633,1.9739999771118164,3.947999954223633" stroke-linecap="round" stroke-linejoin="round" stroke-opacity="0.6" stroke-width="1" vectornator:layerName="path"/>
<path d="M610.418 137.786C610.441 137.383 610.447 136.931 610.17 136.637C609.693 136.133 608.85 136.493 608.292 136.907C605.995 138.611 604.088 140.886 601.505 142.117C600.732 142.485 599.844 142.754 599.026 142.501C598.208 142.248 597.637 141.537 597.028 140.937C596.419 140.337 595.593 139.789 594.763 139.997C593.636 140.279 593.295 141.663 592.942 142.767C592.484 144.201 591.667 145.518 590.586 146.569C590.081 147.059 589.51 147.502 589.146 148.105C588.538 149.113 588.616 150.408 589.009 151.517C589.342 152.456 590.05 153.423 591.049 153.453C591.753 153.474 592.387 153.008 592.819 152.453C593.25 151.897 593.535 151.243 593.932 150.663C595.356 148.577 597.993 147.713 600.479 147.243C602.676 146.827 606.171 146.803 608.076 145.481C610.233 143.982 610.285 140.102 610.418 137.786Z" fill="none" opacity="1" stroke="#fa8100" stroke-linecap="butt" stroke-linejoin="miter" stroke-opacity="0.6" stroke-width="1" vectornator:layerName="path"/>
<path d="M681.957 187.292C680.807 185.792 679.468 184.447 678.25 183.001C677.114 181.653 676.071 180.208 674.724 179.071C673.376 177.934 671.639 177.118 669.885 177.318C669.731 177.336 669.569 177.366 669.453 177.468C669.302 177.602 669.269 177.82 669.249 178.02C669.084 179.643 669.14 181.289 669.414 182.897C669.558 183.749 669.755 184.67 669.366 185.441C668.83 186.503 667.457 186.786 666.267 186.851C665.078 186.916 663.747 186.942 662.909 187.786C662.156 188.545 662.064 189.796 662.499 190.771C662.934 191.745 663.808 192.468 664.759 192.956C666.877 194.045 669.352 194.1 671.695 194.531C675.871 195.3 679.762 197.341 682.894 200.185C683.638 200.861 684.284 201.914 685.314 201.243C685.927 200.845 686.412 199.461 686.514 198.767C686.745 197.2 685.855 195.249 685.378 193.792C684.611 191.456 683.454 189.246 681.957 187.292Z" fill="none" opacity="1" stroke="#fa8100" stroke-linecap="butt" stroke-linejoin="miter" stroke-opacity="0.6" stroke-width="1" vectornator:layerName="path"/>
<path d="M675.918 184.602C675.281 185.12 675.333 186.088 675.448 186.899C675.562 187.71 675.627 188.674 675.004 189.207C674.538 189.603 673.861 189.597 673.249 189.564C672.571 189.528 671.728 189.578 671.449 190.196C671.175 190.801 671.686 191.477 672.244 191.838C673.429 192.607 674.929 192.748 676.331 192.572C677.364 192.441 678.483 192.168 679.393 192.672C679.809 192.902 680.127 193.272 680.501 193.565C681.418 194.283 682.519 193.959 682.395 192.773C682.323 192.074 681.151 190.548 680.761 189.915C679.498 187.863 677.849 186.047 675.918 184.602Z" fill="none" opacity="1" stroke="#fa8100" stroke-linecap="butt" stroke-linejoin="miter" stroke-opacity="0.6" stroke-width="1" vectornator:layerName="path"/>
<path d="M720.312 209.043C719.666 210.023 718.386 210.344 717.217 210.476C713.216 210.927 709.133 210.084 705.446 208.469C701.76 206.853 698.443 204.487 695.409 201.847C694.882 201.388 694.348 200.912 693.696 200.662C693.044 200.412 692.235 200.437 691.725 200.914C691.408 201.208 691.247 201.636 691.168 202.061C690.708 204.564 692.779 206.785 694.831 208.296C700.326 212.342 707.014 214.756 713.833 215.153C714.726 215.205 715.639 215.221 716.495 214.959C718.043 214.484 719.353 213.12 720.97 213.222C721.131 213.233 721.284 213.037 721.193 212.906C721.101 212.774 720.836 212.947 720.947 213.063" fill="none" opacity="1" stroke="#fa8100" stroke-linecap="butt" stroke-linejoin="miter" stroke-opacity="0.6" stroke-width="1" vectornator:layerName="path"/>
<path d="M660.692 179.048C661.186 176.517 660.569 173.884 659.56 171.509C657.875 167.545 655.075 164.06 651.563 161.559C649.822 160.318 647.915 159.317 646.218 158.017C644.522 156.716 643.004 155.04 642.443 152.98C642.142 151.876 642.131 150.717 641.956 149.586C641.726 148.103 641.195 146.635 640.225 145.488C639.255 144.341 637.809 143.546 636.304 143.567C633.683 143.603 631.69 145.964 630.615 148.348C629.541 150.734 628.96 153.401 627.305 155.428C624.402 158.982 619.034 159.599 615.863 162.917C613.776 165.099 612.906 168.26 613.121 171.268C613.337 174.276 614.551 177.144 616.167 179.694C616.827 180.736 617.566 181.746 618.514 182.537C620.259 183.993 622.572 184.595 624.837 184.808C628.715 185.172 632.609 184.52 636.502 184.364C641.765 184.154 647.267 184.392 652.522 184.705C654.466 184.82 655.699 185.202 657.476 183.981C659.127 182.847 660.311 181.007 660.692 179.048Z" fill="none" opacity="1" stroke="#fa8100" stroke-linecap="butt" stroke-linejoin="miter" stroke-opacity="0.6" stroke-width="1" vectornator:layerName="path"/>
<path d="M640.036 156C639.326 154.318 639.108 152.473 638.554 150.734C638.146 149.453 637.324 148.058 635.982 147.933C635.751 147.912 635.509 147.935 635.306 148.049C634.979 148.233 634.821 148.616 634.726 148.979C634.214 150.914 634.778 153.026 634.191 154.941C633.795 156.229 632.91 157.313 632.409 158.564C631.908 159.815 631.916 161.473 633.008 162.266C634.113 163.067 635.681 162.557 636.837 161.83C637.993 161.103 639.123 160.148 640.489 160.095C641.604 160.052 642.682 160.634 643.794 160.545C644.422 160.495 644.761 159.915 644.321 159.446C644.133 159.244 643.052 159.258 642.734 159.119C641.473 158.565 640.552 157.222 640.036 156Z" fill="none" opacity="1" stroke="#fa8100" stroke-linecap="butt" stroke-linejoin="miter" stroke-opacity="0.6" stroke-width="1" vectornator:layerName="path"/>
<path d="M650.822 175.505C650.785 174.719 650.391 173.986 649.882 173.384C647.851 170.988 644.312 170.61 641.17 170.781C638.029 170.952 634.742 171.472 631.839 170.264C630.398 169.664 629.138 168.664 627.655 168.18C626.171 167.695 624.25 167.92 623.472 169.271C622.788 170.457 623.278 171.994 624.081 173.103C625.388 174.907 627.508 176.1 629.731 176.283C632.518 176.513 635.188 175.246 637.942 174.763C639.371 174.514 640.836 174.475 642.276 174.65C643.719 174.826 645.13 175.213 646.496 175.709C647.891 176.214 650.962 178.462 650.822 175.505Z" fill="none" opacity="1" stroke="#fa8100" stroke-linecap="butt" stroke-linejoin="miter" stroke-opacity="0.6" stroke-width="1" vectornator:layerName="path"/>
<path d="M650.766 149.401C650.858 149.949 650.956 150.509 650.859 151.056C650.762 151.603 650.423 152.143 649.894 152.315C649.203 152.54 648.448 152.053 648.098 151.417C647.749 150.781 647.696 150.032 647.598 149.314C647.369 147.627 646.857 145.979 646.088 144.46C645.625 143.545 644.982 142.608 643.993 142.333C643.281 142.134 642.42 142.285 641.881 141.78C641.463 141.389 641.414 140.746 641.469 140.177C641.664 138.148 642.792 136.327 644.092 134.755C645.392 133.183 646.894 131.775 648.056 130.1C648.681 129.198 649.207 128.22 649.936 127.398C650.864 126.351 653.586 124.763 654.26 126.904C654.737 128.413 653.049 129.173 652.456 130.316C650.602 133.886 650.127 138.394 650.143 142.351C650.152 144.713 650.378 147.072 650.766 149.401Z" fill="none" opacity="1" stroke="#fa8100" stroke-linecap="butt" stroke-linejoin="miter" stroke-opacity="0.6" stroke-width="1" vectornator:layerName="path"/>
<path d="M645.011 135.759C644.622 136.23 644.399 136.815 644.232 137.402C644.145 137.705 644.072 138.02 644.111 138.334C644.151 138.646 644.326 138.959 644.616 139.083C645.015 139.256 645.487 139.033 645.908 139.142C646.33 139.252 646.6 139.67 646.734 140.084C646.868 140.498 646.909 140.943 647.09 141.339C647.13 141.427 647.18 141.515 647.263 141.565C647.439 141.668 647.663 141.547 647.807 141.402C648.493 140.714 648.43 139.609 648.385 138.639C648.344 137.788 648.349 136.919 648.537 136.084C648.671 135.492 649.249 134.653 648.706 134.12C647.905 133.332 645.549 135.108 645.011 135.759Z" fill="none" opacity="1" stroke="#fa8100" stroke-linecap="butt" stroke-linejoin="miter" stroke-opacity="0.6" stroke-width="1" vectornator:layerName="path"/>
<path d="M678.46 157.565C680.095 159.696 681.955 161.682 683.235 164.042C683.618 164.748 683.954 165.56 683.74 166.334C683.428 167.467 682.019 167.993 680.867 167.749C679.715 167.504 678.772 166.708 677.882 165.938C674.968 163.421 672.054 160.902 669.14 158.385C667.217 156.724 665.282 155.049 663.712 153.054C662.306 151.268 661.218 149.257 660.224 147.215C659.295 145.304 658.429 143.308 658.277 141.19C658.087 138.553 659.038 135.922 660.539 133.742C662.038 131.564 664.062 129.793 666.184 128.209C667.354 127.336 668.65 126.482 670.111 126.423C674.178 126.26 672.109 129.821 671.693 131.96C671.108 134.961 671.068 138.052 671.474 141.078C672.277 147.054 674.794 152.789 678.46 157.565Z" fill="none" opacity="1" stroke="#fa8100" stroke-linecap="butt" stroke-linejoin="miter" stroke-opacity="0.6" stroke-width="1" vectornator:layerName="path"/>
<path d="M676.245 158.559C676.854 159.301 677.508 160.377 676.9 161.12C676.15 162.037 674.704 161.127 673.941 160.221C669.89 155.419 666.327 150.208 663.32 144.695C662.311 142.844 661.343 140.885 661.253 138.779C661.149 136.375 662.802 133.009 665.683 133.291C668.775 133.595 667.997 137.977 668.291 140.16C669.193 146.862 671.95 153.321 676.245 158.559Z" fill="none" opacity="1" stroke="#fa8100" stroke-linecap="butt" stroke-linejoin="miter" stroke-opacity="0.6" stroke-width="1" vectornator:layerName="path"/>
<path d="M692.491 147.291C692.716 148.199 693.026 149.113 692.955 150.046C692.885 150.979 692.302 151.958 691.379 152.126C690.637 152.261 689.908 151.848 689.317 151.382C686.915 149.485 685.598 146.555 684.574 143.673C683.713 141.248 682.987 138.676 683.355 136.128C683.722 133.581 685.447 131.07 687.967 130.522C689.783 130.127 692.101 130.603 693.165 129.082C693.411 128.731 693.547 128.311 693.805 127.969C695.15 126.188 697.647 127.806 698.088 129.461C698.647 131.554 696.975 132.264 695.749 133.594C692.495 137.127 691.353 142.698 692.491 147.291Z" fill="none" opacity="1" stroke="#fa8100" stroke-linecap="butt" stroke-linejoin="miter" stroke-opacity="0.6" stroke-width="1" vectornator:layerName="path"/>
<path d="M690.809 145.067C690.963 145.887 691.08 146.931 690.368 147.367C689.675 147.791 688.78 147.235 688.296 146.583C687.394 145.367 687.103 143.818 686.864 142.325C686.565 140.449 686.325 138.443 687.129 136.721C687.867 135.141 691.739 130.804 691.484 134.831C691.258 138.402 690.115 141.382 690.809 145.067Z" fill="none" opacity="1" stroke="#fa8100" stroke-linecap="butt" stroke-linejoin="miter" stroke-opacity="0.6" stroke-width="1" vectornator:layerName="path"/>
<path d="M582.943 200.838C578.439 200.435 573.764 200.785 569.662 202.682C565.561 204.58 562.105 208.198 561.179 212.614C560.832 214.269 560.881 216.119 561.874 217.489C563.084 219.157 565.41 219.68 567.449 219.359C569.488 219.039 571.342 218.034 573.213 217.163C579.985 214.01 587.796 212.485 595 214.469C598.57 215.452 601.977 217.277 605.679 217.354C608.415 217.411 610.8 215.647 609.272 212.945C608.044 210.774 603.879 208.541 601.798 207.233C596.13 203.672 589.619 201.434 582.943 200.838Z" fill="none" opacity="1" stroke="#fa8100" stroke-linecap="butt" stroke-linejoin="miter" stroke-opacity="0.6" stroke-width="1" vectornator:layerName="path"/>
<path d="M584.333 204.115C580.484 203.295 576.396 203.418 572.698 204.763C570.601 205.525 568.378 207.116 568.455 209.34C568.515 211.09 570.091 212.502 571.795 212.918C573.498 213.336 575.291 212.967 576.981 212.499C580.142 211.623 583.283 210.385 586.563 210.445C588.733 210.485 590.809 211.118 592.941 211.43C594.355 211.637 597.049 211.235 595.602 209.306C594.595 207.965 591.992 206.974 590.521 206.264C588.55 205.314 586.476 204.571 584.333 204.115Z" fill="none" opacity="1" stroke="#fa8100" stroke-linecap="butt" stroke-linejoin="miter" stroke-opacity="0.6" stroke-width="1" vectornator:layerName="path"/>
<path d="M575.563 177.882C576.581 177.427 577.381 176.584 578.001 175.658C580.674 171.662 579.954 165.762 576.4 162.522C572.931 159.359 567.027 158.175 565.97 153.607C565.416 151.208 566.505 148.541 565.482 146.301C564.722 144.642 562.983 143.663 561.272 143.018C555.773 140.949 549.579 141.238 543.956 142.945C538.333 144.651 533.21 147.694 528.399 151.062C525.246 153.269 522.163 155.663 519.796 158.694C517.133 162.103 515.481 166.185 514.114 170.286C511.186 179.069 509.403 188.217 506.128 196.878C502.853 205.539 497.824 213.928 490.027 218.944C486.256 221.371 481.962 222.927 478.28 225.485C471.017 230.53 466.686 240.306 469.776 248.58C471.676 253.666 476.081 257.585 481.111 259.652C486.143 261.719 491.749 262.074 497.159 261.499C505.195 260.645 513.265 257.592 518.715 251.638C524.247 245.592 526.497 237.345 528.871 229.508C532.478 217.601 536.774 205.902 541.73 194.488C543.422 190.592 545.236 186.658 548.107 183.524C551.564 179.75 556.185 177.696 561.192 176.986C563.118 176.713 565.196 176.462 567.119 176.719C569.932 177.096 572.668 179.174 575.563 177.882Z" fill="none" opacity="1" stroke="#fa8100" stroke-linecap="butt" stroke-linejoin="miter" stroke-opacity="0.6" stroke-width="1" vectornator:layerName="path"/>
<path d="M568.175 165.067C565.851 163.951 563.109 163.099 561.871 160.841C560.362 158.093 561.811 154.52 560.619 151.622C560.017 150.16 558.795 149.029 557.447 148.2C552.921 145.416 546.99 145.77 542.109 147.874C537.229 149.978 533.192 153.611 529.359 157.287C525.223 161.252 521.123 165.465 518.796 170.695C517.669 173.227 516.991 175.931 516.357 178.629C514.4 186.971 512.82 195.442 509.806 203.465C506.792 211.488 502.191 219.162 495.305 224.282C491.049 227.446 485.975 229.607 482.438 233.553C478.899 237.499 477.599 244.302 481.593 247.788C483.055 249.064 484.969 249.674 486.823 250.251C491.091 251.58 495.411 252.92 499.875 253.172C504.338 253.424 509.031 252.481 512.503 249.671C515.119 247.553 516.847 244.564 518.517 241.645C523.284 233.31 528.09 224.884 530.847 215.69C531.871 212.275 532.603 208.778 533.63 205.364C537.016 194.093 544.049 181.318 553.354 173.795C556.772 171.031 560.128 170.8 564.374 171.376C566.52 171.667 570.688 173.507 572.072 171.361C573.701 168.834 570.017 165.951 568.175 165.067Z" fill="none" opacity="1" stroke="#fa8100" stroke-linecap="butt" stroke-linejoin="miter" stroke-opacity="0.6" stroke-width="1" vectornator:layerName="path"/>
<path d="M510.112 240.31C509.422 241.497 508.669 242.674 507.637 243.58C506.295 244.759 504.562 245.405 502.82 245.807C500.506 246.339 497.913 246.433 495.92 245.143C493.54 243.604 492.658 240.385 493.256 237.618C493.854 234.852 495.674 232.497 497.735 230.552C499.796 228.607 502.137 226.976 504.185 225.017C506.979 222.344 509.172 219.113 511.799 216.276C513.523 214.414 515.636 212.634 518.17 212.451C520.703 212.269 523.474 214.489 522.924 216.963C522.698 217.983 521.987 218.817 521.299 219.605C518.699 222.589 516.3 224.975 515.017 228.685C513.65 232.638 512.471 236.78 510.112 240.31Z" fill="none" opacity="1" stroke="#fa8100" stroke-linecap="butt" stroke-linejoin="miter" stroke-opacity="0.6" stroke-width="1" vectornator:layerName="path"/>
<path d="M554.659 167.813C555.699 166.867 556.402 165.399 556.006 164.053C554.255 163.419 552.244 162.496 551.896 160.67C551.59 159.063 552.766 157.489 552.625 155.859C552.43 153.6 549.678 152.288 547.457 152.774C545.237 153.261 543.51 154.957 541.975 156.631C533.015 166.406 526.112 178.049 521.841 190.591C521.258 192.305 520.735 194.245 521.544 195.865C522.727 198.232 526.245 198.507 528.49 197.101C534.319 193.451 535.376 184.286 539.186 178.92C543.119 173.38 549.938 172.106 554.659 167.813Z" fill="none" opacity="1" stroke="#fa8100" stroke-linecap="butt" stroke-linejoin="miter" stroke-opacity="0.6" stroke-width="1" vectornator:layerName="path"/>
<path d="M548.956 164.893C548.902 164.476 548.737 164.026 548.361 163.838C548.094 163.704 547.777 163.73 547.49 163.646C546.931 163.482 546.566 162.915 546.471 162.341C546.377 161.767 546.502 161.182 546.631 160.615C546.713 160.254 546.796 159.864 546.651 159.522C546.435 159.014 545.773 158.819 545.238 158.959C544.702 159.098 544.272 159.486 543.88 159.875C541.458 162.286 539.678 165.248 537.924 168.178C536.872 169.936 535.819 171.694 534.766 173.451C534.683 173.59 534.598 173.754 534.658 173.904C534.722 174.067 534.922 174.124 535.096 174.146C537.079 174.404 538.903 173.085 540.353 171.712C542.024 170.128 543.128 168.906 545.432 168.772C547.496 168.652 549.241 167.098 548.956 164.893Z" fill="none" opacity="1" stroke="#fa8100" stroke-linecap="butt" stroke-linejoin="miter" stroke-opacity="0.6" stroke-width="1" vectornator:layerName="path"/>
<path d="M517.031 216.879C517.303 216.921 517.593 217.006 517.753 217.23C517.972 217.536 517.858 217.961 517.7 218.302C516.717 220.424 514.511 221.662 512.901 223.361C510.882 225.49 509.827 228.321 508.642 231.003C507.457 233.685 505.979 236.419 503.479 237.957C502.865 238.335 502.004 238.607 501.477 238.116C501.163 237.824 501.091 237.358 501.081 236.93C501.036 235.085 501.792 233.295 502.837 231.771C503.882 230.247 505.21 228.944 506.476 227.597C508.428 225.52 510.248 223.32 511.922 221.015C513.352 219.043 514.043 216.414 517.031 216.879Z" fill="none" opacity="1" stroke="#fa8100" stroke-linecap="butt" stroke-linejoin="miter" stroke-opacity="0.6" stroke-width="1" vectornator:layerName="path"/>
<path d="M508.517 41.2086C511.941 45.8019 513.993 51.2385 516.597 56.3393C526.645 76.0215 544.677 90.3409 563.024 102.705C566.317 104.924 569.699 107.157 572.142 110.284C574.586 113.41 575.963 117.661 574.667 121.408C572.28 128.314 563.113 129.586 555.812 129.042C547.539 128.427 539.293 127.026 531.003 127.346C522.714 127.666 514.134 129.928 508.115 135.623C504.412 139.126 501.896 143.724 500.178 148.515C496.209 159.575 496.278 171.648 493.544 183.074C490.81 194.499 483.937 206.302 472.525 209.191C457.678 212.948 443.243 200.148 427.94 200.812C420.255 201.145 413.176 204.853 406.393 208.476C398.489 212.699 390.585 216.922 382.68 221.144C377.721 223.793 372.593 226.494 366.994 227.028C361.395 227.562 355.142 225.38 352.561 220.394C350.305 216.037 351.347 210.617 353.71 206.318C356.073 202.019 359.601 198.497 362.639 194.643C369.944 185.373 374.456 173.94 375.446 162.19C376.555 149.025 373.351 135.904 372.722 122.709C372.598 120.11 372.596 117.397 373.724 115.051C374.688 113.042 376.403 111.483 378.239 110.215C396.995 97.2493 425.245 111.924 444.666 99.9747C455.259 93.4577 460.042 80.9012 465.63 69.8076C470.895 59.3536 477.439 49.5442 485.065 40.6575C487.98 37.26 491.324 32.7392 496.244 33.0089C501.058 33.2729 505.818 37.5868 508.517 41.2086Z" fill="none" opacity="1" stroke="#fa8100" stroke-dasharray="2.0,4.0,2.0,4.0" stroke-linecap="butt" stroke-linejoin="miter" stroke-opacity="0.6" stroke-width="1" vectornator:layerName="path"/>
<path d="M405.542 111.995C396.709 111.039 386.203 112.72 381.932 120.494C379.649 124.649 379.704 129.641 379.818 134.38C379.972 140.774 380.127 147.169 380.28 153.563C380.408 158.894 380.587 164.435 383.027 169.18C385.467 173.926 390.88 177.603 396.055 176.267C401.405 174.886 404.223 169.066 405.569 163.719C406.916 158.372 407.672 152.496 411.452 148.474C418.052 141.451 430.824 143.268 437.025 135.892C438.603 134.017 439.578 131.703 440.226 129.342C442.135 122.385 440.146 111.887 431.123 112.567C427.334 112.852 424.312 114.25 420.284 113.975C415.337 113.637 410.468 112.528 405.542 111.995Z" fill="none" opacity="1" stroke="#fa8100" stroke-linecap="butt" stroke-linejoin="miter" stroke-opacity="0.6" stroke-width="1" vectornator:layerName="path"/>
<path d="M487.385 157.872C487.303 166.579 487.885 175.503 485.203 183.791C482.523 192.079 475.534 199.75 466.809 200.032C461.106 200.217 455.787 197.288 451.09 194.056C448.211 192.076 445.355 189.855 443.671 186.799C441.987 183.743 441.748 179.65 443.955 176.946C447.839 172.19 455.626 174.562 461.347 172.313C465.707 170.599 468.49 166.281 470.149 161.909C471.806 157.536 472.644 152.858 474.672 148.643C476.701 144.429 480.334 140.556 484.99 140.01C496.142 138.706 487.434 152.719 487.385 157.872Z" fill="none" opacity="1" stroke="#fa8100" stroke-linecap="butt" stroke-linejoin="miter" stroke-opacity="0.6" stroke-width="1" vectornator:layerName="path"/>
<path d="M556.769 117.413C557.96 117.331 559.231 117.099 560.077 116.257C561.52 114.821 561.041 112.354 560.02 110.593C556.965 105.325 550.677 103.063 545.627 99.6459C539.436 95.4538 534.911 89.2873 530.514 83.2471C523.115 73.0795 515.701 62.8914 509.361 52.0349C507.839 49.4275 506.331 46.7239 504.019 44.7791C501.707 42.8343 498.357 41.793 495.601 43.0348C493.175 44.1274 491.775 46.6522 490.637 49.0526C486.765 57.2216 483.966 65.8641 480.098 74.0356C476.231 82.2071 471.118 90.0749 463.712 95.2782C461.618 96.7495 459.335 98.015 457.61 99.9041C455.005 102.756 453.974 106.708 453.584 110.545C453.155 114.753 453.414 119.119 455.077 123.01C456.741 126.9 459.951 130.264 464.023 131.439C469.47 133.01 475.514 130.567 480.909 132.308C485.083 133.656 488.548 137.413 492.932 137.272C496.402 137.16 499.31 134.545 501.203 131.64C503.097 128.736 504.314 125.42 506.348 122.612C510.718 116.578 518.405 113.644 525.858 113.263C536.382 112.725 546.432 118.125 556.769 117.413Z" fill="none" opacity="1" stroke="#fa8100" stroke-linecap="butt" stroke-linejoin="miter" stroke-opacity="0.6" stroke-width="1" vectornator:layerName="path"/>
<path d="M455.729 140.989C461.511 147.86 459.663 159.683 452.059 164.472C448.197 166.904 443.451 167.575 439.486 169.839C434.085 172.924 430.575 179.053 430.652 185.262C430.688 188.037 431.208 191.297 429.146 193.16C428.07 194.132 426.556 194.416 425.125 194.656C418.557 195.759 411.793 196.843 406.082 200.261C402.153 202.613 398.928 205.956 395.27 208.708C390.322 212.433 384.637 215.039 379.003 217.616C375.434 219.248 371.194 220.87 367.759 218.973C364.424 217.131 363.464 212.74 363.77 208.949C364.39 201.269 368.955 194.011 375.616 190.113C385.882 184.106 399.919 185.964 408.922 178.198C416.071 172.031 417.912 161.484 424.597 154.819C428.124 151.302 432.74 149.131 436.883 146.362C440.757 143.773 443.579 140.492 446.954 137.39C449.059 135.455 448.161 134.812 450.732 135.704C452.099 136.177 454.722 139.793 455.729 140.989Z" fill="none" opacity="1" stroke="#fa8100" stroke-linecap="butt" stroke-linejoin="miter" stroke-opacity="0.6" stroke-width="1" vectornator:layerName="path"/>
<path d="M507.542 56.6561C509.939 59.7761 511.585 63.3902 513.379 66.8909C521.64 83.009 533.463 97.2977 547.762 108.442C548.628 109.116 549.585 110.293 548.898 111.149C548.664 111.44 548.292 111.582 547.931 111.684C544.819 112.564 541.548 111.395 538.45 110.464C535.387 109.542 532.255 108.844 529.089 108.375C526.477 107.988 523.829 107.757 521.194 107.936C518.314 108.132 515.491 108.814 512.686 109.492C508.975 110.39 504.949 111.49 502.704 114.572C501.288 116.515 500.808 118.969 499.769 121.137C498.731 123.305 496.699 125.372 494.304 125.124C493.439 125.033 492.635 124.648 491.882 124.215C489.684 122.954 487.747 121.255 485.469 120.145C482.476 118.687 479.083 118.333 475.844 117.555C472.604 116.777 469.26 115.391 467.457 112.596C466.127 110.534 465.83 107.843 466.678 105.541C467.645 102.92 469.917 100.992 472.317 99.5539C474.716 98.1166 477.332 97.0401 479.619 95.4304C486.434 90.6327 489.235 82.0088 491.083 73.8949C492.46 67.8477 493.579 61.5781 496.411 55.9954C497.345 54.1556 498.737 51.4521 501.179 51.6065C503.682 51.7655 506.147 54.8413 507.542 56.6561Z" fill="none" opacity="1" stroke="#fa8100" stroke-dasharray="1.9919999837875366,3.9850001335144043,1.9919999837875366,3.9850001335144043" stroke-linecap="round" stroke-linejoin="round" stroke-opacity="0.6" stroke-width="1" vectornator:layerName="path"/>
<path d="M471.735 126.481C468.836 126.867 465.685 127.047 463.192 125.52C461.312 124.368 460.075 122.367 459.427 120.263C458.78 118.158 458.661 115.931 458.585 113.731C458.552 112.77 458.575 111.686 459.276 111.027C460.171 110.187 461.713 110.562 462.579 111.431C463.447 112.3 463.854 113.508 464.396 114.608C465.689 117.232 467.894 119.397 470.543 120.647C472.094 121.377 479.966 122.322 480.331 123.831C480.986 126.551 472.953 126.32 471.735 126.481Z" fill="none" opacity="1" stroke="#fa8100" stroke-linecap="butt" stroke-linejoin="miter" stroke-opacity="0.6" stroke-width="1" vectornator:layerName="path"/>
<path d="M518.108 101.577C513.754 101.424 509.283 101.439 505.196 102.945C503.21 103.677 501.368 104.743 499.537 105.804C498.087 106.644 496.629 107.491 495.353 108.577C493.883 109.83 492.53 111.464 490.621 111.77C488.986 112.033 487.388 111.235 485.925 110.461C484.307 109.606 482.578 108.636 481.835 106.966C480.844 104.74 482.007 102.108 483.661 100.317C485.315 98.5252 487.446 97.2045 488.988 95.316C490.214 93.8127 491.013 92.0153 491.798 90.2422C493.913 85.4592 496.036 80.6551 497.426 75.6139C497.844 74.0952 498.205 72.5336 499.004 71.1751C499.803 69.8166 501.143 68.6651 502.717 68.5453C504.376 68.4203 505.939 69.4693 506.923 70.8066C507.907 72.1446 508.433 73.7524 509.026 75.3032C511.57 81.9547 515.624 88.0263 520.797 92.9303C522.765 94.7964 524.969 96.5361 527.575 97.2955C528.975 97.703 530.512 97.8421 531.681 98.7123C532.526 99.3428 533.281 100.922 532.519 101.878C531.692 102.914 529.767 102.344 528.682 102.245C525.165 101.923 521.638 101.701 518.108 101.577Z" fill="none" opacity="1" stroke="#fa8100" stroke-linecap="butt" stroke-linejoin="miter" stroke-opacity="0.6" stroke-width="1" vectornator:layerName="path"/>
<path d="M506.528 83.2731C506.14 82.2382 505.774 81.1566 505.03 80.3376C504.287 79.5187 503.041 79.0336 502.046 79.5174C501.325 79.8673 500.905 80.617 500.543 81.3302C499.137 84.1017 497.937 86.9782 496.958 89.9279C496.136 92.402 495.389 95.0613 493.462 96.8216C492.313 97.8706 490.801 98.5358 489.878 99.7879C489.019 100.952 488.8 102.556 489.314 103.907C489.664 104.825 490.429 105.667 491.408 105.764C492.973 105.918 494.013 104.279 494.985 103.046C496.709 100.86 499.28 99.447 501.974 98.7293C504.668 98.0122 507.494 97.9443 510.28 98.0737C513.654 98.2301 516.688 95.5221 513.302 92.8095C509.978 90.1464 508.05 87.3358 506.528 83.2731Z" fill="none" opacity="1" stroke="#fa8100" stroke-linecap="butt" stroke-linejoin="miter" stroke-opacity="0.6" stroke-width="1" vectornator:layerName="path"/>
<path d="M470.094 167.782C468.885 170.206 467.595 172.69 465.503 174.413C462.914 176.543 459.439 177.232 456.099 177.537C453.705 177.755 450.966 177.984 449.538 179.913C448.07 181.895 448.768 184.769 450.14 186.819C453.311 191.562 459.349 193.675 465.061 193.823C470.218 193.958 475.882 192.406 478.72 188.108C479.441 187.017 479.945 185.799 480.405 184.574C483.888 175.278 484.951 165.312 485.42 155.463C485.522 153.316 487.165 145.315 484.274 144.867C480.531 144.287 478.564 149.73 477.471 152.173C475.124 157.427 472.664 162.632 470.094 167.782Z" fill="none" opacity="1" stroke="#fa8100" stroke-linecap="butt" stroke-linejoin="miter" stroke-opacity="0.6" stroke-width="1" vectornator:layerName="path"/>
<path d="M467.364 177.209C466.289 178.355 465.142 179.466 463.76 180.213C462.086 181.118 460.164 181.439 458.391 182.129C457.32 182.545 456.157 183.327 456.171 184.473C456.184 185.446 457.053 186.176 457.905 186.648C462.928 189.435 469.378 187.94 474.21 184.836C475.415 184.062 476.583 183.172 477.375 181.981C478.265 180.644 478.616 179.031 478.95 177.461C479.87 173.132 480.791 168.803 481.711 164.474C482.229 162.037 483.506 158.187 482.622 155.725C481.82 153.49 480.076 153.969 479.432 155.858C477.692 160.953 475.8 165.758 472.818 170.288C471.202 172.744 469.377 175.064 467.364 177.209Z" fill="none" opacity="1" stroke="#fa8100" stroke-linecap="butt" stroke-linejoin="miter" stroke-opacity="0.6" stroke-width="1" vectornator:layerName="path"/>
<path d="M454.467 146.309C455.055 148.921 454.598 151.659 453.852 154.23C453.25 156.303 452.336 158.477 450.464 159.558C449.018 160.393 447.265 160.42 445.615 160.676C440.703 161.434 436.304 164.406 433.19 168.27C430.076 172.135 428.157 176.842 426.948 181.652C426.664 182.78 426.409 183.937 425.827 184.944C423.993 188.122 419.778 188.727 416.207 189.594C401.651 193.125 390.553 206.074 375.787 208.591C374.436 208.821 373.025 208.956 371.714 208.558C370.402 208.16 369.208 207.118 368.999 205.768C368.855 204.844 369.177 203.907 369.622 203.083C371.198 200.162 374.255 198.289 377.423 197.278C380.59 196.267 383.937 195.992 387.22 195.45C400.216 193.305 412.75 186.493 420.079 175.572C423.115 171.049 425.206 165.953 428.185 161.392C431.887 155.725 436.929 150.966 442.683 147.389C444.008 146.565 445.368 145.771 446.588 144.797C447.715 143.896 448.402 142.396 449.457 141.57C451.799 139.743 454.051 144.456 454.467 146.309Z" fill="none" opacity="1" stroke="#fa8100" stroke-linecap="butt" stroke-linejoin="miter" stroke-opacity="0.6" stroke-width="1" vectornator:layerName="path"/>
<path d="M428.84 115.841C430.031 115.793 431.295 115.832 432.303 116.469C433.093 116.969 433.633 117.782 434.034 118.627C434.851 120.352 435.177 122.262 435.469 124.147C435.756 125.996 436.015 127.904 435.557 129.717C434.563 133.651 430.504 136.029 426.573 137.066C422.643 138.103 418.454 138.267 414.746 139.933C412.522 140.933 410.567 142.433 408.635 143.92C407.168 145.049 405.679 146.201 404.607 147.708C403.185 149.71 402.609 152.17 402.064 154.562C401.449 157.267 400.832 159.973 400.216 162.68C399.548 165.611 398.534 168.966 395.739 170.087C394.735 170.49 393.608 170.533 392.548 170.315C390.53 169.899 388.735 168.51 387.83 166.662C386.876 164.713 386.914 162.446 386.972 160.278C387.28 148.847 387.588 137.416 387.897 125.984C387.961 123.607 388.128 120.979 389.821 119.304C391.078 118.06 392.958 117.623 394.728 117.706C396.497 117.789 398.207 118.33 399.917 118.792C402.844 119.582 405.832 120.153 408.845 120.496C411.451 120.792 414.151 120.908 416.634 120.069C418.811 119.333 420.739 117.979 422.818 117.019C424.727 116.137 426.724 115.927 428.84 115.841Z" fill="none" opacity="1" stroke="#fa8100" stroke-linecap="butt" stroke-linejoin="miter" stroke-opacity="0.6" stroke-width="1" vectornator:layerName="path"/>
<path d="M428.215 127.36C428.01 126.2 426.723 125.595 425.574 125.325C423.881 124.928 422.114 124.847 420.391 125.089C416.108 125.688 411.985 128.246 407.745 127.397C404.521 126.751 401.465 124.171 398.329 125.157C396.293 125.796 394.977 127.823 394.435 129.882C393.893 131.941 393.957 134.105 393.719 136.221C393.333 139.642 392.159 142.925 391.574 146.318C391.021 149.533 391.001 152.839 391.52 156.06C391.696 157.152 392.045 158.383 393.048 158.854C394.172 159.381 395.49 158.652 396.368 157.775C398.473 155.673 399.457 152.706 400.035 149.792C400.613 146.877 400.864 143.881 401.829 141.071C402.793 138.26 404.628 135.561 407.389 134.448C409.002 133.798 410.782 133.742 412.517 133.608C415.659 133.366 418.733 133.045 421.859 132.876C424.251 132.747 428.735 130.301 428.215 127.36Z" fill="none" opacity="1" stroke="#fa8100" stroke-linecap="butt" stroke-linejoin="miter" stroke-opacity="0.6" stroke-width="1" vectornator:layerName="path"/>
<path d="M563.054 186.782L563.054 182.029" fill="none" opacity="1" stroke="#fa8100" stroke-linecap="butt" stroke-linejoin="miter" stroke-opacity="0.6" stroke-width="1" vectornator:layerName="path"/>
<path d="M560.672 184.406L565.436 184.406" fill="none" opacity="1" stroke="#fa8100" stroke-linecap="butt" stroke-linejoin="miter" stroke-opacity="0.6" stroke-width="1" vectornator:layerName="path"/>
<path d="M469.548 78.1937L469.548 73.4409" fill="none" opacity="1" stroke="#fa8100" stroke-linecap="butt" stroke-linejoin="miter" stroke-opacity="0.6" stroke-width="1" vectornator:layerName="path"/>
<path d="M467.167 75.8176L471.93 75.8176" fill="none" opacity="1" stroke="#fa8100" stroke-linecap="butt" stroke-linejoin="miter" stroke-opacity="0.6" stroke-width="1" vectornator:layerName="path"/>
</g>
</g>
</svg>
