<?xml version="1.0" encoding="UTF-8" standalone="no"?>
<!DOCTYPE svg PUBLIC "-//W3C//DTD SVG 1.1//EN" "http://www.w3.org/Graphics/SVG/1.1/DTD/svg11.dtd">
<!-- Created with Vectornator (http://vectornator.io/) -->
<svg height="100%" stroke-miterlimit="10" style="fill-rule:nonzero;clip-rule:evenodd;stroke-linecap:round;stroke-linejoin:round;" version="1.1" viewBox="0 0 750 500" width="100%" xml:space="preserve" xmlns="http://www.w3.org/2000/svg" xmlns:vectornator="http://vectornator.io" xmlns:xlink="http://www.w3.org/1999/xlink">
<defs/>
<g clip-path="url(#ArtboardFrame)" id="Untitled" vectornator:layerName="Untitled">
<g opacity="1" vectornator:layerName="path">
<clipPath clip-rule="nonzero" id="ClipPath">
<path d="M-25.7602 561.45L139.292 561.45L139.292 439.692L-25.7602 439.692L-25.7602 561.45Z"/>
</clipPath>
<g clip-path="url(#ClipPath)">
<g opacity="1" vectornator:layerName="path">
<clipPath clip-rule="nonzero" id="ClipPath_2">
<path d="M-25.7602 561.45L139.292 561.45L139.292 439.692L-25.7602 439.692L-25.7602 561.45Z"/>
</clipPath>
<g clip-path="url(#ClipPath_2)">
<path d="M-22.2801 468.845C-25.3149 463.081-26.7897 456.372-23.8229 450.163C-21.0154 444.285-14.7549 440.213-8.23115 440.021C3.00775 439.69 11.522 449.379 20.0517 456.688C30.2296 465.409 45.4205 471.545 56.7782 464.419C60.4965 462.086 63.3258 458.581 66.8578 455.975C74.8293 450.093 87.9913 448.884 94.2581 456.55C102.05 466.08 94.7623 468.75 101.684 477.585C109.64 487.74 120.373 484.924 128.119 495.238C133.673 502.634 137.311 511.45 138.584 520.604C139.313 525.837 139.206 531.456 136.552 536.028C132.205 543.519 122.547 545.94 113.883 546.402C98.3329 547.233 81.8837 544.218 67.7538 550.75C62.4882 553.183 57.829 556.852 52.4029 558.906C45.0544 561.687 36.9293 561.291 29.0901 560.717C19.9502 560.049 10.6819 559.162 2.14194 555.845C-6.39803 552.527-14.2488 546.436-17.705 537.967C-23.5146 523.73-15.0376 510.309-14.8038 496.085C-14.744 492.453-15.2052 488.882-15.7685 485.303C-16.1796 482.688-17.1893 480.248-17.7224 477.69C-17.9677 476.513-18.3993 475.342-19.0159 474.333C-19.5298 473.493-20.0475 472.569-20.5889 471.73C-21.1895 470.802-21.7579 469.837-22.2801 468.845Z" fill="none" opacity="1" stroke="#b8b3ab" stroke-dasharray="2.00600004196167,4.013000011444092,2.00600004196167,4.013000011444092" stroke-linecap="round" stroke-linejoin="round" stroke-width="1" vectornator:layerName="path"/>
</g>
</g>
<g opacity="1" vectornator:layerName="path">
<clipPath clip-rule="nonzero" id="ClipPath_3">
<path d="M-12.3093 555.387L124.556 555.387L124.556 454.393L-12.3093 454.393L-12.3093 555.387Z"/>
</clipPath>
<g clip-path="url(#ClipPath_3)">
<path d="M-9.37077 478.603C-11.8854 473.828-13.107 468.269-10.6489 463.124C-8.32255 458.254-3.13536 454.88 2.26956 454.721C11.5816 454.446 18.6366 462.475 25.7031 468.531C34.1364 475.757 46.7229 480.84 56.1338 474.936C59.2143 473.003 61.5586 470.099 64.4849 467.94C71.0897 463.066 81.1904 462.815 87.1875 468.417C89.7863 470.843 91.4511 474.072 93.4666 476.999C99.528 485.8 108.825 491.926 115.244 500.471C119.846 506.599 122.859 513.904 123.915 521.488C124.518 525.825 124.43 530.48 122.231 534.269C118.629 540.475 110.627 542.481 103.448 542.864C90.5635 543.552 76.9352 541.054 65.2274 546.466C60.865 548.483 57.0041 551.522 52.5087 553.223C46.4197 555.528 39.6872 555.2 33.1923 554.725C25.619 554.171 17.9403 553.436 10.8641 550.687C3.78795 547.938-2.71658 542.892-5.57994 535.875C-10.3933 524.079-3.3698 512.959-3.17583 501.174C-3.12701 498.164-3.50854 495.205-3.97548 492.24C-4.31654 490.073-5.15281 488.051-5.59471 485.932C-5.79768 484.957-6.15544 483.986-6.66671 483.15C-7.09191 482.455-7.52096 481.688-7.96992 480.994C-8.46706 480.225-8.93787 479.426-9.37077 478.603Z" fill="none" opacity="1" stroke="#b8b3ab" stroke-linecap="round" stroke-linejoin="round" stroke-width="1" vectornator:layerName="path"/>
</g>
</g>
<g opacity="1" vectornator:layerName="path">
<clipPath clip-rule="nonzero" id="ClipPath_4">
<path d="M-2.0701 549.324L109.82 549.324L109.82 465.759L-2.0701 465.759L-2.0701 549.324Z"/>
</clipPath>
<g clip-path="url(#ClipPath_4)">
<path d="M3.53848 488.362C1.54415 484.575-3.24031 476.829-1.29159 472.748C0.553732 468.885 4.66764 466.21 8.95432 466.083C16.3394 465.866 22.7598 475.841 28.3645 480.644C35.0527 486.375 48.0252 490.136 55.4887 485.454C57.9326 483.92 59.7914 481.617 62.112 479.905C67.35 476.04 75.3607 475.841 80.1175 480.283C82.178 482.208 83.4986 484.769 85.0973 487.09C89.9042 494.069 97.2778 498.927 102.367 505.704C106.017 510.564 108.407 516.358 109.244 522.373C109.723 525.812 109.653 529.504 107.909 532.509C105.052 537.431 98.7062 539.022 93.0129 539.325C82.7946 539.872 71.9854 537.891 62.701 542.182C59.241 543.782 56.1792 546.192 52.6138 547.542C47.785 549.37 42.4456 549.109 37.2944 548.732C31.2882 548.293 25.198 547.71 19.5863 545.53C13.9752 543.35 8.81559 539.348 6.54507 533.783C2.72726 524.427 8.2979 515.609 8.45141 506.262C8.49059 503.875 8.18742 501.528 7.81746 499.177C7.54705 497.458 6.88356 495.855 6.53351 494.174C6.37229 493.4 6.0884 492.631 5.68311 491.968C5.3459 491.416 5.00549 490.808 4.64965 490.258C4.25528 489.647 3.88147 489.014 3.53848 488.362Z" fill="none" opacity="1" stroke="#b8b3ab" stroke-linecap="round" stroke-linejoin="round" stroke-width="1" vectornator:layerName="path"/>
</g>
</g>
<g opacity="1" vectornator:layerName="path">
<clipPath clip-rule="nonzero" id="ClipPath_5">
<path d="M14.5925 543.26L95.0836 543.26L95.0836 483.797L14.5925 483.797L14.5925 543.26Z"/>
</clipPath>
<g clip-path="url(#ClipPath_5)">
<path d="M16.4477 498.12C14.9737 495.321 14.2575 492.063 15.6982 489.047C17.0624 486.192 20.1024 484.215 23.2709 484.121C28.7291 483.96 32.8648 488.667 37.007 492.216C41.9501 496.452 49.3275 499.432 54.8442 495.971C56.6497 494.838 58.0236 493.135 59.7391 491.87C63.6103 489.013 69.531 488.866 73.0469 492.149C74.5698 493.571 75.5454 495.464 76.7272 497.18C80.2798 502.339 85.7297 505.93 89.4916 510.938C92.1892 514.53 93.9556 518.812 94.5741 523.258C94.928 525.8 94.876 528.528 93.5875 530.749C91.4763 534.388 86.7856 535.563 82.5779 535.787C75.0252 536.191 67.0369 534.727 60.1746 537.899C57.617 539.081 55.3542 540.862 52.7188 541.86C49.1503 543.211 45.204 543.018 41.3965 542.74C36.9575 542.415 32.4563 541.984 28.309 540.373C24.1611 538.762 20.3484 535.804 18.6694 531.691C15.8485 524.776 19.9656 518.258 20.0786 511.35C20.1075 509.586 19.884 507.851 19.6104 506.114C19.4107 504.844 18.9199 503.659 18.6611 502.416C18.5423 501.845 18.3329 501.276 18.0329 500.785C17.7837 500.377 17.5319 499.929 17.2692 499.522C16.9776 499.07 16.7014 498.602 16.4477 498.12Z" fill="none" opacity="1" stroke="#b8b3ab" stroke-linecap="round" stroke-linejoin="round" stroke-width="1" vectornator:layerName="path"/>
</g>
</g>
<g opacity="1" vectornator:layerName="path">
<clipPath clip-rule="nonzero" id="ClipPath_6">
<path d="M28.0434 537.197L80.3467 537.197L80.3467 498.5L28.0434 498.5L28.0434 537.197Z"/>
</clipPath>
<g clip-path="url(#ClipPath_6)">
<path d="M29.3571 507.879C28.4039 506.068 27.9402 503.96 28.8721 502.008C29.7546 500.162 31.722 498.882 33.7716 498.821C37.3029 498.717 39.0557 505.32 41.7354 507.616C44.9334 510.357 49.7069 512.285 53.2762 510.046C54.4445 509.312 55.3334 508.211 56.4427 507.392C58.9476 505.544 63.7013 501.891 65.9763 504.015C66.9616 504.936 67.593 506.16 68.3573 507.271C70.6561 510.609 74.1823 512.931 76.6159 516.171C78.361 518.496 79.5043 521.266 79.9045 524.143C80.1331 525.787 80.0997 527.553 79.266 528.989C77.8999 531.343 74.865 532.104 72.143 532.249C67.2564 532.51 62.0878 531.563 57.6476 533.615C55.9931 534.38 54.5293 535.533 52.8246 536.178C50.5149 537.052 47.9618 536.927 45.4986 536.748C42.6269 536.537 39.7141 536.259 37.0312 535.216C34.3477 534.173 31.8806 532.26 30.7945 529.599C28.9691 525.125 31.6327 520.908 31.7066 516.438C31.7252 515.297 31.58 514.175 31.4034 513.05C31.2737 512.228 30.957 511.462 30.7894 510.658C30.7123 510.288 30.5761 509.92 30.3828 509.602C30.2216 509.339 30.0584 509.049 29.8889 508.785C29.7 508.493 29.5215 508.19 29.3571 507.879Z" fill="none" opacity="1" stroke="#b8b3ab" stroke-linecap="round" stroke-linejoin="round" stroke-width="1" vectornator:layerName="path"/>
</g>
</g>
</g>
</g>
<path d="M215.256 481.294C213.017 480.92 210.733 480.239 208.416 479.242C190.511 471.535 187.164 453.771 178.024 438.556C175.902 435.024 173.51 431.679 170.665 428.686C159.567 417.011 141.124 412.07 134.104 396.619C130.76 389.261 131.205 379.775 136.831 373.964C142.505 368.102 151.634 367.335 159.759 368.173C167.884 369.012 176.103 371.073 184.112 369.475C196.009 367.101 204.959 357.259 210.87 347.251C217.218 336.502 217.863 325.184 220.779 313.347C223.008 304.3 227.508 295.588 234.684 289.627C241.86 283.666 251.921 280.808 260.86 283.5C269.056 285.968 275.456 292.612 283.604 295.235C300.762 300.758 311.274 284.992 324.78 277.952C333.144 273.592 344.383 270.586 353.778 270.626C360.979 270.657 368.524 273.151 372.989 278.789C375.844 282.393 377.21 286.941 378.138 291.441C378.788 294.599 379.244 297.939 378.227 300.999C377.521 303.124 376.153 304.958 374.751 306.704C370.979 311.4 366.384 315.321 362.658 320.018C349.496 336.604 355.371 362.102 357.059 381.366C357.318 384.318 357.521 387.337 356.794 390.211C354.671 398.603 344.155 405.941 336.004 407.824C324.354 410.515 312.269 406.353 300.443 407.139C291.823 407.713 283.101 410.183 276.381 415.602C258.123 430.325 254.466 457.335 237.656 473.571C231.088 479.914 223.466 482.664 215.256 481.294Z" fill="none" opacity="1" stroke="#908c86" stroke-linecap="butt" stroke-linejoin="miter" stroke-width="1" vectornator:layerName="path"/>
<path d="M-48.4304 321.031C-45.9357 315.29-42.3761 310.226-37.5454 306.251C-25.2763 296.158-3.25964 282.864 13.1722 285.188C32.2548 287.887 43.8265 309.12 62.4447 314.092C71.8608 316.607 81.86 314.602 91.5722 315.435C101.284 316.267 112.112 321.693 113.395 331.334C114.347 338.479 109.684 345.098 104.795 350.405C99.906 355.712 94.3019 360.978 92.648 367.995C90.1867 378.442 97.2957 389.519 94.3482 399.84C92.0256 407.972 82.9185 413.529 74.6046 411.886C67.2337 410.429 61.7748 404.457 55.6145 400.164C44.6512 392.523 30.2451 390.019 17.3375 393.511C7.0293 396.299-1.95899 402.562-11.8587 406.561C-16.3169 408.362-21.2009 409.715-25.9057 408.716C-32.9318 407.222-37.8312 400.929-41.3247 394.667C-51.7125 376.047-58.1471 343.395-48.4304 321.031Z" fill="none" opacity="1" stroke="#908c86" stroke-linecap="butt" stroke-linejoin="miter" stroke-width="1" vectornator:layerName="path"/>
<path d="M-8.59173 350.889C-8.58724 351.028-8.58338 351.167-8.57889 351.305C-8.38427 357.671-5.33657 363.253 0.594389 366.095C1.85714 366.7 3.06659 367.441 4.39229 367.895C5.89076 368.407 7.39695 368.871 8.93846 369.234C10.7369 369.657 12.2745 369.836 14.1372 369.765C15.6299 369.708 16.8907 368.669 17.8009 367.57C22.7363 361.61 17.0044 351.833 15.8521 345.602C14.8951 340.428 15.9973 335.109 15.8464 329.85C15.6948 324.589 13.7627 318.748 8.97764 316.534C3.37553 313.942-3.50731 317.846-6.34948 323.315C-9.19228 328.785-9.07024 335.253-8.88205 341.41C-8.78506 344.57-8.68808 347.729-8.59173 350.889Z" fill="none" opacity="1" stroke="#b8b3ab" stroke-dasharray="2.0,4.0,2.0,4.0" stroke-linecap="butt" stroke-linejoin="miter" stroke-width="1" vectornator:layerName="path"/>
<path d="M-11.6734 314.603C-11.4878 314.618-11.2983 314.589-11.1364 314.507C-10.5699 314.22-10.2758 313.6-9.94242 313.06C-7.58069 309.241-2.30423 308.639 2.18671 308.895C7.27562 309.185 12.7859 310.293 16.0661 314.186C19.1973 317.9 19.4818 323.129 20.3367 327.906C21.534 334.592 24.1423 341.022 27.9229 346.668C31.3245 351.749 36.1154 356.011 37.6723 362.144C38.2375 364.371 38.2253 366.323 38.233 368.604C38.2388 370.494 38.3698 372.466 37.6524 374.262C34.9168 381.112 29.1953 382.127 22.6284 381.419C13.2368 380.406 3.85668 380.084-5.57095 380.851C-7.35075 380.996-9.16524 381.172-10.9039 380.766C-14.1495 380.006-16.6159 377.323-18.2467 374.422C-22.3689 367.09-22.2918 358.171-21.3631 349.816C-19.9931 337.495-17.0083 325.355-12.5077 313.801C-12.5765 314.248-12.1371 314.563-11.6734 314.603Z" fill="none" opacity="1" stroke="#b8b3ab" stroke-linecap="butt" stroke-linejoin="miter" stroke-width="1" vectornator:layerName="path"/>
<path d="M-19.7877 311.732C-14.6327 302.595-2.98783 297.231 7.23496 300.051C15.3883 302.302 21.6731 308.754 26.7132 315.532C31.7533 322.311 36.0497 329.755 42.2754 335.469C47.9867 340.71 55.2588 344.44 59.5551 350.888C63.2599 356.447 64.2599 363.717 62.1943 370.066C60.1281 376.416 55.0398 381.713 48.7684 384.042C40.3762 387.159 31.0699 385.009 22.115 385.038C12.2686 385.069 2.446 387.861-5.93853 393.01C-7.63291 394.05-9.34335 395.214-11.3133 395.49C-15.4458 396.072-18.2456 390.757-20.1622 387.881C-22.7256 384.036-23.9305 379.722-24.5009 375.192C-25.2864 368.951-25.7071 362.687-25.6891 356.398C-25.6802 353.341-25.7264 350.283-25.7071 347.226C-25.6859 343.765-25.1059 340.64-24.3442 337.276C-22.7205 330.11-23.7854 322.546-21.4622 315.51C-21.0274 314.192-20.4634 312.93-19.7877 311.732Z" fill="none" opacity="1" stroke="#b8b3ab" stroke-linecap="butt" stroke-linejoin="miter" stroke-width="1" vectornator:layerName="path"/>
<path d="M67.7032 325.356C67.9627 325.376 68.2221 325.403 68.4791 325.43C75.121 326.132 80.9672 326.143 87.6002 325.797C89.3171 325.708 91.1046 325.691 92.6718 326.396C94.3219 327.137 95.5435 328.605 96.41 330.19C97.4203 332.036 98.0305 334.163 97.7562 336.248C97.4819 338.333 96.2186 340.349 94.2852 341.189C92.0931 342.142 89.5779 341.48 87.2457 340.953C79.9466 339.305 64.8225 342.106 62.473 332.211C61.8352 329.525 63.0138 326.156 65.6934 325.468C66.3473 325.3 67.0262 325.304 67.7032 325.356Z" fill="none" opacity="1" stroke="#b8b3ab" stroke-linecap="butt" stroke-linejoin="miter" stroke-width="1" vectornator:layerName="path"/>
<path d="M-3.52678 338.579C-3.56082 338.658-3.59422 338.736-3.62954 338.814C-4.56601 343.272-4.51655 348.208-2.03601 352.031C0.635303 356.15 8.37176 359.128 10.5446 353.458C12.5197 348.306 7.8971 341.76 8.92349 336.34C9.3564 334.057 10.228 331.745 9.73279 329.474C9.14509 326.782 6.63628 324.776 3.929 324.229C2.49668 323.94 0.880018 324.044-0.239504 324.981C-1.94801 326.409-1.80992 329-1.88571 331.223C-1.97242 333.747-2.5325 336.255-3.52678 338.579Z" fill="none" opacity="1" stroke="#b8b3ab" stroke-linecap="butt" stroke-linejoin="miter" stroke-width="1" vectornator:layerName="path"/>
<path d="M60.0652 391.525C60.4525 391.962 61.1623 392.239 61.7577 392.439C64.6365 393.399 66.9757 395.479 69.2738 397.457C71.5726 399.436 74.0288 401.421 76.982 402.122C79.936 402.822 83.5148 401.834 84.8559 399.117C85.9311 396.937 85.3351 394.354 84.9054 391.963C84.1192 387.585 83.9747 383.094 84.4776 378.675C84.626 377.374 84.8277 376.035 84.4776 374.773C84.1276 373.511 83.0453 372.34 81.7331 372.364C79.6058 372.403 78.785 375.11 78.5672 377.222C78.1427 381.344 78.5878 385.389 74.4398 387.615C70.6554 389.633 66.1394 389.215 61.9343 389.473C61.0325 389.528 59.8783 389.809 59.7839 390.705C59.7499 391.029 59.8642 391.298 60.0652 391.525Z" fill="none" opacity="1" stroke="#b8b3ab" stroke-linecap="butt" stroke-linejoin="miter" stroke-width="1" vectornator:layerName="path"/>
<path d="M88.7613 397.276C88.7741 396.634 88.7388 395.987 88.7035 395.346C88.4113 390.107 88.119 384.866 87.8268 379.626C87.6444 376.351 87.372 372.834 85.2923 370.295C84.0199 368.742 81.9157 367.684 79.983 368.239C78.1756 368.757 76.9925 370.51 76.381 372.285C75.7689 374.06 75.5698 375.961 74.8845 377.709C73.5479 381.116 69.7763 384.363 65.9463 384.466C64.1517 384.513 62.3424 384.472 60.5465 384.453C56.1892 384.407 53.1537 388.694 55.2585 392.69C56.4718 394.993 58.7744 396.486 60.9884 397.862C65.8814 400.902 70.9851 403.935 76.6836 404.805C79.0453 405.166 81.5239 405.13 83.7463 404.254C85.9686 403.378 87.9 401.568 88.5108 399.264C88.6823 398.615 88.7478 397.948 88.7613 397.276Z" fill="none" opacity="1" stroke="#b8b3ab" stroke-linecap="butt" stroke-linejoin="miter" stroke-width="1" vectornator:layerName="path"/>
<path d="M-35.8724 450.512C-34.1074 438.724-23.1562 429.621-11.3605 427.731C0.435291 425.841 12.5811 430.164 22.2592 437.151C29.7086 442.53 36.7475 449.78 45.9156 450.48C54.9887 451.172 63.0303 445.186 71.612 442.168C82.7873 438.237 96.061 439.699 105.275 447.131C116.218 455.956 119.949 471.16 129.913 481.072C135.054 486.187 141.773 489.804 145.793 495.837C148.585 500.027 149.826 505.027 151.018 509.916C152.487 515.946 153.958 521.975 155.428 528.007" fill="none" opacity="1" stroke="#b8b3ab" stroke-linecap="butt" stroke-linejoin="miter" stroke-width="1" vectornator:layerName="path"/>
<path d="M-26.4305 427.737C-19.5785 422.821-10.7643 421.035-2.36692 421.876C6.03111 422.719 14.0393 426.039 21.1925 430.507C29.3118 435.58 36.9808 442.355 46.49 443.512C54.6035 444.499 62.5288 441.177 70.246 438.489C76.8314 436.195 83.6436 434.31 90.6145 434.072C97.5859 433.833 104.778 435.352 110.477 439.365C117.479 444.297 121.517 462.738 126.642 469.594C133.679 479.008 141.378 468.915 150.429 481.275C159.765 494.025 161.043 523.173 158.604 534.662" fill="none" opacity="1" stroke="#b8b3ab" stroke-linecap="butt" stroke-linejoin="miter" stroke-width="1" vectornator:layerName="path"/>
<path d="M44.6495 425.255C40.6044 423.524 37.0088 420.887 33.7074 417.982C31.8903 416.384 30.1215 414.678 27.9723 413.564C25.4147 412.238 22.4646 411.829 19.8755 410.564C17.2864 409.299 14.9523 406.65 15.5278 403.831C15.946 401.783 17.8041 400.292 19.7805 399.601C23.9188 398.153 28.5048 399.517 32.4787 401.367C39.6891 404.724 46.06 409.642 53.1189 413.306C60.1771 416.969 68.4441 419.365 76.0829 417.144C78.7073 416.381 81.1577 415.101 83.7821 414.339C85.3429 413.886 86.9518 413.62 88.5601 413.387C90.1851 413.152 91.8879 412.956 93.4319 413.513C94.976 414.069 96.2882 415.618 96.0127 417.232C95.793 418.517 94.6401 419.481 93.3973 419.883C92.1544 420.287 90.8172 420.238 89.5107 420.221C83.1051 420.131 76.6899 420.868 70.4686 422.392C67.2635 423.177 64.1098 424.17 61.0358 425.366C59.0286 426.147 57.1724 427.138 54.9931 427.268C51.4823 427.476 47.8585 426.629 44.6495 425.255Z" fill="none" opacity="1" stroke="#b8b3ab" stroke-linecap="butt" stroke-linejoin="miter" stroke-width="1" vectornator:layerName="path"/>
<path d="M26.0085 408.86C24.9346 408.675 23.8221 408.575 22.8413 408.101C21.8606 407.627 21.0198 406.659 21.0892 405.574C21.1849 404.063 22.8805 403.194 24.3822 402.975C29.0909 402.291 33.6287 404.957 37.2763 408.006C40.9239 411.054 44.2639 414.664 48.6527 416.498C50.0008 417.061 51.4762 417.477 52.5097 418.508C53.5431 419.539 53.8604 421.476 52.7011 422.364C52.1622 422.777 51.446 422.864 50.7665 422.894C45.9402 423.112 40.5931 421.376 38.3496 416.988C36.0977 412.583 30.7557 409.678 26.0085 408.86Z" fill="none" opacity="1" stroke="#b8b3ab" stroke-linecap="butt" stroke-linejoin="miter" stroke-width="1" vectornator:layerName="path"/>
<path d="M413.985 355.139C411.361 357.848 408.233 360.59 404.457 360.688C401.161 360.774 398.144 358.77 395.898 356.36C393.652 353.951 391.938 351.088 389.698 348.672C386.623 345.357 382.666 343 379.27 340.013C375.874 337.025 372.908 333.022 372.912 328.505C372.919 319.595 383.574 314.742 387.408 306.695C390.128 300.984 389.122 294.304 389.608 287.999C389.839 285.007 390.704 281.638 393.372 280.253C395.824 278.98 398.925 279.947 401.055 281.703C403.184 283.46 404.63 285.881 406.336 288.049C410.517 293.365 416.463 297.274 423.009 299.01C429.07 300.618 435.86 300.526 440.924 304.217C446.2 308.064 448.124 315.849 445.244 321.702C441.867 328.562 434.248 329.748 429.645 334.844C423.959 341.139 420.011 348.917 413.985 355.139Z" fill="none" opacity="1" stroke="#b8b3ab" stroke-dasharray="1.9950000047683716,3.991000175476074,1.9950000047683716,3.991000175476074" stroke-linecap="round" stroke-linejoin="round" stroke-width="1" vectornator:layerName="path"/>
<path d="M406.801 353.02C403.896 353.764 400.829 352.341 398.581 350.361C396.331 348.381 394.632 345.857 392.502 343.75C389.584 340.863 385.888 338.784 383.281 335.614C380.674 332.446 379.475 327.462 382.167 324.364C383.885 322.388 386.656 321.748 388.851 320.315C394.209 316.816 395.187 309.383 394.572 303.023C394.335 300.572 393.948 298.045 394.665 295.689C395.38 293.332 397.616 291.208 400.057 291.576C401.826 291.842 403.148 293.271 404.415 294.533C409.304 299.399 415.547 302.896 422.256 304.527C426.543 305.569 431.215 305.954 434.709 308.64C440.06 312.754 440.139 322.001 434.859 326.204C430.781 329.45 424.781 329.62 420.956 333.159C415.792 337.938 414.158 351.138 406.801 353.02Z" fill="none" opacity="1" stroke="#b8b3ab" stroke-linecap="butt" stroke-linejoin="miter" stroke-width="1" vectornator:layerName="path"/>
<path d="M388.529 328.995C389.4 325.134 393.603 323.091 395.863 319.839C398.464 316.096 398.254 311.164 398.086 306.613C398.031 305.117 398.051 303.453 399.073 302.358C400.168 301.183 402.078 301.124 403.56 301.747C405.042 302.37 406.215 303.533 407.411 304.605C410.824 307.663 414.83 310.227 419.322 311.156C422.706 311.855 426.917 312.021 428.463 315.104C429.767 317.705 428.149 320.937 425.834 322.706C423.52 324.475 420.629 325.29 418.068 326.682C414.221 328.773 411.213 332.198 409.525 336.218C408.211 339.345 408.667 344.085 404.697 344.849C398.48 346.045 387.173 335.001 388.529 328.995Z" fill="none" opacity="1" stroke="#b8b3ab" stroke-linecap="butt" stroke-linejoin="miter" stroke-width="1" vectornator:layerName="path"/>
<path d="M400.972 326.527C401.787 325.374 402.736 324.272 403.168 322.928C403.623 321.512 403.454 319.985 403.408 318.5C403.362 317.014 403.479 315.42 404.384 314.239C405.289 313.058 407.232 312.579 408.281 313.636C408.767 314.125 408.977 314.837 409.473 315.316C411.011 316.801 414.003 315.144 415.565 316.603C415.946 316.96 416.17 317.459 416.289 317.968C416.948 320.813 414.535 323.437 412.064 325.004C409.593 326.57 406.686 327.864 405.349 330.463C402.262 336.464 397.761 331.074 400.972 326.527Z" fill="none" opacity="1" stroke="#b8b3ab" stroke-linecap="butt" stroke-linejoin="miter" stroke-width="1" vectornator:layerName="path"/>
<path d="M240.402 499.01C241.726 491.892 248.25 487.151 252.767 481.485C260.303 472.032 262.556 459.241 269.968 449.691C271.356 447.902 273.126 446.133 275.383 445.906C278.986 445.543 281.659 449.172 282.975 452.539C284.291 455.905 285.346 459.812 288.491 461.604C292.469 463.87 298.655 461.991 301.18 465.806C301.962 466.986 302.142 468.468 302.098 469.882C301.863 477.43 296.151 483.5 291.164 489.181C286.179 494.862 281.316 502.098 283.204 509.411" fill="none" opacity="1" stroke="#b8b3ab" stroke-linecap="butt" stroke-linejoin="miter" stroke-width="1" vectornator:layerName="path"/>
<path d="M245.401 502.045C247.777 496.967 251.809 492.889 255.316 488.512C261.342 480.995 265.959 472.359 268.858 463.179C269.476 461.221 270.032 459.207 271.152 457.486C272.272 455.764 274.09 454.348 276.146 454.295C279.087 454.22 281.351 456.801 282.94 459.27C284.531 461.739 286.169 464.547 288.976 465.426C290.289 465.838 291.745 465.771 292.981 466.374C295.385 467.546 295.999 470.858 295.104 473.374C294.209 475.89 292.236 477.841 290.487 479.862C285.691 485.402 282.229 492.085 280.473 499.194C280.241 500.13 279.051 501.254 278.623 500.387" fill="none" opacity="1" stroke="#b8b3ab" stroke-linecap="butt" stroke-linejoin="miter" stroke-width="1" vectornator:layerName="path"/>
<path d="M253.559 503.721C258.791 496.579 263.427 489.002 267.401 481.093C269.568 476.782 271.631 472.246 275.229 469.025C276.298 468.067 277.683 467.2 279.087 467.505C279.97 467.697 280.683 468.32 281.432 468.825C283.128 469.971 285.184 470.578 287.232 470.538C287.755 470.528 288.326 470.49 288.751 470.794C289.526 471.348 289.266 472.554 288.845 473.408C287.475 476.183 285.298 478.46 283.368 480.88C277.947 487.68 274.34 495.907 273.015 504.495" fill="none" opacity="1" stroke="#b8b3ab" stroke-linecap="butt" stroke-linejoin="miter" stroke-width="1" vectornator:layerName="path"/>
<path d="M262.777 500.612C264.201 496.868 265.793 493.188 267.549 489.587C269.871 484.822 272.637 480.016 277.047 477.065C277.692 476.633 278.792 476.377 279.054 477.106C279.137 477.336 279.088 477.59 279.027 477.827C278.251 480.857 275.895 483.173 273.942 485.619C269.596 491.06 266.942 497.825 266.432 504.763" fill="none" opacity="1" stroke="#b8b3ab" stroke-linecap="butt" stroke-linejoin="miter" stroke-width="1" vectornator:layerName="path"/>
<path d="M122.242 433.449C125.337 439.168 127.411 445.43 130.934 450.898C131.64 451.994 132.466 453.107 133.67 453.612C137.57 455.244 140.598 449.776 144.559 448.299C147.943 447.036 151.77 448.978 154.171 451.672C156.571 454.366 158.039 457.753 160.195 460.645C162.669 463.965 166.058 466.599 169.89 468.18C172.55 469.278 176.162 469.612 177.804 467.254C179.045 465.472 178.499 463.043 177.776 460.997C174.295 451.146 167.714 442.41 159.196 436.335C154.451 432.951 149.128 430.37 144.703 426.579C141.117 423.507 138.224 419.728 135.049 416.235C131.874 412.742 128.281 409.443 123.872 407.744C119.463 406.045 114.079 406.224 110.427 409.215C106.176 412.695 105.982 418.533 110.032 421.592C115.061 425.391 118.938 427.344 122.242 433.449Z" fill="none" opacity="1" stroke="#b8b3ab" stroke-linecap="butt" stroke-linejoin="miter" stroke-width="1" vectornator:layerName="path"/>
<path d="M128.406 414.99C124.953 412.182 120.446 409.983 116.14 411.125C115.382 411.326 114.634 411.638 114.053 412.165C112.705 413.389 112.57 415.546 113.276 417.223C113.981 418.9 115.359 420.193 116.748 421.37C120.399 424.46 124.52 427.245 126.89 431.395C129.768 436.437 129.81 443.092 133.988 447.127C134.513 447.634 135.161 448.109 135.89 448.085C136.714 448.057 137.364 447.416 137.989 446.878C141.348 443.984 146.444 443.285 150.461 445.167C152.992 446.351 154.993 448.396 157.097 450.232C159.202 452.069 161.608 453.792 164.388 454.092C164.68 454.123 164.995 454.134 165.244 453.98C165.417 453.873 165.537 453.699 165.641 453.526C167.145 451.032 166.503 447.702 164.848 445.306C163.193 442.909 160.701 441.242 158.271 439.633C152.012 435.492 145.753 431.35 139.495 427.208C137.006 425.561 136.154 423.674 134.468 421.37C132.731 418.998 130.69 416.846 128.406 414.99Z" fill="none" opacity="1" stroke="#b8b3ab" stroke-linecap="butt" stroke-linejoin="miter" stroke-width="1" vectornator:layerName="path"/>
<path d="M135.18 440.897C134.259 439.75 133.729 438.349 133.143 437.001C131.472 433.157 129.227 429.563 126.505 426.373C125.015 424.626 123.379 422.995 122.043 421.129C121.373 420.194 120.827 418.781 121.684 418.012C122.492 417.287 123.773 417.855 124.637 418.512C127.82 420.932 130.14 424.277 132.62 427.41C135.1 430.543 137.924 433.61 141.63 435.116C143.286 435.788 145.385 436.462 145.673 438.221C145.883 439.504 144.879 440.737 143.673 441.231C142.225 441.825 140.393 442.064 138.916 442.5C137.454 442.931 136.13 442.081 135.18 440.897Z" fill="none" opacity="1" stroke="#908c86" stroke-linecap="butt" stroke-linejoin="miter" stroke-width="1" vectornator:layerName="path"/>
<path d="M172.475 515.234C170.76 507.664 168.341 500.253 165.261 493.127C163.477 489.001 161.44 484.853 161.108 480.372C161.007 479.015 161.145 477.474 162.185 476.592C163.054 475.856 164.342 475.802 165.429 476.145C166.516 476.487 167.458 477.167 168.407 477.797C169.981 478.844 171.626 479.782 173.329 480.603C175.449 481.627 178.245 482.373 179.948 480.751C180.94 479.807 181.414 478.162 182.754 477.876C183.849 477.643 184.85 478.489 185.655 479.263C188.55 482.044 191.536 484.729 194.61 487.31C197.033 489.345 199.687 491.394 202.83 491.789C205.205 492.088 207.681 491.406 209.98 492.076C211.486 492.515 212.78 493.508 213.837 494.665C217.424 498.596 218.396 504.205 218.818 509.503C218.832 509.681 218.823 509.902 218.664 509.982C218.504 510.062 218.336 509.738 218.515 509.725" fill="none" opacity="1" stroke="#b8b3ab" stroke-linecap="butt" stroke-linejoin="miter" stroke-width="1" vectornator:layerName="path"/>
<path d="M176.145 510.327C174.258 506.982 172.53 503.546 171.038 500.008C170.372 498.43 169.754 496.833 169.136 495.236C168.483 493.548 167.83 491.861 167.177 490.174C166.328 487.981 165.469 485.742 165.347 483.395C165.333 483.136 165.333 482.862 165.468 482.641C165.814 482.072 166.688 482.278 167.265 482.612C168.453 483.303 169.474 484.243 170.576 485.065C173.383 487.161 176.757 488.495 180.242 488.887C181.31 489.008 182.596 488.94 183.17 488.034C183.807 487.027 183.326 485.318 184.412 484.822C185.07 484.522 185.818 484.964 186.375 485.424C188.656 487.304 190.349 489.781 192.321 491.98C194.294 494.179 196.727 496.195 199.648 496.658C201.187 496.902 202.781 496.699 204.299 497.046C206.297 497.501 208.042 498.947 208.856 500.824C209.382 502.034 209.529 503.371 209.938 504.624C210.473 506.26 211.446 507.722 212.047 509.335C212.151 509.614 212.023 510.099 211.766 509.95" fill="none" opacity="1" stroke="#b8b3ab" stroke-linecap="butt" stroke-linejoin="miter" stroke-width="1" vectornator:layerName="path"/>
<path d="M181.853 509.354C179.559 505.232 177.264 501.11 174.969 496.989C174.172 495.557 173.348 493.98 173.625 492.365C174.379 491.951 175.287 492.457 176.015 492.916C177.221 493.676 178.514 494.358 179.922 494.585C181.331 494.813 182.882 494.525 183.922 493.551C184.734 492.791 185.502 491.551 186.579 491.828C187.023 491.942 187.352 492.304 187.646 492.654C189.054 494.335 190.391 496.247 192.428 497.067C193.374 497.448 194.411 497.564 195.359 497.94C197.291 498.711 198.642 500.486 199.587 502.334C200.533 504.184 201.177 506.184 202.248 507.963" fill="none" opacity="1" stroke="#b8b3ab" stroke-linecap="butt" stroke-linejoin="miter" stroke-width="1" vectornator:layerName="path"/>
<path d="M187.063 508.231C185.262 506.2 183.892 503.791 183.065 501.208C182.876 500.618 182.714 500.001 182.787 499.387C182.86 498.772 183.216 498.156 183.796 497.937C184.66 497.609 185.565 498.239 186.47 498.431C187.343 498.616 188.249 498.384 189.139 498.441C191.112 498.565 192.727 500.075 193.815 501.722C195.094 503.659 195.896 505.907 196.131 508.215" fill="none" opacity="1" stroke="#b8b3ab" stroke-linecap="butt" stroke-linejoin="miter" stroke-width="1" vectornator:layerName="path"/>
<path d="M222.212 491.538C222.904 491.71 223.609 491.882 224.32 491.834C226.601 491.681 228.099 489.434 230.112 488.353C230.64 488.07 231.306 487.872 231.819 488.18C232.415 488.539 232.482 489.381 232.336 490.06C231.771 492.697 229.276 494.382 227.542 496.449C227.038 497.05 226.566 497.719 225.869 498.081C224.996 498.535 223.913 498.415 223.019 498.003C222.126 497.59 221.383 496.919 220.655 496.259C219.629 495.33 218.605 494.4 217.58 493.471C216.483 492.476 215.856 490.748 217.826 490.469C219.152 490.282 220.933 491.222 222.212 491.538Z" fill="none" opacity="1" stroke="#b8b3ab" stroke-linecap="butt" stroke-linejoin="miter" stroke-width="1" vectornator:layerName="path"/>
<path d="M140.607 458.727C141.347 457.961 141.828 456.986 142.515 456.173C143.734 454.728 145.609 453.856 147.502 453.856C147.998 453.856 148.509 453.918 148.937 454.167C149.691 454.605 150.015 455.502 150.318 456.317C151.548 459.624 153.331 462.725 155.571 465.454C156.155 466.163 156.811 467.026 156.544 467.905C156.331 468.606 155.554 469.024 154.819 469.018C154.085 469.011 153.397 468.664 152.788 468.253C150.594 466.771 149.073 464.382 146.715 463.174C144.245 461.909 141.288 462.154 138.608 461.43C137.852 461.226 136.914 460.592 137.698 459.877C137.965 459.632 138.714 459.786 139.052 459.681C139.65 459.495 140.171 459.178 140.607 458.727Z" fill="none" opacity="1" stroke="#b8b3ab" stroke-linecap="butt" stroke-linejoin="miter" stroke-width="1" vectornator:layerName="path"/>
<path d="M96.4892 404.216C95.3524 405.631 94.3459 407.672 95.3992 409.151C95.9837 409.971 97.0185 410.307 97.9074 410.784C99.9242 411.868 101.38 413.934 101.721 416.194C101.811 416.794 102.023 417.595 102.631 417.575C103.26 417.554 103.399 416.69 103.352 416.064C103.126 413.065 103.152 409.948 104.34 407.183C105.528 404.418 108.119 402.075 111.132 401.97C112.906 401.909 114.605 402.6 116.301 403.121C118.03 403.651 119.812 404.015 121.611 404.202C122.446 404.289 123.383 404.307 124.01 403.751C124.64 403.194 124.732 402.257 124.736 401.417C124.764 396.032 122.95 390.656 119.663 386.385C118.997 385.519 118.196 384.651 117.126 384.421C115.835 384.144 114.513 384.903 113.671 385.917C112.827 386.931 112.335 388.182 111.703 389.339C111.07 390.496 110.219 391.628 108.986 392.103C107.483 392.681 105.813 392.155 104.244 391.793C102.674 391.432 100.803 391.324 99.6801 392.476C98.8085 393.37 98.6859 394.74 98.7103 395.987C98.7764 399.443 98.7642 401.384 96.4892 404.216Z" fill="none" opacity="1" stroke="#b8b3ab" stroke-linecap="butt" stroke-linejoin="miter" stroke-width="1" vectornator:layerName="path"/>
<path d="M98.6877 404.063C99.6011 403.086 100.744 402.204 101.1 400.916C101.364 399.961 101.143 398.95 101.094 397.961C101.046 396.973 101.25 395.849 102.074 395.297C102.531 394.991 103.105 394.918 103.655 394.912C105.757 394.891 108.139 395.666 109.783 394.359C111.148 393.276 111.435 391.089 113.008 390.337C114.037 389.846 115.31 390.181 116.216 390.874C117.122 391.566 117.739 392.56 118.335 393.53C119.235 394.996 120.16 396.534 120.298 398.247C120.333 398.695 120.309 399.165 120.09 399.557C119.549 400.528 118.181 400.557 117.073 400.437C114.091 400.115 111.039 399.639 108.122 400.342C105.206 401.045 102.413 403.291 102.152 406.273C101.956 408.511 101.777 410.974 99.2953 409.104C97.3228 407.617 96.8052 406.077 98.6877 404.063Z" fill="none" opacity="1" stroke="#b8b3ab" stroke-linecap="butt" stroke-linejoin="miter" stroke-width="1" vectornator:layerName="path"/>
<path d="M102.608 363.032C103.633 359.047 106.078 355.365 109.593 353.214C111.394 352.111 113.43 351.422 115.193 350.262C117.544 348.715 119.334 346.337 120.166 343.653C120.975 341.043 120.888 338.252 121.273 335.548C121.55 333.603 122.074 331.693 122.829 329.879C123.157 329.092 123.6 328.254 124.399 327.956C125.116 327.69 125.948 327.952 126.525 328.451C127.104 328.949 127.467 329.649 127.756 330.355C128.928 333.215 129.082 336.369 129.533 339.427C129.984 342.484 130.836 345.662 133.04 347.833C134.512 349.283 136.489 350.177 137.832 351.747C139.352 353.522 139.845 356.23 138.703 358.266C137.476 360.454 134.837 361.382 133.011 363.102C130.04 365.902 129.576 370.35 128.276 374.215C127.892 375.356 127.348 376.555 126.283 377.122C125.071 377.77 123.537 377.381 122.386 376.632C121.234 375.882 120.328 374.816 119.258 373.954C118.188 373.093 116.826 372.417 115.475 372.675C114.517 372.857 113.711 373.479 112.945 374.081C111.962 374.854 110.98 375.627 109.997 376.4C108.453 377.616 106.924 378.303 105.104 377.169C104.043 376.509 103.1 375.558 102.724 374.356C101.639 370.887 101.714 366.509 102.608 363.032Z" fill="none" opacity="1" stroke="#b8b3ab" stroke-linecap="butt" stroke-linejoin="miter" stroke-width="1" vectornator:layerName="path"/>
<path d="M104.789 363.894C105.555 360.73 107.3 357.5 110.337 356.31C111.768 355.748 113.348 355.697 114.823 355.263C117.03 354.615 118.889 353.152 120.688 351.721C121.27 351.259 121.864 350.781 122.242 350.142C122.596 349.543 122.733 348.845 122.864 348.162C123.358 345.589 123.853 343.015 124.348 340.441C124.405 340.147 124.489 339.813 124.757 339.676C125.231 339.435 125.698 340.014 125.895 340.507C127.213 343.812 127.38 347.675 129.65 350.418C130.998 352.048 133.121 353.409 133.145 355.521C133.161 356.89 132.231 358.088 131.206 358.998C130.181 359.908 128.998 360.677 128.21 361.797C127.111 363.358 126.939 365.362 126.688 367.253C126.437 369.145 125.99 371.17 124.552 372.428C124.216 372.722 123.805 372.973 123.359 372.968C122.828 372.962 122.374 372.604 121.979 372.25C120.986 371.359 120.068 370.376 118.97 369.619C117.872 368.862 116.538 368.339 115.216 368.523C111.697 369.012 110.115 375.076 106.637 374.628C102.776 374.13 104.219 366.248 104.789 363.894Z" fill="none" opacity="1" stroke="#b8b3ab" stroke-dasharray="1.9739999771118164,3.947999954223633,1.9739999771118164,3.947999954223633" stroke-linecap="round" stroke-linejoin="round" stroke-width="1" vectornator:layerName="path"/>
<path d="M106.163 368.175C106.139 368.578 106.134 369.03 106.411 369.324C106.887 369.828 107.73 369.468 108.288 369.054C110.585 367.35 112.492 365.075 115.075 363.844C115.848 363.476 116.736 363.207 117.554 363.46C118.372 363.713 118.943 364.424 119.552 365.024C120.161 365.624 120.987 366.172 121.817 365.964C122.944 365.682 123.285 364.298 123.638 363.194C124.096 361.76 124.913 360.443 125.994 359.392C126.5 358.901 127.07 358.459 127.434 357.856C128.042 356.848 127.964 355.553 127.571 354.444C127.238 353.505 126.53 352.538 125.532 352.508C124.828 352.487 124.193 352.953 123.762 353.508C123.331 354.064 123.045 354.718 122.648 355.298C121.224 357.384 118.587 358.248 116.101 358.718C113.904 359.134 110.409 359.158 108.504 360.48C106.347 361.979 106.295 365.859 106.163 368.175Z" fill="none" opacity="1" stroke="#b8b3ab" stroke-linecap="butt" stroke-linejoin="miter" stroke-width="1" vectornator:layerName="path"/>
<path d="M34.6231 318.668C35.7728 320.169 37.1119 321.514 38.3304 322.96C39.4666 324.307 40.5091 325.752 41.8566 326.89C43.2041 328.027 44.9415 328.843 46.695 328.643C46.8492 328.625 47.011 328.595 47.1273 328.493C47.2782 328.359 47.311 328.141 47.3315 327.941C47.496 326.318 47.4401 324.672 47.1665 323.064C47.0219 322.212 46.8254 321.291 47.2146 320.52C47.7503 319.458 49.1235 319.175 50.3131 319.11C51.5026 319.045 52.8328 319.019 53.671 318.174C54.4244 317.416 54.5162 316.165 54.0814 315.19C53.6466 314.215 52.7718 313.493 51.8212 313.004C49.7035 311.916 47.2281 311.861 44.8857 311.43C40.7094 310.661 36.8184 308.619 33.6866 305.776C32.9422 305.1 32.296 304.047 31.2658 304.718C30.6537 305.115 30.1681 306.5 30.066 307.194C29.8354 308.761 30.725 310.712 31.2022 312.169C31.9691 314.505 33.1265 316.715 34.6231 318.668Z" fill="none" opacity="1" stroke="#b8b3ab" stroke-linecap="butt" stroke-linejoin="miter" stroke-width="1" vectornator:layerName="path"/>
<path d="M40.6624 321.358C41.299 320.841 41.2469 319.873 41.1326 319.062C41.0183 318.25 40.9528 317.287 41.5764 316.754C42.0421 316.358 42.7197 316.364 43.3312 316.397C44.0088 316.433 44.8521 316.383 45.1315 315.765C45.4051 315.16 44.8945 314.484 44.3364 314.122C43.1513 313.353 41.6516 313.213 40.2488 313.389C39.2166 313.519 38.0971 313.793 37.1876 313.289C36.7714 313.059 36.4535 312.689 36.079 312.395C35.1625 311.678 34.0609 312.002 34.1849 313.188C34.2575 313.887 35.429 315.413 35.8189 316.046C37.0823 318.098 38.731 319.913 40.6624 321.358Z" fill="none" opacity="1" stroke="#b8b3ab" stroke-linecap="butt" stroke-linejoin="miter" stroke-width="1" vectornator:layerName="path"/>
<path d="M-3.73154 296.918C-3.08539 295.938-1.80529 295.617-0.636957 295.485C3.36455 295.033 7.44698 295.877 11.1338 297.492C14.8205 299.108 18.1374 301.474 21.1716 304.114C21.6983 304.572 22.232 305.049 22.8839 305.299C23.5365 305.549 24.3452 305.523 24.8551 305.047C25.1718 304.753 25.3336 304.325 25.412 303.9C25.8725 301.397 23.8011 299.176 21.749 297.665C16.2541 293.619 9.56592 291.205 2.7473 290.807C1.85451 290.755 0.941165 290.739 0.0856262 291.002C-1.46231 291.477-2.77323 292.841-4.38989 292.739C-4.55047 292.728-4.70398 292.924-4.61277 293.055C-4.52092 293.187-4.25565 293.014-4.36677 292.898" fill="none" opacity="1" stroke="#b8b3ab" stroke-linecap="butt" stroke-linejoin="miter" stroke-width="1" vectornator:layerName="path"/>
<path d="M55.8878 326.912C55.3945 329.444 56.0111 332.077 57.0202 334.452C58.7049 338.416 61.5053 341.901 65.0174 344.402C66.7587 345.642 68.6656 346.644 70.362 347.944C72.0583 349.244 73.576 350.921 74.1374 352.981C74.438 354.085 74.4495 355.244 74.6242 356.375C74.8542 357.858 75.3854 359.326 76.3552 360.473C77.3257 361.62 78.7715 362.415 80.2764 362.394C82.897 362.358 84.8907 359.997 85.9653 357.613C87.0392 355.227 87.6198 352.56 89.2757 350.532C92.1782 346.979 97.5459 346.361 100.718 343.044C102.804 340.862 103.675 337.701 103.459 334.692C103.244 331.685 102.029 328.817 100.414 326.267C99.7534 325.225 99.0141 324.215 98.0661 323.424C96.3216 321.967 94.0081 321.366 91.7434 321.153C87.8652 320.789 83.9716 321.441 80.0786 321.596C74.8156 321.807 69.3137 321.569 64.0585 321.256C62.1142 321.141 60.8817 320.759 59.1038 321.98C57.4537 323.114 56.2693 324.954 55.8878 326.912Z" fill="none" opacity="1" stroke="#b8b3ab" stroke-linecap="butt" stroke-linejoin="miter" stroke-width="1" vectornator:layerName="path"/>
<path d="M76.5442 349.961C77.2539 351.643 77.4723 353.487 78.026 355.227C78.4338 356.507 79.2566 357.903 80.5984 358.027C80.8289 358.049 81.0717 358.026 81.2741 357.912C81.6016 357.728 81.759 357.345 81.8547 356.982C82.3666 355.046 81.802 352.935 82.3897 351.02C82.7854 349.732 83.6698 348.647 84.1715 347.397C84.6724 346.146 84.6647 344.488 83.5722 343.695C82.4668 342.894 80.899 343.404 79.7428 344.13C78.5873 344.858 77.4569 345.812 76.0914 345.866C74.9763 345.909 73.8986 345.327 72.7861 345.416C72.1586 345.466 71.8188 346.046 72.2588 346.515C72.4476 346.717 73.528 346.703 73.8465 346.842C75.1074 347.396 76.0278 348.738 76.5442 349.961Z" fill="none" opacity="1" stroke="#b8b3ab" stroke-linecap="butt" stroke-linejoin="miter" stroke-width="1" vectornator:layerName="path"/>
<path d="M65.7578 330.456C65.795 331.242 66.1888 331.975 66.6981 332.576C68.729 334.973 72.2687 335.351 75.4102 335.18C78.551 335.009 81.8383 334.489 84.7415 335.697C86.1822 336.297 87.4423 337.297 88.9254 337.781C90.4091 338.265 92.3302 338.041 93.108 336.69C93.7921 335.504 93.3027 333.967 92.4991 332.858C91.1921 331.054 89.0725 329.861 86.8495 329.678C84.0626 329.448 81.3926 330.715 78.6377 331.197C77.2093 331.447 75.7442 331.486 74.3042 331.311C72.8616 331.135 71.4505 330.748 70.0843 330.252C68.6892 329.747 65.6178 327.499 65.7578 330.456Z" fill="none" opacity="1" stroke="#b8b3ab" stroke-linecap="butt" stroke-linejoin="miter" stroke-width="1" vectornator:layerName="path"/>
<path d="M65.8139 356.56C65.7227 356.012 65.6238 355.452 65.7208 354.905C65.8178 354.358 66.1569 353.818 66.6862 353.646C67.3773 353.421 68.1326 353.908 68.482 354.544C68.8314 355.18 68.8847 355.929 68.9824 356.647C69.211 358.334 69.7236 359.982 70.4924 361.501C70.9549 362.416 71.5984 363.352 72.5869 363.628C73.2992 363.827 74.1599 363.675 74.6994 364.18C75.1169 364.572 75.1658 365.215 75.1112 365.784C74.9159 367.812 73.788 369.634 72.4887 371.206C71.1887 372.777 69.6863 374.186 68.5244 375.861C67.8988 376.763 67.3734 377.741 66.6444 378.563C65.7163 379.61 62.9942 381.198 62.3198 379.057C61.8432 377.548 63.5312 376.788 64.1247 375.645C65.9783 372.075 66.4536 367.567 66.4376 363.61C66.428 361.248 66.2019 358.889 65.8139 356.56Z" fill="none" opacity="1" stroke="#b8b3ab" stroke-linecap="butt" stroke-linejoin="miter" stroke-width="1" vectornator:layerName="path"/>
<path d="M71.5689 370.202C71.9581 369.731 72.1816 369.146 72.3486 368.559C72.4354 368.256 72.5086 367.941 72.4688 367.627C72.4289 367.315 72.2542 367.002 71.9639 366.878C71.565 366.705 71.0936 366.928 70.6722 366.819C70.2503 366.709 69.9805 366.291 69.8463 365.877C69.7127 365.463 69.6709 365.018 69.4904 364.622C69.4506 364.534 69.4005 364.446 69.317 364.396C69.141 364.293 68.9175 364.414 68.7736 364.558C68.0876 365.247 68.15 366.352 68.1956 367.322C68.236 368.173 68.2309 369.042 68.0433 369.876C67.9097 370.469 67.331 371.307 67.8738 371.841C68.6753 372.629 71.0313 370.853 71.5689 370.202Z" fill="none" opacity="1" stroke="#b8b3ab" stroke-linecap="butt" stroke-linejoin="miter" stroke-width="1" vectornator:layerName="path"/>
<path d="M38.1202 348.396C36.4849 346.265 34.6255 344.279 33.3448 341.919C32.9626 341.213 32.6267 340.401 32.8399 339.627C33.1527 338.494 34.5613 337.968 35.7129 338.212C36.8652 338.456 37.8081 339.253 38.6983 340.023C41.6124 342.54 44.5265 345.059 47.4406 347.576C49.363 349.237 51.2982 350.912 52.8686 352.907C54.274 354.692 55.3627 356.704 56.3563 358.746C57.2851 360.657 58.1509 362.653 58.3031 364.771C58.4932 367.408 57.542 370.038 56.0416 372.218C54.5418 374.397 52.5186 376.168 50.3964 377.752C49.2262 378.625 47.93 379.479 46.4694 379.538C42.4024 379.701 44.4713 376.14 44.8875 374.001C45.4719 371 45.5124 367.908 45.1058 364.882C44.303 358.906 41.7865 353.172 38.1202 348.396Z" fill="none" opacity="1" stroke="#b8b3ab" stroke-linecap="butt" stroke-linejoin="miter" stroke-width="1" vectornator:layerName="path"/>
<path d="M40.3356 347.402C39.7267 346.66 39.0722 345.584 39.6798 344.841C40.43 343.924 41.8765 344.834 42.6395 345.739C46.6899 350.542 50.2533 355.753 53.2599 361.265C54.2696 363.117 55.2369 365.076 55.3275 367.182C55.4315 369.586 53.7782 372.952 50.8976 372.67C47.8055 372.366 48.5834 367.984 48.2892 365.801C47.3874 359.099 44.6307 352.64 40.3356 347.402Z" fill="none" opacity="1" stroke="#b8b3ab" stroke-linecap="butt" stroke-linejoin="miter" stroke-width="1" vectornator:layerName="path"/>
<path d="M24.0895 358.67C23.864 357.761 23.5544 356.848 23.6251 355.915C23.6957 354.982 24.2783 354.003 25.2013 353.835C25.9431 353.7 26.6721 354.113 27.263 354.579C29.6652 356.476 30.9826 359.406 32.0058 362.287C32.8677 364.713 33.5929 367.285 33.2255 369.833C32.8581 372.38 31.1335 374.891 28.6131 375.439C26.7974 375.834 24.4793 375.358 23.415 376.878C23.169 377.23 23.0335 377.65 22.7753 377.992C21.4304 379.773 18.9331 378.155 18.4918 376.5C17.933 374.407 19.6056 373.697 20.8311 372.367C24.085 368.834 25.227 363.263 24.0895 358.67Z" fill="none" opacity="1" stroke="#b8b3ab" stroke-linecap="butt" stroke-linejoin="miter" stroke-width="1" vectornator:layerName="path"/>
<path d="M25.7714 360.894C25.6172 360.074 25.5003 359.029 26.2126 358.594C26.9057 358.17 27.8004 358.726 28.284 359.378C29.1865 360.594 29.4774 362.142 29.7164 363.636C30.0157 365.512 30.2552 367.518 29.4511 369.24C28.7137 370.82 24.8413 375.156 25.0963 371.13C25.3224 367.559 26.4651 364.579 25.7714 360.894Z" fill="none" opacity="1" stroke="#b8b3ab" stroke-linecap="butt" stroke-linejoin="miter" stroke-width="1" vectornator:layerName="path"/>
<path d="M141.017 328.079C139.999 328.534 139.199 329.377 138.58 330.303C135.906 334.299 136.626 340.198 140.18 343.439C143.649 346.602 149.553 347.786 150.61 352.354C151.164 354.752 150.075 357.42 151.099 359.66C151.858 361.319 153.597 362.298 155.308 362.942C160.807 365.012 167.001 364.723 172.624 363.016C178.247 361.31 183.37 358.267 188.182 354.898C191.335 352.692 194.417 350.298 196.785 347.267C199.448 343.857 201.099 339.776 202.466 335.674C205.395 326.892 207.178 317.743 210.452 309.082C213.727 300.422 218.756 292.033 226.554 287.016C230.325 284.59 234.618 283.034 238.301 280.476C245.563 275.431 249.894 265.655 246.804 257.381C244.905 252.295 240.499 248.376 235.469 246.309C230.438 244.242 224.831 243.887 219.421 244.462C211.385 245.316 203.315 248.369 197.866 254.323C192.333 260.369 190.083 268.616 187.71 276.453C184.102 288.359 179.806 300.059 174.85 311.473C173.158 315.369 171.344 319.303 168.473 322.437C165.017 326.211 160.395 328.265 155.388 328.975C153.462 329.248 151.384 329.499 149.461 329.241C146.648 328.865 143.913 326.786 141.017 328.079Z" fill="none" opacity="1" stroke="#b8b3ab" stroke-linecap="butt" stroke-linejoin="miter" stroke-width="1" vectornator:layerName="path"/>
<path d="M148.405 340.894C150.73 342.01 153.471 342.862 154.709 345.12C156.218 347.868 154.77 351.441 155.962 354.339C156.563 355.801 157.785 356.932 159.133 357.761C163.659 360.545 169.59 360.191 174.471 358.087C179.352 355.983 183.388 352.35 187.222 348.674C191.357 344.709 195.457 340.495 197.784 335.266C198.911 332.734 199.59 330.03 200.223 327.332C202.18 318.99 203.76 310.519 206.774 302.496C209.788 294.473 214.389 286.799 221.276 281.679C225.531 278.515 230.605 276.354 234.143 272.408C237.681 268.462 238.981 261.659 234.987 258.173C233.525 256.897 231.611 256.287 229.758 255.71C225.49 254.381 221.17 253.041 216.706 252.789C212.242 252.536 207.549 253.48 204.077 256.29C201.461 258.407 199.733 261.397 198.063 264.316C193.296 272.651 188.49 281.076 185.733 290.271C184.709 293.686 183.977 297.183 182.95 300.597C179.564 311.868 172.532 324.643 163.226 332.166C159.808 334.929 156.452 335.161 152.206 334.585C150.06 334.294 145.892 332.453 144.508 334.599C142.879 337.127 146.563 340.01 148.405 340.894Z" fill="none" opacity="1" stroke="#b8b3ab" stroke-linecap="butt" stroke-linejoin="miter" stroke-width="1" vectornator:layerName="path"/>
<path d="M206.468 265.65C207.158 264.464 207.912 263.287 208.944 262.38C210.285 261.202 212.018 260.555 213.76 260.154C216.074 259.622 218.667 259.528 220.66 260.818C223.04 262.357 223.923 265.576 223.325 268.343C222.726 271.109 220.906 273.464 218.845 275.409C216.784 277.353 214.443 278.985 212.395 280.944C209.601 283.617 207.408 286.848 204.782 289.685C203.058 291.547 200.944 293.327 198.411 293.509C195.877 293.691 193.107 291.472 193.656 288.998C193.883 287.978 194.594 287.144 195.281 286.355C197.881 283.372 200.28 280.986 201.563 277.276C202.93 273.323 204.109 269.181 206.468 265.65Z" fill="none" opacity="1" stroke="#908c86" stroke-linecap="butt" stroke-linejoin="miter" stroke-width="1" vectornator:layerName="path"/>
<path d="M161.921 338.148C160.882 339.094 160.178 340.561 160.575 341.908C162.326 342.541 164.337 343.465 164.684 345.29C164.99 346.898 163.814 348.471 163.955 350.102C164.15 352.361 166.903 353.673 169.123 353.186C171.343 352.7 173.071 351.004 174.605 349.33C183.565 339.555 190.468 327.912 194.739 315.37C195.322 313.656 195.845 311.716 195.036 310.096C193.853 307.729 190.336 307.454 188.09 308.86C182.261 312.51 181.205 321.674 177.395 327.04C173.461 332.581 166.642 333.855 161.921 338.148Z" fill="none" opacity="1" stroke="#908c86" stroke-linecap="butt" stroke-linejoin="miter" stroke-width="1" vectornator:layerName="path"/>
<path d="M167.624 341.068C167.678 341.485 167.843 341.934 168.219 342.123C168.486 342.257 168.804 342.231 169.09 342.315C169.65 342.478 170.014 343.046 170.109 343.62C170.203 344.194 170.079 344.779 169.95 345.346C169.867 345.707 169.785 346.097 169.93 346.439C170.145 346.947 170.807 347.142 171.343 347.002C171.878 346.863 172.308 346.475 172.7 346.086C175.122 343.675 176.902 340.712 178.656 337.783C179.709 336.025 180.761 334.267 181.814 332.51C181.897 332.371 181.982 332.206 181.923 332.056C181.858 331.894 181.659 331.837 181.485 331.815C179.501 331.557 177.677 332.875 176.227 334.249C174.556 335.833 173.452 337.055 171.148 337.189C169.084 337.308 167.339 338.862 167.624 341.068Z" fill="none" opacity="1" stroke="#b8b3ab" stroke-linecap="butt" stroke-linejoin="miter" stroke-width="1" vectornator:layerName="path"/>
<path d="M199.55 289.082C199.277 289.04 198.987 288.954 198.827 288.731C198.608 288.425 198.722 288 198.88 287.659C199.864 285.536 202.069 284.299 203.68 282.6C205.698 280.471 206.754 277.64 207.939 274.958C209.124 272.276 210.601 269.541 213.101 268.003C213.715 267.626 214.576 267.354 215.103 267.845C215.418 268.137 215.489 268.603 215.5 269.031C215.545 270.876 214.789 272.666 213.744 274.19C212.699 275.714 211.37 277.017 210.104 278.364C208.152 280.441 206.332 282.641 204.658 284.946C203.228 286.917 202.538 289.547 199.55 289.082Z" fill="none" opacity="1" stroke="#908c86" stroke-linecap="butt" stroke-linejoin="miter" stroke-width="1" vectornator:layerName="path"/>
<path d="M229.935 234.618C226.845 234.392 222.887 233.962 222.074 230.98C221.491 228.846 223.137 226.655 225.121 225.667C227.104 224.679 229.384 224.522 231.539 224.005C235.013 223.169 238.238 221.344 240.76 218.819C246.453 213.12 249.028 203.742 256.668 201.168C257.923 200.745 259.541 200.649 260.344 201.7C261.339 203.004 260.295 204.823 259.349 206.163C255.331 211.859 252.809 219.147 254.771 225.832C256.85 232.916 263.567 238.199 264.61 245.507C265.077 248.779 263.904 254.32 259.721 253.168C257.267 252.492 253.641 245.812 251.549 243.943C245.602 238.63 237.919 235.2 229.935 234.618Z" fill="none" opacity="1" stroke="#b8b3ab" stroke-linecap="butt" stroke-linejoin="miter" stroke-width="1" vectornator:layerName="path"/>
<path d="M368.254 229.352C375.746 227.589 384.224 229.142 390.731 225.038C394.256 222.814 397.633 218.896 401.672 219.94C402.634 220.188 403.562 220.778 403.959 221.687C404.271 222.399 404.225 223.211 404.138 223.983C403.661 228.178 402.12 232.181 401.402 236.343C400.32 242.622 401.126 249.184 399.397 255.318C397.667 261.453 391.958 267.342 385.716 265.998C383.154 265.446 381.002 263.787 378.745 262.458C372.091 258.54 364.386 257.641 356.896 259.166C351.69 260.227 347.204 261.393 345.576 255.004C342.583 243.253 358.527 231.642 368.254 229.352Z" fill="none" opacity="1" stroke="#b8b3ab" stroke-linecap="butt" stroke-linejoin="miter" stroke-width="1" vectornator:layerName="path"/>
<path d="M243.327 224.001C241.619 225.02 239.135 224.949 238.112 226.652C237.23 228.12 238.385 230.336 240.096 230.46C241.773 230.58 243.263 229.05 244.933 229.251C247.181 229.522 248.251 232.693 250.51 232.841C250.882 232.866 251.273 232.793 251.572 232.57C252.22 232.086 252.214 231.128 252.116 230.325C251.826 227.939 251.29 225.582 250.518 223.304C250.3 222.661 250.056 222.01 249.616 221.491C248.826 220.562 246.524 219.618 245.479 220.435C244.552 221.158 244.774 223.138 243.327 224.001Z" fill="none" opacity="1" stroke="#b8b3ab" stroke-linecap="butt" stroke-linejoin="miter" stroke-width="1" vectornator:layerName="path"/>
<path d="M264.834 259.954C261.958 260.619 259.381 262.481 257.851 264.999C257.257 265.975 256.808 267.096 256.92 268.232C257.146 270.536 259.575 272.031 261.874 272.353C264.172 272.674 266.518 272.203 268.828 272.436C276.046 273.163 280.881 280.278 287.649 282.887C290.203 283.872 293.015 284.184 295.723 283.783C296.615 283.651 297.529 283.426 298.223 282.853C299.065 282.159 299.448 281.074 299.913 280.088C301.521 276.684 304.565 273.985 308.142 272.793C310.678 271.947 313.393 271.843 316.028 271.395C318.664 270.948 321.381 270.06 323.14 268.051C324.898 266.042 325.278 262.655 323.352 260.806C321.982 259.491 319.906 259.274 318.005 259.315C311.411 259.457 305.072 261.804 298.532 262.657C291.992 263.51 284.512 262.459 280.39 257.323C278.811 255.355 274.881 246.331 271.232 249C269.458 250.297 270.528 253.636 270.404 255.374C270.153 258.888 267.818 259.265 264.834 259.954Z" fill="none" opacity="1" stroke="#b8b3ab" stroke-linecap="butt" stroke-linejoin="miter" stroke-width="1" vectornator:layerName="path"/>
<path d="M265.854 269.28C270.594 270.286 275.988 267.67 280.164 270.123C281.699 271.024 282.798 272.488 284.045 273.754C286.386 276.132 289.944 277.934 293.017 276.626C295.315 275.649 296.675 273.21 298.865 272.013C300.103 271.336 301.526 271.1 302.878 270.698C304.23 270.296 305.61 269.656 306.359 268.463C307.108 267.269 306.913 265.415 305.656 264.774C304.381 264.124 302.894 264.96 301.632 265.636C296.213 268.538 289.363 268.597 283.895 265.79C280.919 264.261 278.031 261.873 274.7 262.208C272.667 262.413 271.026 263.626 269.156 264.31C267.468 264.928 266.255 264.395 264.691 264.639C261.048 265.207 263.008 268.676 265.854 269.28Z" fill="none" opacity="1" stroke="#b8b3ab" stroke-linecap="butt" stroke-linejoin="miter" stroke-width="1" vectornator:layerName="path"/>
<path d="M394.233 388.133C394.361 381.642 394.871 375.07 393.531 368.717C392.192 362.364 388.642 356.087 382.765 353.299C379.52 351.758 375.216 351.577 372.707 354.145C370.771 356.126 370.434 359.122 370.202 361.879C369.631 368.659 369.061 375.438 368.491 382.218C368.12 386.63 367.734 391.105 366.198 395.258C362.284 405.843 351.099 412.673 339.823 413.521C335.516 413.845 330.996 413.458 327.067 415.247C323.773 416.746 321.216 419.768 320.286 423.258C319.356 426.749 320.072 430.639 322.184 433.572C325.088 437.602 330.27 439.533 335.245 439.571C340.219 439.608 345.055 437.997 349.662 436.127C353.335 434.637 356.968 432.96 360.848 432.145C364.728 431.329 368.969 431.454 372.409 433.422C377.063 436.085 379.322 441.443 382.793 445.525C385.425 448.618 388.852 451.034 392.654 452.475C395.272 453.467 398.297 453.976 400.817 452.755C404.357 451.038 404.166 447.367 403.078 444.273C401.525 439.861 400.212 435.36 399.078 430.823C396.84 421.871 395.361 412.73 394.666 403.528C394.278 398.407 394.133 393.269 394.233 388.133Z" fill="none" opacity="1" stroke="#b8b3ab" stroke-linecap="butt" stroke-linejoin="miter" stroke-width="1" vectornator:layerName="path"/>
<path d="M386.927 365.103C385.682 362.269 383.51 359.211 380.41 359.276C378.729 359.312 377.179 360.336 376.187 361.69C375.196 363.044 374.695 364.696 374.388 366.344C373.246 372.443 374.501 378.862 372.883 384.853C372.459 386.421 371.835 388.01 372.066 389.618C372.298 391.227 373.827 392.798 375.392 392.35C377.449 391.762 377.651 388.513 379.664 387.791C383.322 386.482 383.602 392.348 386.353 392.565C389.374 392.805 389.895 387.52 390.092 385.606C390.807 378.654 389.738 371.511 386.927 365.103Z" fill="none" opacity="1" stroke="#b8b3ab" stroke-linecap="butt" stroke-linejoin="miter" stroke-width="1" vectornator:layerName="path"/>
<path d="M378.463 368.302C378.638 367.4 378.861 366.473 379.42 365.744C379.978 365.014 380.96 364.529 381.835 364.814C382.969 365.181 383.385 366.553 383.506 367.736C383.704 369.687 383.566 371.711 384.249 373.55C384.698 374.758 385.48 375.818 385.956 377.016C386.546 378.501 386.638 380.178 386.213 381.718C385.986 382.542 385.403 383.46 384.55 383.392C383.135 383.277 383.185 380.851 381.871 380.318C379.766 379.464 379.463 382.878 377.932 382.865C376.462 382.852 376.464 380.274 376.616 379.193C376.802 377.864 377.523 376.631 377.727 375.277C378.075 372.961 378.011 370.622 378.463 368.302Z" fill="none" opacity="1" stroke="#b8b3ab" stroke-linecap="butt" stroke-linejoin="miter" stroke-width="1" vectornator:layerName="path"/>
<path d="M375.961 397.616C377.54 397.379 379.02 396.722 380.532 396.21C381.074 396.027 381.73 395.88 382.17 396.246C382.538 396.554 382.586 397.088 382.725 397.547C383.253 399.282 385.201 400.087 386.492 401.364C388.647 403.497 388.864 406.83 389.177 409.842C390.093 418.657 392.91 427.145 395.107 435.731C395.363 436.732 395.612 437.778 395.385 438.785C395.159 439.792 394.303 440.737 393.269 440.707C392.368 440.681 391.658 439.971 391.034 439.322C386.564 434.673 381.232 430.672 375.077 428.729C362.042 424.614 348.023 430.252 334.358 429.798C333.336 429.763 332.255 429.674 331.426 429.079C330.469 428.392 330.049 427.143 330.074 425.967C330.156 422.085 334.184 419.534 337.904 418.393C346.664 415.706 356.69 416.549 364.308 411.467C365.337 410.78 366.317 409.976 366.975 408.93C367.837 407.56 368.072 405.901 368.287 404.297C368.464 402.979 368.641 401.662 368.818 400.344C369.49 395.336 372.697 398.107 375.961 397.616Z" fill="none" opacity="1" stroke="#b8b3ab" stroke-linecap="butt" stroke-linejoin="miter" stroke-width="1" vectornator:layerName="path"/>
<path d="M385.425 409.52C384.95 407.677 383.928 405.518 382.023 405.435C380.879 405.386 379.749 406.158 378.647 405.845C377.593 405.544 377.068 404.409 376.523 403.46C375.977 402.511 374.984 401.537 373.941 401.876C372.902 402.214 372.675 403.554 372.628 404.644C372.488 407.906 372.349 411.169 372.209 414.432C372.175 415.233 372.148 416.075 372.506 416.794C373.334 418.46 375.609 418.587 377.3 419.369C379.953 420.597 381.221 423.554 382.74 426.048C383.82 427.819 385.83 431.15 387.828 431.995C391.139 433.398 389.098 429.078 388.641 427.225C387.202 421.392 386.925 415.34 385.425 409.52Z" fill="none" opacity="1" stroke="#b8b3ab" stroke-linecap="butt" stroke-linejoin="miter" stroke-width="1" vectornator:layerName="path"/>
<path d="M338.738 422.257C337.843 422.657 336.898 423.213 336.612 424.149C336.161 425.629 337.652 427.027 339.14 427.462C341.467 428.141 343.988 427.522 346.203 426.537C348.417 425.552 350.464 424.205 352.723 423.324C355.348 422.299 358.229 421.93 361.029 422.261C362.297 422.41 363.62 422.695 364.818 422.256C368.318 420.975 365.354 418.654 363.098 418.48C360.557 418.284 357.693 419.217 355.12 419.445C349.608 419.933 343.882 419.961 338.738 422.257Z" fill="none" opacity="1" stroke="#b8b3ab" stroke-linecap="butt" stroke-linejoin="miter" stroke-width="1" vectornator:layerName="path"/>
<path d="M293.441 445.613C295.225 447.741 297.732 449.255 300.449 449.846C302.893 450.378 305.43 450.177 307.925 450.348C310.42 450.519 313.048 451.153 314.763 452.969C316.859 455.19 317.054 458.529 317.273 461.572C317.492 464.614 318.052 468.009 320.52 469.811C322.519 471.268 325.28 471.24 327.645 470.505C330.008 469.769 332.124 468.42 334.362 467.363C340.834 464.308 348.22 463.758 355.373 464.098C362.526 464.438 369.624 465.615 376.782 465.812C378.602 465.863 380.587 465.793 381.986 464.633C384.114 462.868 383.839 459.53 382.938 456.919C379.994 448.389 371.429 441.565 362.422 442.364C359.407 442.632 356.527 443.685 353.611 444.496C347.498 446.196 341.094 446.849 334.764 446.417C330.808 446.148 326.76 445.412 323.428 443.268C318.531 440.117 315.935 434.476 313.774 429.077C313.287 427.86 312.793 426.613 311.921 425.634C311.049 424.655 309.704 423.984 308.425 424.276C307.082 424.583 306.164 425.822 304.915 426.403C302.995 427.296 300.695 426.463 298.97 425.236C297.245 424.008 295.789 422.387 293.898 421.434C292.008 420.48 289.391 420.421 288.06 422.065C287.352 422.94 285.896 426.146 285.802 427.224C285.665 428.787 287.631 431.466 288.233 433.175C289.722 437.399 290.478 442.08 293.441 445.613Z" fill="none" opacity="1" stroke="#b8b3ab" stroke-linecap="butt" stroke-linejoin="miter" stroke-width="1" vectornator:layerName="path"/>
<path d="M293.056 439.215C293.86 441.416 294.848 443.693 296.736 445.087C300.866 448.137 306.926 445.556 311.75 447.321C313.466 447.949 315.039 449.133 316.866 449.182C317.45 449.197 318.065 449.079 318.511 448.702C318.877 448.392 319.094 447.937 319.208 447.471C319.671 445.577 318.583 443.684 317.539 442.035C315.013 438.043 312.486 434.049 309.959 430.057C309.799 429.803 309.636 429.548 309.417 429.344C308.695 428.677 307.538 428.744 306.638 429.143C305.739 429.542 304.988 430.209 304.126 430.684C302.214 431.733 299.76 431.727 297.852 430.667C296.698 430.026 295.771 429.051 294.695 428.287C287.068 422.878 292.154 436.742 293.056 439.215Z" fill="none" opacity="1" stroke="#b8b3ab" stroke-linecap="butt" stroke-linejoin="miter" stroke-width="1" vectornator:layerName="path"/>
<path d="M300.084 440.399C302.991 440.968 306.374 439.717 308.764 441.466C309.749 442.187 310.594 443.415 311.812 443.303C311.949 443.29 312.089 443.257 312.195 443.17C312.344 443.05 312.4 442.852 312.437 442.665C312.759 441.065 312.301 439.327 311.23 438.092C310.16 436.858 308.503 436.155 306.869 436.242C306.115 436.281 305.372 436.48 304.617 436.497C302.208 436.551 297.135 431.988 295.159 433.552C292.436 435.705 298.23 440.037 300.084 440.399Z" fill="none" opacity="1" stroke="#b8b3ab" stroke-linecap="butt" stroke-linejoin="miter" stroke-width="1" vectornator:layerName="path"/>
<path d="M321.744 463.65C322.575 465.208 324.597 466.281 326.163 465.462C327.594 464.713 327.967 462.889 328.751 461.479C329.988 459.256 332.626 457.894 335.16 458.17C336.281 458.293 337.389 458.705 338.506 458.548C339.843 458.358 341.006 457.277 341.289 455.959C341.571 454.641 340.953 453.179 339.811 452.461C337.146 450.787 333.468 453.379 330.566 452.158C329.61 451.756 328.86 450.978 327.936 450.507C320.377 446.662 319.699 459.821 321.744 463.65Z" fill="none" opacity="1" stroke="#b8b3ab" stroke-linecap="butt" stroke-linejoin="miter" stroke-width="1" vectornator:layerName="path"/>
<path d="M369.884 448.568C374.11 450.131 378.372 453.267 378.799 457.742C379.058 460.447 377.225 463.559 374.501 463.58C372.709 463.594 371.202 462.342 369.708 461.354C365.645 458.67 360.518 457.639 355.73 458.546C354.175 458.84 352.642 459.331 351.059 459.347C348.398 459.377 344.245 456.937 345.556 453.668C346.392 451.583 349.394 451.768 351.246 451.469C354.685 450.914 356.819 448.748 360.02 447.763C363.237 446.773 366.8 447.427 369.884 448.568Z" fill="none" opacity="1" stroke="#b8b3ab" stroke-linecap="butt" stroke-linejoin="miter" stroke-width="1" vectornator:layerName="path"/>
<path d="M323.891 462.724C324.499 462.805 325.054 462.312 325.304 461.753C325.555 461.194 325.591 460.567 325.73 459.971C326.254 457.73 328.425 455.983 330.73 455.948C331.583 455.935 332.741 455.928 332.917 455.095C333.027 454.571 332.571 454.064 332.055 453.919C330.493 453.479 325.011 454.656 323.74 455.928C322.673 456.995 321.75 462.442 323.891 462.724Z" fill="none" opacity="1" stroke="#b8b3ab" stroke-linecap="butt" stroke-linejoin="miter" stroke-width="1" vectornator:layerName="path"/>
<path d="M351.893 454.292C351.467 454.69 351.264 455.389 351.599 455.864C354.382 456.299 357.112 454.879 359.924 454.706C363.775 454.471 367.323 456.558 370.804 458.218C371.972 458.775 373.634 459.168 374.338 458.085C374.826 457.336 374.475 456.308 373.897 455.626C373.022 454.597 371.728 454.027 370.45 453.584C367.056 452.407 363.333 451.809 359.738 452.045C357.597 452.186 353.453 452.828 351.893 454.292Z" fill="none" opacity="1" stroke="#b8b3ab" stroke-linecap="butt" stroke-linejoin="miter" stroke-width="1" vectornator:layerName="path"/>
<path d="M300.627 420.904C301.087 421.249 301.624 421.59 302.194 421.513C302.581 421.461 302.914 421.223 303.227 420.991C304.752 419.858 306.558 418.61 308.39 419.119C310.185 419.618 311.125 421.586 312.697 422.587C313.112 422.852 313.744 423.008 314.035 422.61C314.145 422.46 314.171 422.267 314.193 422.082C314.428 420.167 314.664 418.253 314.899 416.339C314.944 415.978 314.984 415.594 314.822 415.269C314.681 414.988 314.408 414.796 314.131 414.644C311.031 412.933 307.119 414.869 303.655 414.132C302.631 413.915 301.674 413.468 300.679 413.144C298.682 412.494 294.602 411.518 295.137 414.608C295.528 416.867 298.912 419.619 300.627 420.904Z" fill="none" opacity="1" stroke="#b8b3ab" stroke-linecap="butt" stroke-linejoin="miter" stroke-width="1" vectornator:layerName="path"/>
<path d="M277.102 430C277.693 430.3 278.242 430.764 278.905 430.792C279.915 430.835 280.678 429.824 280.884 428.837C281.089 427.849 280.934 426.816 281.108 425.822C281.633 422.833 284.986 420.769 285.018 417.733C285.021 417.499 284.993 417.243 284.828 417.077C284.699 416.948 284.513 416.899 284.336 416.856C283.109 416.566 281.745 416.375 280.646 416.993C279.497 417.64 278.962 418.99 278.646 420.267C278.33 421.545 278.128 422.905 277.343 423.962C276.55 425.03 275.289 425.621 274.16 426.326C273.031 427.031 271.916 428.026 271.77 429.347C271.516 431.657 275.379 429.127 277.102 430Z" fill="none" opacity="1" stroke="#b8b3ab" stroke-linecap="butt" stroke-linejoin="miter" stroke-width="1" vectornator:layerName="path"/>
<path d="M355.009 242.155C354.023 243.658 353.233 245.361 353.197 247.158C353.159 248.955 354.009 250.848 355.611 251.669C357.093 252.426 358.914 252.152 360.44 251.487C361.965 250.821 363.308 249.801 364.78 249.025C370.447 246.035 378.013 247.189 382.525 251.732C383.789 253.005 385.107 254.634 386.901 254.557C388.167 254.502 389.249 253.534 389.807 252.398C390.365 251.262 390.498 249.973 390.623 248.714C390.808 246.845 390.965 244.835 390.028 243.205C389.424 242.157 388.432 241.394 387.425 240.72C382.839 237.652 377.14 235.86 371.738 237.002C368.158 237.76 364.951 238.699 361.357 239.147C358.446 239.51 357.005 239.114 355.009 242.155Z" fill="none" opacity="1" stroke="#b8b3ab" stroke-linecap="butt" stroke-linejoin="miter" stroke-width="1" vectornator:layerName="path"/>
<path d="M457.483 311.929C456.887 311.924 456.272 311.901 455.729 311.656C454.448 311.077 454.005 309.526 453.183 308.388C452.308 307.177 450.963 306.41 449.825 305.442C448.688 304.474 447.682 303.084 447.912 301.61C448.241 299.495 450.797 298.563 452.942 298.501C455.086 298.44 457.426 298.772 459.207 297.579C460.648 296.614 461.418 294.81 462.967 294.031C464.726 293.147 466.917 293.908 468.417 295.181C469.917 296.453 470.96 298.17 472.289 299.62C475.361 302.97 479.766 304.72 483.474 307.352C485.203 308.581 488.437 311.746 486.378 314.089C484.575 316.14 481.718 313.897 479.791 313.197C472.32 310.485 465.211 311.995 457.483 311.929Z" fill="none" opacity="1" stroke="#b8b3ab" stroke-linecap="butt" stroke-linejoin="miter" stroke-width="1" vectornator:layerName="path"/>
<path d="M208.063 464.752C204.64 460.159 202.587 454.722 199.983 449.622C189.935 429.939 171.903 415.62 153.556 403.256C150.263 401.037 146.881 398.803 144.438 395.677C141.995 392.55 140.617 388.3 141.913 384.553C144.3 377.647 153.467 376.375 160.768 376.919C169.041 377.534 177.287 378.935 185.577 378.615C193.866 378.295 202.446 376.033 208.465 370.338C212.168 366.835 214.684 362.237 216.403 357.445C220.371 346.386 220.303 334.312 223.036 322.887C225.77 311.462 232.643 299.659 244.055 296.77C258.902 293.013 273.337 305.813 288.64 305.149C296.325 304.816 303.404 301.108 310.187 297.485C318.091 293.262 325.996 289.039 333.9 284.817C338.86 282.168 343.987 279.467 349.586 278.933C355.186 278.399 361.438 280.581 364.02 285.567C366.275 289.923 365.233 295.344 362.87 299.643C360.507 303.942 356.979 307.463 353.941 311.318C346.637 320.588 342.124 332.021 341.134 343.771C340.025 356.936 343.229 370.056 343.858 383.252C343.982 385.851 343.984 388.563 342.857 390.91C341.892 392.919 340.177 394.477 338.341 395.746C319.585 408.712 291.335 394.036 271.914 405.986C261.322 412.503 256.538 425.06 250.95 436.153C245.685 446.607 239.141 456.417 231.515 465.303C228.6 468.701 225.256 473.222 220.337 472.952C215.523 472.688 210.762 468.374 208.063 464.752Z" fill="none" opacity="1" stroke="#b8b3ab" stroke-dasharray="2.0,4.0,2.0,4.0" stroke-linecap="butt" stroke-linejoin="miter" stroke-width="1" vectornator:layerName="path"/>
<path d="M311.038 393.966C319.871 394.922 330.377 393.241 334.648 385.467C336.931 381.312 336.876 376.32 336.762 371.581C336.608 365.187 336.453 358.792 336.3 352.398C336.172 347.066 335.993 341.526 333.553 336.781C331.113 332.035 325.7 328.358 320.525 329.694C315.175 331.075 312.357 336.894 311.011 342.242C309.665 347.589 308.909 353.465 305.129 357.487C298.528 364.51 285.756 362.692 279.555 370.069C277.978 371.944 277.002 374.258 276.354 376.619C274.446 383.576 276.434 394.074 285.457 393.394C289.246 393.109 292.268 391.711 296.296 391.986C301.243 392.324 306.112 393.433 311.038 393.966Z" fill="none" opacity="1" stroke="#b8b3ab" stroke-linecap="butt" stroke-linejoin="miter" stroke-width="1" vectornator:layerName="path"/>
<path d="M229.196 348.089C229.278 339.381 228.695 330.458 231.377 322.17C234.058 313.882 241.047 306.211 249.771 305.929C255.474 305.744 260.793 308.673 265.49 311.905C268.369 313.885 271.225 316.106 272.91 319.162C274.594 322.218 274.833 326.31 272.625 329.015C268.742 333.771 260.954 331.399 255.233 333.648C250.873 335.362 248.09 339.679 246.432 344.052C244.774 348.424 243.936 353.103 241.908 357.318C239.879 361.532 236.246 365.405 231.59 365.951C220.438 367.255 229.147 353.242 229.196 348.089Z" fill="none" opacity="1" stroke="#908c86" stroke-linecap="butt" stroke-linejoin="miter" stroke-width="1" vectornator:layerName="path"/>
<path d="M159.812 388.548C158.62 388.63 157.349 388.861 156.503 389.703C155.06 391.14 155.539 393.607 156.56 395.368C159.616 400.636 165.904 402.898 170.953 406.315C177.145 410.507 181.67 416.674 186.066 422.714C193.465 432.881 200.879 443.069 207.219 453.926C208.741 456.533 210.249 459.237 212.561 461.182C214.873 463.127 218.223 464.168 220.979 462.926C223.405 461.833 224.805 459.309 225.943 456.908C229.815 448.739 232.614 440.097 236.482 431.925C240.349 423.754 245.462 415.886 252.868 410.683C254.963 409.211 257.245 407.946 258.971 406.057C261.575 403.205 262.607 399.253 262.996 395.416C263.425 391.207 263.166 386.842 261.503 382.951C259.84 379.06 256.629 375.697 252.557 374.522C247.11 372.951 241.067 375.394 235.671 373.653C231.498 372.305 228.032 368.547 223.649 368.689C220.178 368.8 217.27 371.416 215.377 374.32C213.484 377.224 212.267 380.541 210.232 383.349C205.862 389.383 198.175 392.317 190.722 392.698C180.199 393.236 170.149 387.836 159.812 388.548Z" fill="none" opacity="1" stroke="#b8b3ab" stroke-linecap="butt" stroke-linejoin="miter" stroke-width="1" vectornator:layerName="path"/>
<path d="M260.851 364.972C255.07 358.1 256.917 346.278 264.521 341.489C268.383 339.056 273.13 338.386 277.094 336.122C282.496 333.037 286.006 326.908 285.928 320.699C285.893 317.924 285.372 314.664 287.434 312.801C288.51 311.829 290.025 311.545 291.456 311.305C298.023 310.202 304.787 309.118 310.498 305.699C314.427 303.348 317.652 300.005 321.31 297.252C326.258 293.528 331.943 290.922 337.578 288.345C341.146 286.713 345.386 285.091 348.821 286.988C352.156 288.83 353.116 293.22 352.81 297.012C352.19 304.692 347.626 311.95 340.964 315.848C330.698 321.855 316.661 319.996 307.658 327.763C300.509 333.93 298.668 344.477 291.984 351.142C288.457 354.659 283.841 356.83 279.697 359.599C275.823 362.188 273.001 365.469 269.627 368.57C267.522 370.506 268.419 371.148 265.849 370.257C264.482 369.783 261.858 366.168 260.851 364.972Z" fill="none" opacity="1" stroke="#908c86" stroke-linecap="butt" stroke-linejoin="miter" stroke-width="1" vectornator:layerName="path"/>
<path d="M209.038 449.305C206.641 446.185 204.995 442.571 203.201 439.07C194.941 422.952 183.117 408.663 168.818 397.519C167.953 396.845 166.996 395.668 167.682 394.812C167.917 394.521 168.288 394.378 168.649 394.277C171.761 393.397 175.033 394.566 178.13 395.497C181.194 396.419 184.325 397.117 187.491 397.586C190.104 397.973 192.751 398.204 195.386 398.025C198.267 397.829 201.089 397.147 203.894 396.469C207.605 395.571 211.631 394.471 213.876 391.389C215.292 389.446 215.772 386.992 216.811 384.824C217.849 382.656 219.881 380.589 222.276 380.837C223.141 380.927 223.945 381.313 224.698 381.746C226.896 383.007 228.833 384.706 231.111 385.815C234.105 387.274 237.497 387.628 240.736 388.406C243.976 389.183 247.32 390.57 249.124 393.365C250.454 395.427 250.75 398.118 249.902 400.42C248.935 403.041 246.663 404.969 244.263 406.407C241.864 407.844 239.248 408.921 236.962 410.531C230.146 415.328 227.345 423.952 225.497 432.066C224.12 438.113 223.001 444.383 220.169 449.965C219.235 451.805 217.844 454.509 215.402 454.354C212.899 454.195 210.433 451.12 209.038 449.305Z" fill="none" opacity="1" stroke="#b8b3ab" stroke-dasharray="1.9919999837875366,3.9850001335144043,1.9919999837875366,3.9850001335144043" stroke-linecap="round" stroke-linejoin="round" stroke-width="1" vectornator:layerName="path"/>
<path d="M244.845 379.48C247.744 379.094 250.895 378.913 253.388 380.44C255.269 381.593 256.505 383.594 257.153 385.698C257.801 387.803 257.919 390.029 257.995 392.23C258.028 393.19 258.005 394.275 257.304 394.933C256.409 395.774 254.867 395.399 254.001 394.53C253.134 393.661 252.726 392.453 252.184 391.353C250.891 388.729 248.686 386.564 246.038 385.314C244.486 384.584 236.614 383.639 236.25 382.13C235.594 379.41 243.627 379.641 244.845 379.48Z" fill="none" opacity="1" stroke="#b8b3ab" stroke-linecap="butt" stroke-linejoin="miter" stroke-width="1" vectornator:layerName="path"/>
<path d="M198.472 404.384C202.826 404.537 207.298 404.522 211.385 403.015C213.371 402.284 215.212 401.218 217.043 400.157C218.493 399.317 219.952 398.47 221.227 397.384C222.697 396.131 224.051 394.497 225.96 394.191C227.594 393.928 229.192 394.726 230.655 395.499C232.273 396.355 234.002 397.325 234.746 398.994C235.737 401.221 234.573 403.853 232.92 405.644C231.266 407.436 229.134 408.756 227.592 410.645C226.366 412.148 225.567 413.946 224.782 415.719C222.667 420.502 220.544 425.306 219.154 430.347C218.736 431.866 218.375 433.427 217.576 434.786C216.777 436.144 215.438 437.296 213.863 437.416C212.204 437.541 210.641 436.492 209.658 435.154C208.674 433.816 208.147 432.208 207.555 430.658C205.01 424.006 200.956 417.935 195.783 413.031C193.815 411.165 191.612 409.425 189.005 408.665C187.606 408.258 186.068 408.119 184.899 407.249C184.054 406.618 183.299 405.038 184.061 404.083C184.889 403.047 186.814 403.616 187.898 403.716C191.416 404.038 194.942 404.26 198.472 404.384Z" fill="none" opacity="1" stroke="#b8b3ab" stroke-linecap="butt" stroke-linejoin="miter" stroke-width="1" vectornator:layerName="path"/>
<path d="M210.052 422.688C210.44 423.723 210.806 424.804 211.55 425.623C212.294 426.442 213.539 426.927 214.535 426.443C215.255 426.094 215.675 425.344 216.037 424.631C217.444 421.859 218.643 418.983 219.622 416.033C220.444 413.559 221.191 410.9 223.118 409.139C224.267 408.09 225.779 407.425 226.702 406.173C227.561 405.009 227.78 403.405 227.266 402.054C226.916 401.136 226.151 400.294 225.172 400.197C223.607 400.043 222.567 401.682 221.595 402.914C219.872 405.101 217.3 406.514 214.606 407.232C211.912 407.949 209.087 408.017 206.3 407.887C202.926 407.731 199.892 410.439 203.278 413.151C206.602 415.814 208.53 418.625 210.052 422.688Z" fill="none" opacity="1" stroke="#b8b3ab" stroke-linecap="butt" stroke-linejoin="miter" stroke-width="1" vectornator:layerName="path"/>
<path d="M246.486 338.178C247.695 335.755 248.986 333.271 251.078 331.548C253.666 329.417 257.141 328.729 260.481 328.424C262.875 328.206 265.615 327.977 267.042 326.048C268.51 324.065 267.812 321.191 266.441 319.142C263.27 314.399 257.231 312.286 251.519 312.138C246.362 312.003 240.699 313.555 237.86 317.853C237.139 318.944 236.635 320.162 236.176 321.387C232.692 330.683 231.629 340.649 231.161 350.498C231.058 352.645 229.415 360.646 232.306 361.094C236.05 361.674 238.016 356.231 239.109 353.788C241.457 348.534 243.917 343.329 246.486 338.178Z" fill="none" opacity="1" stroke="#b8b3ab" stroke-linecap="butt" stroke-linejoin="miter" stroke-width="1" vectornator:layerName="path"/>
<path d="M249.216 328.752C250.291 327.606 251.439 326.495 252.821 325.748C254.495 324.843 256.416 324.522 258.19 323.832C259.26 323.415 260.424 322.634 260.409 321.488C260.397 320.515 259.527 319.785 258.675 319.312C253.652 316.526 247.202 318.021 242.37 321.125C241.166 321.899 239.997 322.789 239.205 323.98C238.315 325.317 237.964 326.93 237.63 328.5C236.71 332.829 235.79 337.158 234.869 341.487C234.351 343.924 233.075 347.774 233.958 350.236C234.761 352.471 236.504 351.991 237.149 350.103C238.888 345.008 240.78 340.203 243.762 335.673C245.378 333.216 247.203 330.897 249.216 328.752Z" fill="none" opacity="1" stroke="#b8b3ab" stroke-linecap="butt" stroke-linejoin="miter" stroke-width="1" vectornator:layerName="path"/>
<path d="M262.113 359.652C261.525 357.04 261.983 354.302 262.728 351.731C263.33 349.658 264.245 347.484 266.116 346.403C267.562 345.568 269.315 345.541 270.965 345.285C275.877 344.526 280.276 341.555 283.39 337.69C286.504 333.826 288.423 329.119 289.633 324.309C289.916 323.181 290.171 322.024 290.753 321.017C292.587 317.839 296.802 317.233 300.373 316.367C314.929 312.836 326.027 299.887 340.793 297.37C342.144 297.14 343.555 297.005 344.866 297.403C346.178 297.801 347.372 298.842 347.581 300.193C347.725 301.117 347.403 302.054 346.958 302.878C345.382 305.799 342.325 307.672 339.158 308.683C335.99 309.694 332.643 309.969 329.361 310.511C316.364 312.656 303.831 319.468 296.501 330.388C293.465 334.912 291.374 340.008 288.395 344.569C284.693 350.236 279.651 354.995 273.898 358.572C272.573 359.396 271.212 360.19 269.992 361.164C268.865 362.065 268.178 363.565 267.123 364.391C264.782 366.218 262.529 361.505 262.113 359.652Z" fill="none" opacity="1" stroke="#b8b3ab" stroke-linecap="butt" stroke-linejoin="miter" stroke-width="1" vectornator:layerName="path"/>
<path d="M287.74 390.119C286.549 390.168 285.285 390.128 284.277 389.492C283.487 388.992 282.947 388.178 282.547 387.334C281.73 385.609 281.403 383.699 281.112 381.813C280.825 379.965 280.565 378.057 281.023 376.244C282.017 372.31 286.076 369.932 290.007 368.895C293.938 367.857 298.127 367.694 301.834 366.028C304.058 365.028 306.013 363.527 307.945 362.041C309.412 360.912 310.901 359.76 311.973 358.252C313.395 356.251 313.971 353.791 314.516 351.399C315.131 348.694 315.748 345.987 316.365 343.281C317.032 340.35 318.046 336.995 320.841 335.874C321.845 335.471 322.973 335.428 324.032 335.646C326.051 336.061 327.845 337.451 328.75 339.299C329.705 341.247 329.666 343.515 329.608 345.682C329.3 357.114 328.992 368.545 328.683 379.977C328.62 382.354 328.452 384.982 326.76 386.657C325.502 387.9 323.622 388.338 321.852 388.255C320.083 388.171 318.373 387.631 316.663 387.169C313.736 386.378 310.748 385.808 307.735 385.465C305.13 385.169 302.429 385.053 299.946 385.891C297.769 386.628 295.841 387.982 293.762 388.942C291.853 389.823 289.856 390.034 287.74 390.119Z" fill="none" opacity="1" stroke="#b8b3ab" stroke-linecap="butt" stroke-linejoin="miter" stroke-width="1" vectornator:layerName="path"/>
<path d="M288.366 378.601C288.57 379.761 289.857 380.366 291.006 380.636C292.699 381.033 294.467 381.114 296.189 380.872C300.472 380.273 304.596 377.715 308.835 378.564C312.059 379.21 315.115 381.79 318.252 380.804C320.287 380.165 321.603 378.138 322.145 376.078C322.687 374.02 322.623 371.856 322.861 369.74C323.247 366.319 324.421 363.036 325.006 359.643C325.56 356.428 325.579 353.122 325.061 349.901C324.884 348.809 324.535 347.578 323.532 347.107C322.408 346.58 321.09 347.309 320.212 348.186C318.107 350.287 317.124 353.255 316.545 356.169C315.967 359.084 315.716 362.08 314.752 364.89C313.788 367.701 311.953 370.4 309.191 371.513C307.578 372.163 305.799 372.219 304.063 372.353C300.921 372.594 297.847 372.916 294.721 373.085C292.329 373.213 287.845 375.659 288.366 378.601Z" fill="none" opacity="1" stroke="#b8b3ab" stroke-linecap="butt" stroke-linejoin="miter" stroke-width="1" vectornator:layerName="path"/>
<path d="M153.526 319.179L153.526 323.932" fill="none" opacity="1" stroke="#908c86" stroke-linecap="butt" stroke-linejoin="miter" stroke-width="1" vectornator:layerName="path"/>
<path d="M155.908 321.555L151.144 321.555" fill="none" opacity="1" stroke="#908c86" stroke-linecap="butt" stroke-linejoin="miter" stroke-width="1" vectornator:layerName="path"/>
<path d="M247.032 427.767L247.032 432.52" fill="none" opacity="1" stroke="#908c86" stroke-linecap="butt" stroke-linejoin="miter" stroke-width="1" vectornator:layerName="path"/>
<path d="M249.414 430.143L244.65 430.143" fill="none" opacity="1" stroke="#908c86" stroke-linecap="butt" stroke-linejoin="miter" stroke-width="1" vectornator:layerName="path"/>
<path d="M463.73 301.355L463.73 306.107" fill="none" opacity="1" stroke="#908c86" stroke-linecap="butt" stroke-linejoin="miter" stroke-width="1" vectornator:layerName="path"/>
<path d="M466.112 303.731L461.348 303.731" fill="none" opacity="1" stroke="#908c86" stroke-linecap="butt" stroke-linejoin="miter" stroke-width="1" vectornator:layerName="path"/>
<path d="M298.315 214.112L298.315 218.865" fill="none" opacity="1" stroke="#908c86" stroke-linecap="butt" stroke-linejoin="miter" stroke-width="1" vectornator:layerName="path"/>
<path d="M300.698 216.489L295.934 216.489" fill="none" opacity="1" stroke="#908c86" stroke-linecap="butt" stroke-linejoin="miter" stroke-width="1" vectornator:layerName="path"/>
<path d="M24.2237 419.517L21.7252 423.835L26.7229 423.835L24.2237 419.517L21.7252 423.835L26.7229 423.835L24.2237 419.517Z" fill="#908c86" fill-rule="nonzero" opacity="1" stroke="none" vectornator:layerName="path"/>
<path d="M193.585 225.687L191.087 230.005L196.084 230.005L193.585 225.687L191.087 230.005L196.084 230.005L193.585 225.687Z" fill="#908c86" fill-rule="nonzero" opacity="1" stroke="none" vectornator:layerName="path"/>
<path d="M309.563 482.019L307.063 486.337L312.061 486.337L309.563 482.019L307.063 486.337L312.061 486.337L309.563 482.019Z" fill="#908c86" fill-rule="nonzero" opacity="1" stroke="none" vectornator:layerName="path"/>
</g>
</svg>
